{
.appVersion = "3151";
.formatVersion = 3;
DisplayStrings = (
"/dblgravecomb.case ȀȄȈȌȐȔȐABCDEFGHIJKLMNOPQRSTUVWXYZ",
"/dblgravecomb.case/hungarumlautcomb.case ŐŰ ̋őű̋/ohungarumlaut.sc/uhungarumlaut.sc ˝ő",
"̏̏ȁȅȉȍȑȕ/adblgrave.ss01/adblgrave.ss03/adblgrave.sc/edblgrave.sc/idblgrave.sc/odblgrave.sc/rdblgrave.sc/udblgrave.sc ȑ",
"/dblgravecomb.case AȀȄȈȌȐȔRȐ",
abcdefghijklmnopqrstuvwxyz,
ABCDEFGHOIJKLMNOPQRSTUVWXYZ,
"­ß",
H,
"/.notdef/.notdef H×",
"̋",
"̏",
"+−×÷=≠><≥≤±≈~¬^∞∫∏√∂µ",
"   abcdefghijklmnopqrstuvwxyz",
noHO,
"₧"
);
axes = (
{
name = Weight;
tag = wght;
}
);
classes = (
{
automatic = 1;

glyphs = (
{
glyphname = .notdef;
lastChange = "2023-04-14 00:29:19 +0000";
layers = (
{
background = {
anchors = (
{
name = top.case;
pos = (380,720);
}
);
shapes = (
{
closed = 1;
nodes = (
(144,0,l),
(144,346,l),
(616,346,l),
(616,0,l),
(655,0,l),
(655,700,l),
(616,700,l),
(616,382,l),
(144,382,l),
(144,700,l),
(105,700,l),
(105,0,l)
);
},
{
closed = 1;
nodes = (
(296,332,l),
(418,210,l),
(437,228,l),
(314,351,l),
(436,472,l),
(418,491,l),
(295,368,l),
(173,491,l),
(154,472,l),
(277,349,l),
(155,227,l),
(173,208,l)
);
},
{
closed = 1;
nodes = (
(296,323,l),
(417,152,l),
(444,177,l),
(320,351,l),
(442,533,l),
(417,559,l),
(295,377,l),
(174,559,l),
(148,533,l),
(271,349,l),
(149,177,l),
(174,150,l)
);
}
);
};
layerId = "620D8D18-E43F-4D11-9420-7EF908A5CAE8";
shapes = (
{
closed = 1;
nodes = (
(502,27,l),
(502,693,l),
(84,693,l),
(84,27,l)
);
},
{
closed = 1;
nodes = (
(124,652,l),
(462,652,l),
(462,68,l),
(124,68,l)
);
},
{
closed = 1;
nodes = (
(295,331,l),
(412,164,l),
(441,177,l),
(317,356,l),
(438,533,l),
(414,551,l),
(296,379,l),
(177,551,l),
(152,534,l),
(275,356,l),
(153,178,l),
(181,162,l)
);
}
);
width = 586;
},
{
background = {
shapes = (
{
closed = 1;
nodes = (
(214,0,l),
(214,303,l),
(567,303,l),
(567,0,l),
(698,0,l),
(698,700,l),
(567,700,l),
(567,418,l),
(214,418,l),
(214,700,l),
(83,700,l),
(83,0,l)
);
}
);
};
layerId = "514A1583-697A-4C0A-B081-2869E94CF283";
shapes = (
{
closed = 1;
nodes = (
(502,27,l),
(502,693,l),
(84,693,l),
(84,27,l)
);
},
{
closed = 1;
nodes = (
(124,652,l),
(462,652,l),
(462,68,l),
(124,68,l)
);
},
{
closed = 1;
nodes = (
(295,331,l),
(412,164,l),
(441,177,l),
(317,356,l),
(438,533,l),
(414,551,l),
(296,379,l),
(177,551,l),
(152,534,l),
(275,356,l),
(153,178,l),
(181,162,l)
);
}
);
width = 586;
},
{
background = {
shapes = (
{
closed = 1;
nodes = (
(278,0,l),
(278,258,l),
(513,258,l),
(513,0,l),
(736,0,l),
(736,700,l),
(513,700,l),
(513,453,l),
(278,453,l),
(278,700,l),
(55,700,l),
(55,0,l)
);
}
);
};
layerId = "5C950900-0D0F-4959-81DE-75F048290F1B";
shapes = (
{
closed = 1;
nodes = (
(502,27,l),
(502,693,l),
(84,693,l),
(84,27,l)
);
},
{
closed = 1;
nodes = (
(124,652,l),
(462,652,l),
(462,68,l),
(124,68,l)
);
},
{
closed = 1;
nodes = (
(295,331,l),
(412,164,l),
(441,177,l),
(317,356,l),
(438,533,l),
(414,551,l),
(296,379,l),
(177,551,l),
(152,534,l),
(275,356,l),
(153,178,l),
(181,162,l)
);
}
);
width = 586;
}
);
},
{
color = 4;
glyphname = A;
kernLeft = A;
kernRight = A;
lastChange = "2021-09-30 22:26:40 +0000";
layers = (
{
anchors = (
{
name = bottom;
pos = (324,-35);
},
{
name = ogonek;
pos = (584,10);
},
{
name = top.case;
pos = (324,720);
}
);
background = {
shapes = (
{
closed = 1;
nodes = (
(23,0,l),
(324,676,l),
(626,0,l),
(669,0,l),
(352,700,l),
(297,700,l),
(-19,0,l)
);
},
{
closed = 1;
nodes = (
(550,200,l),
(550,236,l),
(105,236,l),
(105,200,l)
);
}
);
};
guides = (
{
angle = 90;
pos = (324,83);
}
);
layerId = "620D8D18-E43F-4D11-9420-7EF908A5CAE8";
shapes = (
{
closed = 1;
nodes = (
(47,0,l),
(323,672,l),
(325,672,l),
(602,0,l),
(645,0,l),
(352,700,l),
(297,700,l),
(5,0,l)
);
},
{
closed = 1;
nodes = (
(530,200,l),
(530,236,l),
(115,236,l),
(115,200,l)
);
}
);
width = 650;
},
{
anchors = (
{
name = bottom;
pos = (389,-35);
},
{
name = ogonek;
pos = (640,10);
},
{
name = top.case;
pos = (389,720);
}
);
background = {
shapes = (
{
closed = 1;
nodes = (
(244,0,l),
(388,473,l),
(392,473,l),
(536,0,l),
(770,0,l),
(518,700,l),
(269,700,l),
(15,0,l)
);
},
{
closed = 1;
nodes = (
(539,98,l),
(539,261,l),
(243,261,l),
(243,98,l)
);
}
);
};
guides = (
{
angle = 90;
pos = (389,624);
}
);
layerId = "5C950900-0D0F-4959-81DE-75F048290F1B";
shapes = (
{
closed = 1;
nodes = (
(244,0,l),
(388,473,l),
(392,473,l),
(536,0,l),
(770,0,l),
(515,700,l),
(266,700,l),
(15,0,l)
);
},
{
closed = 1;
nodes = (
(539,98,l),
(539,261,l),
(243,261,l),
(243,98,l)
);
}
);
width = 785;
},
{
anchors = (
{
name = bottom;
pos = (357,-35);
},
{
name = ogonek;
pos = (612,10);
},
{
name = top.case;
pos = (357,720);
}
);
background = {
shapes = (
{
closed = 1;
nodes = (
(149,0,l),
(353,555,l),
(357,555,l),
(564,0,l),
(709,0,l),
(428,700,l),
(294,700,l),
(4,0,l)
);
},
{
closed = 1;
nodes = (
(557,141,l),
(557,256,l),
(157,256,l),
(157,141,l)
);
}
);
};
guides = (
{
angle = 90;
pos = (358,646);
}
);
layerId = "514A1583-697A-4C0A-B081-2869E94CF283";
shapes = (
{
closed = 1;
nodes = (
(146,0,l),
(356,560,l),
(359,560,l),
(564,0,l),
(708,0,l),
(434,700,l),
(282,700,l),
(10,0,l)
);
},
{
closed = 1;
nodes = (
(535,139,l),
(535,254,l),
(179,254,l),
(179,139,l)
);
}
);
width = 718;
},
{
anchors = (
{
name = bottom;
pos = (390,-35);
},
{
name = ogonek;
pos = (658,10);
},
{
name = top.case;
pos = (390,720);
}
);
associatedMasterId = "5C950900-0D0F-4959-81DE-75F048290F1B";
background = {
shapes = (
{
closed = 1;
nodes = (
(253,-22,l),
(461,646,l),
(248,713,l),
(40,45,l)
);
},
{
closed = 1;
nodes = (
(547,713,l),
(334,646,l),
(542,-22,l),
(755,45,l)
);
}
);
};
guides = (
{
angle = 90;
pos = (390,624);
}
);
layerId = "2AEDD731-7297-45D9-8D56-7E1DAB8699E9";
name = "Dec 10 18, 08:56";
shapes = (
{
closed = 1;
nodes = (
(244,0,l),
(388,473,l),
(392,473,l),
(536,0,l),
(770,0,l),
(518,700,l),
(269,700,l),
(15,0,l)
);
},
{
closed = 1;
nodes = (
(539,98,l),
(539,261,l),
(243,261,l),
(243,98,l)
);
}
);
width = 785;
},
{
anchors = (
{
name = bottom;
pos = (410,-35);
},
{
name = ogonek;
pos = (678,10);
},
{
name = top.case;
pos = (410,720);
}
);
associatedMasterId = "5C950900-0D0F-4959-81DE-75F048290F1B";
background = {
shapes = (
{
closed = 1;
nodes = (
(21,0,l),
(225,0,l),
(275,125,l),
(545,125,l),
(596,0,l),
(804,0,l),
(506,705,l),
(319,705,l)
);
},
{
closed = 1;
nodes = (
(332,276,l),
(411,475,l),
(489,276,l)
);
}
);
};
guides = (
{
angle = 90;
pos = (410,624);
}
);
layerId = "B04B5D5B-6545-4356-A1D3-121C57C8E934";
name = "Dec 10 18, 09:03";
shapes = (
{
closed = 1;
nodes = (
(244,0,l),
(410,473,l),
(576,0,l),
(810,0,l),
(518,700,l),
(309,700,l),
(15,0,l)
);
},
{
closed = 1;
nodes = (
(559,98,l),
(559,281,l),
(263,281,l),
(263,98,l)
);
}
);
width = 825;
},
{
anchors = (
{
name = bottom;
pos = (389,-35);
},
{
name = ogonek;
pos = (663,10);
},
{
name = top.case;
pos = (389,720);
}
);
associatedMasterId = "514A1583-697A-4C0A-B081-2869E94CF283";
background = {
shapes = (
{
closed = 1;
nodes = (
(163,0,l),
(387,555,l),
(391,555,l),
(618,0,l),
(763,0,l),
(462,700,l),
(328,700,l),
(18,0,l)
);
},
{
closed = 1;
nodes = (
(591,141,l),
(591,261,l),
(191,261,l),
(191,141,l)
);
}
);
};
guides = (
{
angle = 90;
pos = (389,646);
}
);
layerId = "A11BCA9E-E538-458E-AB07-570FF5C905CF";
name = "Dec 11 18, 09:55";
shapes = (
{
closed = 1;
nodes = (
(163,0,l),
(387,555,l),
(391,555,l),
(618,0,l),
(763,0,l),
(462,700,l),
(328,700,l),
(18,0,l)
);
},
{
closed = 1;
nodes = (
(591,141,l),
(591,261,l),
(191,261,l),
(191,141,l)
);
}
);
width = 781;
}
);
unicode = 65;
},
{
glyphname = Ahookabove;
lastChange = "2021-09-30 22:26:40 +0000";
layers = (
{
background = {
shapes = (
{
closed = 1;
nodes = (
(341,705,l),
(290,717,l),
(300,738,o),
(316,756,o),
(342,763,cs),
(356,767,ls),
(403,780,o),
(421,803,o),
(423,841,cs),
(425,887,o),
(384,919,o),
(316,924,cs),
(287,926,o),
(256,922,o),
(228,917,cs),
(207,913,l),
(214,923,l),
(224,882,l),
(201,886,l),
(224,890,ls),
(255,895,o),
(282,897,o),
(314,894,cs),
(362,890,o),
(391,867,o),
(389,838,cs),
(387,811,o),
(380,800,o),
(341,788,cs),
(328,784,ls),
(287,771,o),
(266,740,o),
(272,697,c),
(232,751,l)
);
}
);
};
layerId = "620D8D18-E43F-4D11-9420-7EF908A5CAE8";
shapes = (
{
ref = A;
},
{
pos = (324,0);
ref = hookabovecomb.case;
}
);
width = 650;
},
{
layerId = "514A1583-697A-4C0A-B081-2869E94CF283";
shapes = (
{
ref = A;
},
{
pos = (367,0);
ref = hookabovecomb.case;
}
);
width = 718;
},
{
layerId = "5C950900-0D0F-4959-81DE-75F048290F1B";
shapes = (
{
ref = A;
},
{
pos = (409,0);
ref = hookabovecomb.case;
}
);
width = 785;
}
);
unicode = 7842;
},
{
color = 3;
glyphname = AE;
kernLeft = AE;
kernRight = E;
lastChange = "2021-09-30 23:32:25 +0000";
layers = (
{
anchors = (
{
name = top.case;
pos = (668,720);
}
);
background = {
shapes = (
{
angle = -29.56693;
pos = (-36,107);
ref = I;
}
);
};
guides = (
{
angle = 90;
pos = (955,96);
}
);
layerId = "620D8D18-E43F-4D11-9420-7EF908A5CAE8";
shapes = (
{
closed = 1;
nodes = (
(70,0,l),
(444,664,l),
(506,664,l),
(506,700,l),
(421,700,l),
(25,0,l)
);
},
{
closed = 1;
nodes = (
(507,320,l),
(507,356,l),
(240,356,l),
(240,320,l)
);
},
{
closed = 1;
nodes = (
(955,0,l),
(955,36,l),
(519,36,l),
(519,320,l),
(908,320,l),
(908,356,l),
(519,356,l),
(519,664,l),
(948,664,l),
(948,700,l),
(480,700,l),
(480,0,l)
);
}
);
width = 1010;
},
{
anchors = (
{
name = top.case;
pos = (688,720);
}
);
background = {
shapes = (
{
closed = 1;
nodes = (
(165,0,l),
(464,576,l),
(591,576,l),
(591,700,l),
(388,700,l),
(18,0,l)
);
},
{
closed = 1;
nodes = (
(597,261,l),
(597,381,l),
(241,381,l),
(241,261,l)
);
},
{
pos = (413,0);
ref = E;
}
);
};
layerId = "514A1583-697A-4C0A-B081-2869E94CF283";
shapes = (
{
closed = 1;
nodes = (
(165,0,l),
(464,576,l),
(591,576,l),
(591,700,l),
(388,700,l),
(18,0,l)
);
},
{
closed = 1;
nodes = (
(597,264,l),
(597,379,l),
(241,379,l),
(241,264,l)
);
},
{
closed = 1;
nodes = (
(1003,0,l),
(1003,115,l),
(627,115,l),
(627,264,l),
(956,264,l),
(956,379,l),
(627,379,l),
(627,585,l),
(996,585,l),
(996,700,l),
(496,700,l),
(496,0,l)
);
}
);
width = 1043;
},
{
anchors = (
{
name = top.case;
pos = (727,720);
}
);
background = {
shapes = (
{
pos = (465,-18);
ref = E;
}
);
};
layerId = "5C950900-0D0F-4959-81DE-75F048290F1B";
shapes = (
{
closed = 1;
nodes = (
(264,0,l),
(493,525,l),
(671,525,l),
(659,700,l),
(358,700,l),
(15,0,l)
);
},
{
closed = 1;
nodes = (
(569,220,l),
(569,383,l),
(273,383,l),
(273,220,l)
);
},
{
closed = 1;
nodes = (
(1083,0,l),
(1083,192,l),
(743,192,l),
(743,254,l),
(1036,254,l),
(1036,419,l),
(743,419,l),
(743,510,l),
(1076,510,l),
(1076,700,l),
(520,700,l),
(520,0,l)
);
}
);
width = 1108;
}
);
metricRight = E;
unicode = 198;
},
{
color = 4;
glyphname = B;
kernRight = B;
lastChange = "2021-09-30 22:26:40 +0000";
layers = (
{
background = {
shapes = (
{
closed = 1;
nodes = (
(383,0,ls),
(532,0,o),
(615,83,o),
(615,209,cs),
(615,285,o),
(567,343,o),
(503,362,c),
(503,363,l),
(570,393,o),
(587,453,o),
(587,515,cs),
(587,622,o),
(515,700,o),
(372,700,cs),
(43,700,l),
(43,0,l)
);
},
{
closed = 1;
nodes = (
(174,300,l),
(378,300,ls),
(440,300,o),
(477,270,o),
(477,212,cs),
(477,145,o),
(442,115,o),
(372,115,cs),
(174,115,l)
);
},
{
closed = 1;
nodes = (
(174,585,l),
(364,585,ls),
(432,585,o),
(462,555,o),
(462,501,cs),
(462,444,o),
(432,415,o),
(372,415,cs),
(174,415,l)
);
}
);
};
layerId = "620D8D18-E43F-4D11-9420-7EF908A5CAE8";
shapes = (
{
closed = 1;
nodes = (
(392,0,ls),
(532,0,o),
(614,74,o),
(614,197,cs),
(614,290,o),
(556,350,o),
(475,366,c),
(475,367,l),
(554,390,o),
(587,451,o),
(587,526,cs),
(587,630,o),
(505,700,o),
(383,700,cs),
(105,700,l),
(105,0,l)
);
},
{
closed = 1;
nodes = (
(144,346,l),
(396,346,ls),
(505,346,o),
(573,288,o),
(573,200,cs),
(573,92,o),
(514,36,o),
(392,36,cs),
(144,36,l)
);
},
{
closed = 1;
nodes = (
(144,664,l),
(383,664,ls),
(496,664,o),
(546,608,o),
(546,523,cs),
(546,436,o),
(498,382,o),
(398,382,cs),
(144,382,l)
);
}
);
width = 669;
},
{
background = {
shapes = (
{
closed = 1;
nodes = (
(468,0,ls),
(627,0,o),
(710,92,o),
(710,221,cs),
(710,280,o),
(678,336,o),
(625,361,c),
(625,362,l),
(673,400,o),
(692,454,o),
(692,504,cs),
(692,616,o),
(615,700,o),
(468,700,cs),
(55,700,l),
(55,0,l)
);
},
{
closed = 1;
nodes = (
(278,291,l),
(418,291,ls),
(463,291,o),
(482,273,o),
(482,232,cs),
(482,188,o),
(453,176,o),
(401,176,cs),
(278,176,l)
);
},
{
closed = 1;
nodes = (
(278,535,l),
(397,535,ls),
(452,535,o),
(474,517,o),
(474,479,cs),
(474,440,o),
(450,423,o),
(411,423,cs),
(278,423,l)
);
}
);
};
guides = (
{
pos = (278,176);
},
{
pos = (278,291);
}
);
layerId = "5C950900-0D0F-4959-81DE-75F048290F1B";
shapes = (
{
closed = 1;
nodes = (
(468,0,ls),
(627,0,o),
(710,92,o),
(710,221,cs),
(710,279,o),
(675,335,o),
(619,360,c),
(619,362,l),
(664,400,o),
(682,454,o),
(682,504,cs),
(682,616,o),
(605,700,o),
(458,700,cs),
(55,700,l),
(55,0,l)
);
},
{
closed = 1;
nodes = (
(278,291,l),
(418,291,ls),
(463,291,o),
(482,273,o),
(482,232,cs),
(482,188,o),
(453,176,o),
(401,176,cs),
(278,176,l)
);
},
{
closed = 1;
nodes = (
(278,535,l),
(397,535,ls),
(452,535,o),
(474,517,o),
(474,479,cs),
(474,440,o),
(450,423,o),
(411,423,cs),
(278,423,l)
);
}
);
width = 735;
},
{
background = {
shapes = (
{
closed = 1;
nodes = (
(413,0,ls),
(572,0,o),
(655,92,o),
(655,221,cs),
(655,279,o),
(620,335,o),
(564,360,c),
(564,362,l),
(609,400,o),
(627,454,o),
(627,504,cs),
(627,616,o),
(550,700,o),
(403,700,cs),
(0,700,l),
(0,0,l)
);
},
{
closed = 1;
nodes = (
(223,291,l),
(363,291,ls),
(408,291,o),
(427,273,o),
(427,232,cs),
(427,188,o),
(398,176,o),
(346,176,cs),
(223,176,l)
);
},
{
closed = 1;
nodes = (
(223,535,l),
(342,535,ls),
(397,535,o),
(419,517,o),
(419,479,cs),
(419,440,o),
(395,423,o),
(356,423,cs),
(223,423,l)
);
}
);
};
guides = (
{
pos = (214,585);
},
{
pos = (214,115);
},
{
pos = (214,300);
},
{
pos = (214,415);
}
);
layerId = "514A1583-697A-4C0A-B081-2869E94CF283";
shapes = (
{
closed = 1;
nodes = (
(423,0,ls),
(572,0,o),
(655,83,o),
(655,209,cs),
(655,285,o),
(607,343,o),
(543,362,c),
(543,363,l),
(610,393,o),
(627,453,o),
(627,515,cs),
(627,622,o),
(555,700,o),
(412,700,cs),
(83,700,l),
(83,0,l)
);
},
{
closed = 1;
nodes = (
(214,300,l),
(422,300,ls),
(484,300,o),
(521,270,o),
(521,212,cs),
(521,145,o),
(486,115,o),
(416,115,cs),
(214,115,l)
);
},
{
closed = 1;
nodes = (
(214,585,l),
(404,585,ls),
(472,585,o),
(502,555,o),
(502,501,cs),
(502,444,o),
(472,415,o),
(412,415,cs),
(214,415,l)
);
}
);
width = 700;
},
{
associatedMasterId = "5C950900-0D0F-4959-81DE-75F048290F1B";
background = {
shapes = (
{
closed = 1;
nodes = (
(468,0,ls),
(627,0,o),
(710,92,o),
(710,221,cs),
(710,280,o),
(678,336,o),
(625,361,c),
(625,362,l),
(673,400,o),
(692,454,o),
(692,504,cs),
(692,616,o),
(615,700,o),
(468,700,cs),
(55,700,l),
(55,0,l)
);
},
{
closed = 1;
nodes = (
(278,285,l),
(432,285,ls),
(465,285,o),
(482,275,o),
(482,235,cs),
(482,197,o),
(464,187,o),
(432,187,cs),
(278,187,l)
);
},
{
closed = 1;
nodes = (
(278,524,l),
(425,524,ls),
(457,524,o),
(474,514,o),
(474,476,cs),
(474,439,o),
(456,429,o),
(425,429,cs),
(278,429,l)
);
}
);
};
layerId = "F07FACC6-3F1E-468F-828B-374D214A166F";
name = "Dec 7 18, 17:12";
shapes = (
{
closed = 1;
nodes = (
(468,0,ls),
(627,0,o),
(710,92,o),
(710,221,cs),
(710,280,o),
(666,368,o),
(582,368,c),
(582,369,l),
(630,407,o),
(652,454,o),
(652,504,cs),
(652,616,o),
(575,700,o),
(428,700,cs),
(55,700,l),
(55,0,l)
);
},
{
closed = 1;
nodes = (
(278,285,l),
(432,285,ls),
(465,285,o),
(482,275,o),
(482,235,cs),
(482,197,o),
(464,187,o),
(432,187,cs),
(278,187,l)
);
},
{
closed = 1;
nodes = (
(278,524,l),
(385,524,ls),
(417,524,o),
(434,514,o),
(434,476,cs),
(434,439,o),
(416,429,o),
(385,429,cs),
(278,429,l)
);
}
);
width = 735;
},
{
associatedMasterId = "5C950900-0D0F-4959-81DE-75F048290F1B";
background = {
shapes = (
{
closed = 1;
nodes = (
(468,0,ls),
(627,0,o),
(710,92,o),
(710,221,cs),
(710,280,o),
(678,336,o),
(625,361,c),
(625,362,l),
(673,400,o),
(692,454,o),
(692,504,cs),
(692,616,o),
(615,700,o),
(468,700,cs),
(55,700,l),
(55,0,l)
);
},
{
closed = 1;
nodes = (
(278,285,l),
(432,285,ls),
(465,285,o),
(482,275,o),
(482,235,cs),
(482,197,o),
(464,187,o),
(432,187,cs),
(278,187,l)
);
},
{
closed = 1;
nodes = (
(278,524,l),
(425,524,ls),
(456,524,o),
(474,511,o),
(474,477,cs),
(474,440,o),
(456,429,o),
(425,429,cs),
(278,429,l)
);
}
);
};
layerId = "38B5EB85-1C05-4399-AC77-7CF939E8E5E4";
name = "Dec 9 18, 12:56";
shapes = (
{
closed = 1;
nodes = (
(468,0,ls),
(620,0,o),
(710,84,o),
(710,214,cs),
(710,269,o),
(684,323,o),
(625,361,c),
(625,362,l),
(671,407,o),
(691,459,o),
(691,509,cs),
(691,623,o),
(605,700,o),
(468,700,cs),
(55,700,l),
(55,0,l)
);
},
{
closed = 1;
nodes = (
(278,285,l),
(432,285,ls),
(465,285,o),
(482,275,o),
(482,235,cs),
(482,197,o),
(464,187,o),
(432,187,cs),
(278,187,l)
);
},
{
closed = 1;
nodes = (
(278,524,l),
(425,524,ls),
(456,524,o),
(474,511,o),
(474,477,cs),
(474,440,o),
(456,429,o),
(425,429,cs),
(278,429,l)
);
}
);
width = 735;
},
{
associatedMasterId = "5C950900-0D0F-4959-81DE-75F048290F1B";
background = {
shapes = (
{
closed = 1;
nodes = (
(468,0,ls),
(627,0,o),
(710,92,o),
(710,221,cs),
(710,280,o),
(678,336,o),
(625,361,c),
(625,362,l),
(673,400,o),
(692,454,o),
(692,504,cs),
(692,616,o),
(615,700,o),
(468,700,cs),
(55,700,l),
(55,0,l)
);
},
{
closed = 1;
nodes = (
(278,285,l),
(432,285,ls),
(465,285,o),
(482,275,o),
(482,235,cs),
(482,197,o),
(464,187,o),
(432,187,cs),
(278,187,l)
);
},
{
closed = 1;
nodes = (
(278,524,l),
(425,524,ls),
(456,524,o),
(474,511,o),
(474,477,cs),
(474,440,o),
(456,429,o),
(425,429,cs),
(278,429,l)
);
}
);
};
layerId = "49BF9C82-37AE-4B85-A9AA-A9CBC973ADCF";
name = "Dec 9 18, 12:58";
shapes = (
{
closed = 1;
nodes = (
(448,0,ls),
(600,0,o),
(690,84,o),
(690,214,cs),
(690,269,o),
(664,323,o),
(605,361,c),
(605,362,l),
(651,407,o),
(671,459,o),
(671,509,cs),
(671,623,o),
(585,700,o),
(448,700,cs),
(55,700,l),
(55,0,l)
);
},
{
closed = 1;
nodes = (
(278,285,l),
(412,285,ls),
(445,285,o),
(462,275,o),
(462,235,cs),
(462,197,o),
(444,187,o),
(412,187,cs),
(278,187,l)
);
},
{
closed = 1;
nodes = (
(278,524,l),
(405,524,ls),
(436,524,o),
(454,511,o),
(454,477,cs),
(454,440,o),
(436,429,o),
(405,429,cs),
(278,429,l)
);
}
);
width = 715;
}
);
metricLeft = H;
unicode = 66;
},
{
color = 4;
glyphname = C;
kernLeft = O;
kernRight = C;
lastChange = "2021-09-30 22:26:40 +0000";
layers = (
{
anchors = (
{
name = bottom;
pos = (393,-35);
},
{
name = top.case;
pos = (418,720);
}
);
background = {
shapes = (
{
closed = 0;
nodes = (
(709,86,l),
(613,43,ls),
(542,12,o),
(473,-6,o),
(409,-6,cs)
);
}
);
};
guides = (
{
angle = 90;
pos = (587,236);
}
);
layerId = "620D8D18-E43F-4D11-9420-7EF908A5CAE8";
shapes = (
{
closed = 1;
nodes = (
(475,-6,o),
(545,13,o),
(614,43,cs),
(661,64,l),
(648,91,l),
(599,71,ls),
(534,45,o),
(470,30,o),
(411,30,cs),
(235,30,o),
(106,146,o),
(106,351,cs),
(106,554,o),
(243,674,o),
(416,674,cs),
(474,674,o),
(529,662,o),
(596,640,cs),
(628,630,l),
(638,658,l),
(607,671,ls),
(551,694,o),
(487,710,o),
(414,710,cs),
(225,710,o),
(65,577,o),
(65,350,cs),
(65,123,o),
(219,-6,o),
(409,-6,cs)
);
}
);
width = 705;
},
{
anchors = (
{
name = bottom;
pos = (361,-35);
},
{
name = top.case;
pos = (405,720);
}
);
background = {
shapes = (
{
closed = 1;
nodes = (
(459,-9,o),
(537,7,o),
(620,39,cs),
(686,64,l),
(643,1,l),
(590,276,l),
(634,213,l),
(560,205,ls),
(503,200,o),
(455,195,o),
(415,195,cs),
(311,195,o),
(263,231,o),
(263,352,cs),
(263,467,o),
(317,507,o),
(421,507,cs),
(459,507,o),
(503,503,o),
(554,496,cs),
(628,486,l),
(575,429,l),
(634,707,l),
(697,637,l),
(610,670,ls),
(539,697,o),
(469,710,o),
(404,710,cs),
(194,710,o),
(35,586,o),
(35,351,cs),
(35,107,o),
(177,-9,o),
(388,-9,cs)
);
}
);
};
guides = (
{
angle = 90;
pos = (619,362);
},
{
angle = 90;
pos = (587,380);
},
{
angle = 90;
pos = (433,342);
}
);
layerId = "5C950900-0D0F-4959-81DE-75F048290F1B";
shapes = (
{
closed = 1;
nodes = (
(474,-9,o),
(555,7,o),
(623,32,cs),
(636,37,l),
(603,210,l),
(560,205,ls),
(503,200,o),
(455,195,o),
(415,195,cs),
(311,195,o),
(263,231,o),
(263,352,cs),
(263,467,o),
(317,507,o),
(421,507,cs),
(469,507,o),
(513,503,o),
(564,497,cs),
(589,494,l),
(625,668,l),
(619,670,ls),
(555,694,o),
(481,710,o),
(410,710,cs),
(197,710,o),
(35,586,o),
(35,351,cs),
(35,107,o),
(182,-9,o),
(401,-9,cs)
);
}
);
width = 652;
},
{
associatedMasterId = "5C950900-0D0F-4959-81DE-75F048290F1B";
background = {
shapes = (
{
closed = 1;
nodes = (
(484,-10,o),
(574,21,o),
(668,75,c),
(632,1,l),
(578,276,l),
(642,231,l),
(557,213,o),
(492,205,o),
(433,205,cs),
(305,205,o),
(263,235,o),
(263,354,cs),
(263,459,o),
(311,501,o),
(433,501,cs),
(496,501,o),
(554,492,o),
(636,473,c),
(574,429,l),
(625,707,l),
(663,638,l),
(571,688,o),
(477,709,o),
(393,709,cs),
(190,709,o),
(35,576,o),
(35,351,cs),
(35,107,o),
(195,-10,o),
(386,-10,cs)
);
}
);
};
layerId = "6285A972-DFB4-4FE1-81D2-2CF20050DF9C";
name = "Mar 11 18, 18:06";
shapes = (
{
closed = 1;
nodes = (
(484,-10,o),
(574,21,o),
(668,75,c),
(652,1,l),
(598,276,l),
(642,231,l),
(557,213,o),
(492,205,o),
(433,205,cs),
(305,205,o),
(263,235,o),
(263,354,cs),
(263,459,o),
(311,501,o),
(433,501,cs),
(496,501,o),
(554,492,o),
(636,473,c),
(594,429,l),
(645,707,l),
(663,638,l),
(571,688,o),
(477,709,o),
(393,709,cs),
(190,709,o),
(35,576,o),
(35,351,cs),
(35,107,o),
(195,-10,o),
(386,-10,cs)
);
}
);
width = 665;
},
{
associatedMasterId = "5C950900-0D0F-4959-81DE-75F048290F1B";
background = {
shapes = (
{
closed = 1;
nodes = (
(484,-10,o),
(574,21,o),
(668,75,c),
(652,1,l),
(598,276,l),
(642,231,l),
(557,213,o),
(492,205,o),
(433,205,cs),
(305,205,o),
(263,235,o),
(263,354,cs),
(263,459,o),
(311,501,o),
(433,501,cs),
(496,501,o),
(554,492,o),
(636,473,c),
(581,429,l),
(632,707,l),
(663,638,l),
(571,688,o),
(477,709,o),
(393,709,cs),
(190,709,o),
(35,576,o),
(35,351,cs),
(35,107,o),
(195,-10,o),
(386,-10,cs)
);
}
);
};
guides = (
{
angle = 90;
pos = (639,351);
},
{
angle = 90;
pos = (610,361);
}
);
layerId = "EB6E93E2-2B5B-46BD-BBDC-0098E29ACC2B";
name = "Mar 12 18, 17:47";
shapes = (
{
closed = 1;
nodes = (
(321,-106,o),
(668,75,c),
(628,1,l),
(628,276,l),
(692,231,l),
(586,213,o),
(506,205,o),
(433,205,cs),
(305,205,o),
(263,235,o),
(263,354,cs),
(263,458,o),
(314,501,o),
(361,501,cs),
(433,501,o),
(594,397,o),
(672,367,c),
(512,334,l),
(715,633,l),
(771,483,l),
(651,569,o),
(519,708,o),
(340,708,cs),
(202,708,o),
(35,587,o),
(35,351,cs),
(35,12,o)
);
}
);
width = 665;
},
{
associatedMasterId = "5C950900-0D0F-4959-81DE-75F048290F1B";
background = {
shapes = (
{
closed = 1;
nodes = (
(191,-5,o),
(435,-5,cs),
(535,-5,o),
(653,32,o),
(778,106,c),
(641,-22,l),
(641,292,l),
(771,251,l),
(649,219,o),
(540,197,o),
(459,197,cs),
(325,197,o),
(263,227,o),
(263,355,cs),
(263,462,o),
(318,503,o),
(392,503,cs),
(503,503,o),
(651,415,o),
(721,372,c),
(504,330,l),
(712,638,l),
(778,480,l),
(681,574,o),
(572,709,o),
(377,709,cs),
(217,709,o),
(35,594,o),
(35,340,cs),
(35,88,o)
);
}
);
};
guides = (
{
angle = 90;
pos = (619,362);
},
{
angle = 90;
pos = (587,380);
}
);
layerId = "EFACE00A-C00A-4DD3-9E64-F7D17A972130";
name = "Mar 31 18, 23:28";
shapes = (
{
closed = 1;
nodes = (
(35,88,o),
(191,-5,o),
(414,-5,cs),
(531,-5,o),
(678,41,o),
(778,131,c),
(641,-22,l),
(641,292,l),
(771,235,l),
(649,213,o),
(540,197,o),
(459,197,cs),
(325,197,o),
(263,227,o),
(263,355,cs),
(263,462,o),
(318,503,o),
(392,503,cs),
(503,503,o),
(651,415,o),
(721,372,c),
(504,330,l),
(712,638,l),
(764,480,l),
(678,574,o),
(583,709,o),
(401,709,cs),
(232,709,o),
(35,598,o),
(35,340,cs)
);
}
);
width = 685;
},
{
associatedMasterId = "5C950900-0D0F-4959-81DE-75F048290F1B";
background = {
shapes = (
{
closed = 1;
nodes = (
(188,-5,o),
(406,-5,cs),
(499,-5,o),
(608,21,o),
(724,72,c),
(641,-22,l),
(641,292,l),
(771,251,l),
(649,219,o),
(540,197,o),
(459,197,cs),
(325,197,o),
(263,227,o),
(263,355,cs),
(263,462,o),
(318,503,o),
(392,503,cs),
(503,503,o),
(651,415,o),
(721,372,c),
(504,330,l),
(712,638,l),
(788,480,l),
(689,574,o),
(577,709,o),
(377,709,cs),
(217,709,o),
(35,594,o),
(35,340,cs),
(35,96,o)
);
}
);
};
guides = (
{
angle = 90;
pos = (619,362);
},
{
angle = 90;
pos = (587,380);
},
{
angle = 90;
pos = (433,342);
}
);
layerId = "DB4D3AC3-6F44-4189-8FD3-377A68E70E21";
name = "Mar 31 18, 23:37";
shapes = (
{
closed = 1;
nodes = (
(191,-5,o),
(435,-5,cs),
(535,-5,o),
(653,32,o),
(778,106,c),
(641,-22,l),
(641,292,l),
(771,251,l),
(649,219,o),
(540,197,o),
(459,197,cs),
(325,197,o),
(263,227,o),
(263,355,cs),
(263,462,o),
(318,503,o),
(392,503,cs),
(503,503,o),
(651,415,o),
(721,372,c),
(504,330,l),
(712,638,l),
(778,480,l),
(681,574,o),
(572,709,o),
(377,709,cs),
(217,709,o),
(35,594,o),
(35,340,cs),
(35,88,o)
);
}
);
width = 685;
},
{
anchors = (
{
name = bottom;
pos = (372,-35);
},
{
name = top.case;
pos = (419,720);
}
);
guides = (
{
pos = (192,583);
},
{
pos = (192,117);
}
);
layerId = "514A1583-697A-4C0A-B081-2869E94CF283";
shapes = (
{
closed = 1;
nodes = (
(475,-8,o),
(551,7,o),
(619,37,cs),
(650,50,l),
(625,150,l),
(580,138,ls),
(519,123,o),
(463,113,o),
(413,113,cs),
(273,113,o),
(184,189,o),
(184,352,cs),
(184,511,o),
(280,589,o),
(419,589,cs),
(472,589,o),
(520,578,o),
(580,567,cs),
(607,562,l),
(632,663,l),
(613,671,ls),
(553,694,o),
(484,710,o),
(412,710,cs),
(211,710,o),
(50,582,o),
(50,351,cs),
(50,115,o),
(201,-8,o),
(405,-8,cs)
);
}
);
width = 680;
},
{
anchors = (
{
name = bottom;
pos = (397,-35);
},
{
name = top.case;
pos = (441,720);
}
);
associatedMasterId = "620D8D18-E43F-4D11-9420-7EF908A5CAE8";
background = {
shapes = (
{
closed = 1;
nodes = (
(505,663,o),
(562,653,o),
(614,636,cs),
(690,612,l),
(648,606,l),
(679,683,l),
(687,652,l),
(633,674,ls),
(573,699,o),
(506,710,o),
(443,710,cs),
(245,710,o),
(80,579,o),
(80,352,cs),
(80,127,o),
(238,-6,o),
(442,-6,cs),
(505,-6,o),
(572,5,o),
(631,30,cs),
(706,61,l),
(687,21,l),
(655,98,l),
(689,91,l),
(614,67,ls),
(563,51,o),
(506,41,o),
(453,41,cs),
(269,41,o),
(134,157,o),
(134,352,cs),
(134,549,o),
(265,663,o),
(450,663,cs)
);
}
);
};
guides = (
{
angle = 90;
pos = (607,236);
}
);
layerId = "CD2D8B90-944A-47C3-94FF-0ABB14A3E604";
name = "Jun 15 18, 09:49";
shapes = (
{
closed = 1;
nodes = (
(502,-10,o),
(575,3,o),
(645,37,cs),
(721,74,l),
(705,33,l),
(668,110,l),
(720,104,l),
(629,68,ls),
(562,42,o),
(496,27,o),
(436,27,cs),
(255,27,o),
(121,146,o),
(121,351,cs),
(121,554,o),
(263,674,o),
(441,674,cs),
(500,674,o),
(557,660,o),
(623,635,cs),
(669,617,l),
(640,589,l),
(676,666,l),
(689,641,l),
(637,666,ls),
(580,693,o),
(514,710,o),
(439,710,cs),
(244,710,o),
(80,577,o),
(80,350,cs),
(80,123,o),
(238,-10,o),
(434,-10,cs)
);
}
);
width = 741;
},
{
anchors = (
{
name = bottom;
pos = (397,-35);
},
{
name = top.case;
pos = (441,720);
}
);
associatedMasterId = "620D8D18-E43F-4D11-9420-7EF908A5CAE8";
background = {
shapes = (
{
closed = 1;
nodes = (
(505,663,o),
(562,653,o),
(614,636,cs),
(690,612,l),
(648,606,l),
(679,683,l),
(687,652,l),
(633,674,ls),
(573,699,o),
(506,710,o),
(443,710,cs),
(245,710,o),
(80,579,o),
(80,352,cs),
(80,127,o),
(238,-6,o),
(442,-6,cs),
(505,-6,o),
(572,5,o),
(631,30,cs),
(706,61,l),
(687,21,l),
(655,98,l),
(689,91,l),
(614,67,ls),
(563,51,o),
(506,41,o),
(453,41,cs),
(269,41,o),
(134,157,o),
(134,352,cs),
(134,549,o),
(265,663,o),
(450,663,cs)
);
}
);
};
guides = (
{
angle = 90;
pos = (607,236);
}
);
layerId = "B4E58CF1-C0E9-473D-A0F8-0AD1D92C7DD2";
name = "Jun 15 18, 09:50";
shapes = (
{
closed = 1;
nodes = (
(502,-6,o),
(575,7,o),
(645,41,cs),
(721,78,l),
(705,37,l),
(668,114,l),
(720,107,l),
(629,71,ls),
(562,45,o),
(496,30,o),
(436,30,cs),
(255,30,o),
(121,146,o),
(121,351,cs),
(121,554,o),
(263,674,o),
(441,674,cs),
(500,674,o),
(557,662,o),
(626,640,cs),
(669,627,l),
(643,589,l),
(673,668,l),
(689,650,l),
(637,671,ls),
(580,694,o),
(514,710,o),
(439,710,cs),
(244,710,o),
(80,577,o),
(80,350,cs),
(80,123,o),
(238,-6,o),
(434,-6,cs)
);
}
);
width = 741;
},
{
anchors = (
{
name = bottom;
pos = (373,-35);
},
{
name = top.case;
pos = (416,720);
}
);
associatedMasterId = "514A1583-697A-4C0A-B081-2869E94CF283";
guides = (
{
pos = (192,583);
},
{
pos = (192,117);
}
);
layerId = "09D3C086-328C-42CA-9F9F-31E132AE9EA8";
name = "Dec 11 18, 10:06";
shapes = (
{
closed = 1;
nodes = (
(465,-8,o),
(538,9,o),
(608,38,cs),
(678,67,l),
(662,20,l),
(602,195,l),
(649,166,l),
(572,144,ls),
(513,127,o),
(460,119,o),
(414,119,cs),
(278,119,o),
(193,194,o),
(193,352,cs),
(193,506,o),
(285,583,o),
(418,583,cs),
(462,583,o),
(510,575,o),
(562,563,cs),
(622,549,l),
(581,509,l),
(638,686,l),
(673,648,l),
(601,673,ls),
(535,696,o),
(470,710,o),
(408,710,cs),
(213,710,o),
(58,583,o),
(58,352,cs),
(58,116,o),
(202,-8,o),
(397,-8,cs)
);
}
);
width = 674;
}
);
metricLeft = O;
unicode = 67;
},
{
color = 4;
glyphname = D;
kernRight = O;
lastChange = "2021-09-30 22:26:40 +0000";
layers = (
{
anchors = (
{
name = top.case;
pos = (341,720);
}
);
background = {
shapes = (
{
closed = 1;
nodes = (
(569,-10,o),
(711,140,o),
(711,350,cs),
(711,560,o),
(569,710,o),
(368,710,cs),
(168,710,o),
(26,560,o),
(26,350,cs),
(26,140,o),
(168,-10,o),
(368,-10,cs)
);
},
{
closed = 1;
nodes = (
(193,26,o),
(67,163,o),
(67,350,cs),
(67,537,o),
(193,674,o),
(368,674,cs),
(545,674,o),
(670,537,o),
(670,350,cs),
(670,163,o),
(545,26,o),
(368,26,cs)
);
}
);
};
layerId = "620D8D18-E43F-4D11-9420-7EF908A5CAE8";
shapes = (
{
closed = 1;
nodes = (
(333,0,ls),
(553,0,o),
(692,135,o),
(692,349,cs),
(692,563,o),
(556,700,o),
(343,700,cs),
(105,700,l),
(105,0,l)
);
},
{
closed = 1;
nodes = (
(144,664,l),
(340,664,ls),
(533,664,o),
(651,545,o),
(651,349,cs),
(651,158,o),
(530,36,o),
(340,36,cs),
(144,36,l)
);
}
);
width = 757;
},
{
anchors = (
{
name = top.case;
pos = (343,720);
}
);
background = {
shapes = (
{
closed = 1;
nodes = (
(331,0,ls),
(575,0,o),
(727,124,o),
(727,349,cs),
(727,589,o),
(570,700,o),
(338,700,cs),
(55,700,l),
(55,0,l)
);
},
{
closed = 1;
nodes = (
(278,499,l),
(331,499,ls),
(457,499,o),
(499,469,o),
(499,349,cs),
(499,244,o),
(452,201,o),
(331,201,cs),
(278,201,l)
);
}
);
};
guides = (
{
pos = (597,349);
},
{
pos = (278,505);
}
);
layerId = "5C950900-0D0F-4959-81DE-75F048290F1B";
shapes = (
{
closed = 1;
nodes = (
(331,0,ls),
(575,0,o),
(727,124,o),
(727,349,cs),
(727,589,o),
(570,700,o),
(338,700,cs),
(55,700,l),
(55,0,l)
);
},
{
closed = 1;
nodes = (
(278,505,l),
(331,505,ls),
(457,505,o),
(499,474,o),
(499,349,cs),
(499,240,o),
(452,195,o),
(331,195,cs),
(278,195,l)
);
}
);
width = 762;
},
{
anchors = (
{
name = top.case;
pos = (345,720);
}
);
background = {
shapes = (
{
closed = 1;
nodes = (
(335,0,ls),
(567,0,o),
(713,130,o),
(713,349,cs),
(713,576,o),
(566,700,o),
(344,700,cs),
(83,700,l),
(83,0,l)
);
},
{
closed = 1;
nodes = (
(214,582,l),
(339,582,ls),
(498,582,o),
(578,507,o),
(578,349,cs),
(578,201,o),
(494,119,o),
(339,119,cs),
(214,119,l)
);
}
);
};
guides = (
{
pos = (187,115);
},
{
pos = (177,585);
}
);
layerId = "514A1583-697A-4C0A-B081-2869E94CF283";
shapes = (
{
closed = 1;
nodes = (
(335,0,ls),
(567,0,o),
(713,130,o),
(713,349,cs),
(713,576,o),
(566,700,o),
(344,700,cs),
(83,700,l),
(83,0,l)
);
},
{
closed = 1;
nodes = (
(214,585,l),
(340,585,ls),
(499,585,o),
(579,509,o),
(579,349,cs),
(579,199,o),
(495,115,o),
(340,115,cs),
(214,115,l)
);
}
);
width = 763;
}
);
metricLeft = H;
metricRight = O;
unicode = 68;
},
{
color = 3;
glyphname = Eth;
kernLeft = Eth;
kernRight = O;
lastChange = "2021-09-30 22:26:40 +0000";
layers = (
{
layerId = "620D8D18-E43F-4D11-9420-7EF908A5CAE8";
shapes = (
{
closed = 1;
nodes = (
(437,340,l),
(437,376,l),
(20,376,l),
(20,340,l)
);
},
{
pos = (60,0);
ref = D;
}
);
width = 817;
},
{
background = {
shapes = (
{
pos = (0,-216);
ref = Hbar;
}
);
};
layerId = "514A1583-697A-4C0A-B081-2869E94CF283";
shapes = (
{
closed = 1;
nodes = (
(433,311,l),
(433,400,l),
(15,400,l),
(15,311,l)
);
},
{
alignment = -1;
pos = (40,0);
ref = D;
}
);
width = 803;
},
{
layerId = "5C950900-0D0F-4959-81DE-75F048290F1B";
shapes = (
{
closed = 1;
nodes = (
(413,289,l),
(413,406,l),
(5,406,l),
(5,289,l)
);
},
{
pos = (25,0);
ref = D;
}
);
width = 787;
}
);
metricRight = D;
unicode = 208;
},
{
color = 4;
glyphname = E;
kernRight = E;
lastChange = "2021-09-30 22:26:40 +0000";
layers = (
{
anchors = (
{
name = bottom;
pos = (353,-35);
},
{
name = ogonek;
pos = (525,10);
},
{
name = top.case;
pos = (363,720);
}
);
background = {
shapes = (
{
closed = 1;
nodes = (
(605,0,l),
(605,199,l),
(250,199,l),
(250,265,l),
(558,265,l),
(558,437,l),
(250,437,l),
(250,503,l),
(598,503,l),
(598,700,l),
(27,700,l),
(27,0,l)
);
}
);
};
layerId = "620D8D18-E43F-4D11-9420-7EF908A5CAE8";
shapes = (
{
closed = 1;
nodes = (
(600,0,l),
(600,36,l),
(144,36,l),
(144,340,l),
(553,340,l),
(553,376,l),
(144,376,l),
(144,664,l),
(593,664,l),
(593,700,l),
(105,700,l),
(105,0,l)
);
}
);
width = 655;
},
{
anchors = (
{
name = bottom;
pos = (352,-35);
},
{
name = ogonek;
pos = (506,10);
},
{
name = top.case;
pos = (343,709);
}
);
layerId = "5C950900-0D0F-4959-81DE-75F048290F1B";
shapes = (
{
closed = 1;
nodes = (
(633,0,l),
(633,192,l),
(278,192,l),
(278,272,l),
(586,272,l),
(586,437,l),
(278,437,l),
(278,510,l),
(626,510,l),
(626,700,l),
(55,700,l),
(55,0,l)
);
}
);
width = 658;
},
{
associatedMasterId = "5C950900-0D0F-4959-81DE-75F048290F1B";
layerId = "C029100F-53A5-40B7-B8CD-78D1425008EC";
name = "Mar 18 18, 12:11";
shapes = (
{
closed = 1;
nodes = (
(633,0,l),
(633,189,l),
(278,189,l),
(278,261,l),
(586,261,l),
(586,442,l),
(278,442,l),
(278,513,l),
(626,513,l),
(626,700,l),
(55,700,l),
(55,0,l)
);
}
);
width = 658;
},
{
associatedMasterId = "5C950900-0D0F-4959-81DE-75F048290F1B";
layerId = "76A27239-EDF3-4DD9-9FF4-71574D8B93DB";
name = "Mar 18 18, 12:11";
shapes = (
{
closed = 1;
nodes = (
(633,0,l),
(633,199,l),
(278,199,l),
(278,265,l),
(586,265,l),
(586,437,l),
(278,437,l),
(278,503,l),
(626,503,l),
(626,700,l),
(55,700,l),
(55,0,l)
);
}
);
width = 658;
},
{
associatedMasterId = "5C950900-0D0F-4959-81DE-75F048290F1B";
layerId = "965C205E-13F4-4381-ABAD-E2BC2A5A996B";
name = "Mar 18 18, 12:17";
shapes = (
{
closed = 1;
nodes = (
(633,0,l),
(633,199,l),
(278,199,l),
(278,285,l),
(586,285,l),
(586,417,l),
(278,417,l),
(278,503,l),
(626,503,l),
(626,700,l),
(55,700,l),
(55,0,l)
);
}
);
width = 658;
},
{
anchors = (
{
name = bottom;
pos = (353,-35);
},
{
name = ogonek;
pos = (518,10);
},
{
name = top.case;
pos = (346,715);
}
);
background = {
shapes = (
{
closed = 1;
nodes = (
(617,0,l),
(617,114,l),
(211,114,l),
(211,306,l),
(570,306,l),
(570,407,l),
(211,407,l),
(211,587,l),
(610,587,l),
(610,700,l),
(80,700,l),
(80,0,l)
);
}
);
};
layerId = "514A1583-697A-4C0A-B081-2869E94CF283";
shapes = (
{
closed = 1;
nodes = (
(615,0,l),
(615,115,l),
(214,115,l),
(214,301,l),
(568,301,l),
(568,416,l),
(214,416,l),
(214,585,l),
(608,585,l),
(608,700,l),
(83,700,l),
(83,0,l)
);
}
);
width = 655;
}
);
metricLeft = H;
unicode = 69;
},
{
glyphname = Schwa;
lastChange = "2021-09-30 22:26:40 +0000";
layers = (
{
background = {
shapes = (
{
pos = (-54,0);
ref = O;
}
);
};
layerId = "620D8D18-E43F-4D11-9420-7EF908A5CAE8";
shapes = (
{
closed = 1;
nodes = (
(556,-10,o),
(696,155,o),
(696,351,cs),
(696,574,o),
(555,710,o),
(338,710,cs),
(264,710,o),
(195,697,o),
(135,676,cs),
(93,662,l),
(102,634,l),
(143,647,ls),
(208,667,o),
(269,674,o),
(334,674,cs),
(523,674,o),
(656,554,o),
(656,346,c),
(60,346,l),
(60,323,ls),
(60,146,o),
(155,-10,o),
(363,-10,cs)
);
},
{
closed = 1;
nodes = (
(654,310,l),
(637,137,o),
(512,26,o),
(363,26,cs),
(197,26,o),
(105,140,o),
(99,310,c)
);
}
);
width = 761;
},
{
background = {
shapes = (
{
closed = 1;
nodes = (
(564,-10,o),
(724,133,o),
(724,351,cs),
(724,570,o),
(579,710,o),
(362,710,cs),
(281,710,o),
(207,699,o),
(139,674,cs),
(64,647,l),
(71,694,l),
(116,510,l),
(94,552,l),
(172,569,ls),
(235,583,o),
(291,589,o),
(345,589,cs),
(500,589,o),
(591,512,o),
(591,349,cs),
(591,185,o),
(505,108,o),
(385,108,cs),
(257,108,o),
(197,186,o),
(197,326,c),
(150,285,l),
(619,285,l),
(619,390,l),
(50,390,l),
(50,342,ls),
(50,139,o),
(162,-10,o),
(370,-10,cs)
);
}
);
};
layerId = "514A1583-697A-4C0A-B081-2869E94CF283";
shapes = (
{
closed = 1;
nodes = (
(574,-10,o),
(724,133,o),
(724,351,cs),
(724,570,o),
(579,710,o),
(362,710,cs),
(281,710,o),
(207,699,o),
(139,674,cs),
(81,653,l),
(105,554,l),
(172,569,ls),
(235,583,o),
(291,589,o),
(345,589,cs),
(486,589,o),
(574,525,o),
(589,390,c),
(50,390,l),
(50,342,ls),
(50,139,o),
(163,-10,o),
(380,-10,cs)
);
},
{
closed = 1;
nodes = (
(586,285,l),
(566,165,o),
(488,108,o),
(385,108,cs),
(270,108,o),
(210,171,o),
(199,285,c)
);
}
);
width = 774;
},
{
background = {
shapes = (
{
closed = 1;
nodes = (
(561,-9,o),
(742,111,o),
(742,351,cs),
(742,566,o),
(592,709,o),
(375,709,cs),
(277,709,o),
(193,696,o),
(108,669,cs),
(13,638,l),
(47,693,l),
(102,404,l),
(69,483,l),
(177,499,ls),
(243,509,o),
(300,514,o),
(346,514,cs),
(466,514,o),
(522,469,o),
(522,348,cs),
(522,216,o),
(476,180,o),
(397,180,cs),
(312,180,o),
(286,223,o),
(286,322,c),
(213,273,l),
(550,273,l),
(550,420,l),
(30,420,l),
(30,360,ls),
(30,132,o),
(159,-9,o),
(367,-9,cs)
);
}
);
};
layerId = "5C950900-0D0F-4959-81DE-75F048290F1B";
shapes = (
{
closed = 1;
nodes = (
(578,-9,o),
(742,111,o),
(742,351,cs),
(742,566,o),
(592,709,o),
(375,709,cs),
(277,709,o),
(193,696,o),
(108,669,cs),
(55,652,l),
(86,486,l),
(177,499,ls),
(243,509,o),
(300,514,o),
(346,514,cs),
(438,514,o),
(493,488,o),
(513,420,c),
(30,420,l),
(30,360,ls),
(30,132,o),
(161,-9,o),
(384,-9,cs)
);
},
{
closed = 1;
nodes = (
(515,273,l),
(500,202,o),
(458,180,o),
(397,180,cs),
(328,180,o),
(298,209,o),
(289,273,c)
);
}
);
width = 777;
}
);
metricRight = O;
unicode = 399;
},
{
color = 4;
glyphname = F;
lastChange = "2021-09-30 22:26:40 +0000";
layers = (
{
layerId = "620D8D18-E43F-4D11-9420-7EF908A5CAE8";
shapes = (
{
closed = 1;
nodes = (
(144,0,l),
(144,340,l),
(533,340,l),
(533,376,l),
(144,376,l),
(144,664,l),
(573,664,l),
(573,700,l),
(105,700,l),
(105,0,l)
);
}
);
width = 608;
},
{
layerId = "5C950900-0D0F-4959-81DE-75F048290F1B";
shapes = (
{
closed = 1;
nodes = (
(278,0,l),
(278,237,l),
(574,237,l),
(574,402,l),
(278,402,l),
(278,505,l),
(614,505,l),
(614,700,l),
(55,700,l),
(55,0,l)
);
}
);
width = 629;
},
{
associatedMasterId = "5C950900-0D0F-4959-81DE-75F048290F1B";
layerId = "514ECB3F-6398-496B-84EA-B37A7EE2764D";
name = "Mar 30 18, 08:49";
shapes = (
{
closed = 1;
nodes = (
(278,0,l),
(278,232,l),
(574,232,l),
(574,422,l),
(278,422,l),
(278,505,l),
(370,505,ls),
(449,505,o),
(614,500,o),
(614,659,cs),
(614,700,l),
(55,700,l),
(55,0,l)
);
}
);
width = 629;
},
{
background = {
shapes = (
{
closed = 1;
nodes = (
(211,0,l),
(211,289,l),
(554,289,l),
(554,389,l),
(211,389,l),
(211,585,l),
(594,585,l),
(594,700,l),
(80,700,l),
(80,0,l)
);
}
);
};
layerId = "514A1583-697A-4C0A-B081-2869E94CF283";
shapes = (
{
closed = 1;
nodes = (
(214,0,l),
(214,290,l),
(551,290,l),
(551,405,l),
(214,405,l),
(214,585,l),
(591,585,l),
(591,700,l),
(83,700,l),
(83,0,l)
);
}
);
width = 619;
}
);
metricLeft = H;
unicode = 70;
},
{
color = 4;
glyphname = G;
kernLeft = O;
kernRight = G;
lastChange = "2021-09-30 22:26:40 +0000";
layers = (
{
anchors = (
{
name = bottom;
pos = (466,-35);
},
{
name = top.case;
pos = (453,720);
}
);
background = {
shapes = (
{
closed = 1;
nodes = (
(567,-10,o),
(644,8,o),
(720,38,c),
(720,343,l),
(415,343,l),
(415,307,l),
(681,307,l),
(681,31,l),
(690,62,l),
(627,40,o),
(552,26,o),
(492,26,cs),
(254,26,o),
(111,148,o),
(111,351,cs),
(111,559,o),
(264,674,o),
(458,674,cs),
(511,674,o),
(567,666,o),
(624,648,cs),
(677,631,l),
(654,619,l),
(675,689,l),
(684,663,l),
(642,678,ls),
(581,700,o),
(518,710,o),
(458,710,cs),
(245,710,o),
(70,583,o),
(70,352,cs),
(70,119,o),
(228,-10,o),
(495,-10,cs)
);
}
);
};
guides = (
{
angle = 90;
pos = (673,137);
}
);
layerId = "620D8D18-E43F-4D11-9420-7EF908A5CAE8";
shapes = (
{
closed = 1;
nodes = (
(562,-10,o),
(639,8,o),
(715,38,c),
(715,343,l),
(410,343,l),
(410,307,l),
(676,307,l),
(676,59,l),
(615,39,o),
(544,26,o),
(487,26,cs),
(249,26,o),
(106,148,o),
(106,351,cs),
(106,559,o),
(259,674,o),
(453,674,cs),
(506,674,o),
(562,666,o),
(619,648,cs),
(654,637,l),
(664,669,l),
(632,680,ls),
(576,700,o),
(513,710,o),
(453,710,cs),
(240,710,o),
(65,583,o),
(65,352,cs),
(65,119,o),
(223,-10,o),
(490,-10,cs)
);
}
);
width = 800;
},
{
anchors = (
{
name = bottom;
pos = (415,-35);
},
{
name = top.case;
pos = (416,720);
}
);
background = {
shapes = (
{
closed = 1;
nodes = (
(526,-9,o),
(642,25,o),
(709,69,c),
(709,404,l),
(371,404,l),
(371,255,l),
(524,255,l),
(524,154,l),
(547,198,l),
(502,187,o),
(464,184,o),
(424,184,cs),
(318,184,o),
(263,226,o),
(263,348,cs),
(263,467,o),
(324,505,o),
(434,505,cs),
(476,505,o),
(525,500,o),
(581,491,cs),
(672,477,l),
(610,429,l),
(667,707,l),
(737,624,l),
(625,669,ls),
(560,695,o),
(493,709,o),
(426,709,cs),
(206,709,o),
(35,586,o),
(35,350,cs),
(35,133,o),
(175,-9,o),
(415,-9,cs)
);
}
);
};
guides = (
{
pos = (434,514);
}
);
layerId = "5C950900-0D0F-4959-81DE-75F048290F1B";
shapes = (
{
closed = 1;
nodes = (
(526,-9,o),
(642,25,o),
(709,69,c),
(709,404,l),
(371,404,l),
(371,255,l),
(524,255,l),
(524,193,l),
(489,186,o),
(457,184,o),
(424,184,cs),
(318,184,o),
(263,226,o),
(263,348,cs),
(263,474,o),
(324,514,o),
(434,514,cs),
(476,514,o),
(525,509,o),
(581,499,cs),
(623,492,l),
(657,656,l),
(625,669,ls),
(560,695,o),
(493,709,o),
(426,709,cs),
(206,709,o),
(35,586,o),
(35,350,cs),
(35,133,o),
(175,-9,o),
(415,-9,cs)
);
}
);
width = 739;
},
{
anchors = (
{
name = bottom;
pos = (441,-35);
},
{
name = top.case;
pos = (441,720);
}
);
background = {
shapes = (
{
closed = 1;
nodes = (
(550,-10,o),
(642,17,o),
(712,54,c),
(712,392,l),
(402,392,l),
(402,283,l),
(589,283,l),
(589,93,l),
(620,140,l),
(568,125,o),
(514,116,o),
(466,116,cs),
(303,116,o),
(209,195,o),
(209,352,cs),
(209,510,o),
(311,584,o),
(455,584,cs),
(501,584,o),
(550,577,o),
(605,564,cs),
(673,548,l),
(624,523,l),
(673,695,l),
(708,644,l),
(634,674,ls),
(573,699,o),
(511,710,o),
(449,710,cs),
(242,710,o),
(75,586,o),
(75,351,cs),
(75,128,o),
(217,-10,o),
(462,-10,cs)
);
}
);
};
guides = (
{
pos = (299,584);
},
{
pos = (291,116);
}
);
layerId = "514A1583-697A-4C0A-B081-2869E94CF283";
shapes = (
{
closed = 1;
nodes = (
(544,-10,o),
(641,17,o),
(712,54,c),
(712,396,l),
(391,396,l),
(391,281,l),
(581,281,l),
(581,121,l),
(538,110,o),
(495,105,o),
(456,105,cs),
(284,105,o),
(184,187,o),
(184,350,cs),
(184,513,o),
(292,589,o),
(444,589,cs),
(491,589,o),
(544,581,o),
(600,569,cs),
(638,561,l),
(661,662,l),
(629,675,ls),
(568,698,o),
(503,710,o),
(440,710,cs),
(223,710,o),
(50,585,o),
(50,351,cs),
(50,126,o),
(199,-10,o),
(453,-10,cs)
);
}
);
width = 770;
}
);
metricLeft = O;
unicode = 71;
},
{
color = 4;
glyphname = H;
lastChange = "2021-09-30 22:26:40 +0000";
layers = (
{
anchors = (
{
name = top.case;
pos = (380,720);
}
);
layerId = "620D8D18-E43F-4D11-9420-7EF908A5CAE8";
shapes = (
{
closed = 1;
nodes = (
(144,0,l),
(144,346,l),
(616,346,l),
(616,0,l),
(655,0,l),
(655,700,l),
(616,700,l),
(616,382,l),
(144,382,l),
(144,700,l),
(105,700,l),
(105,0,l)
);
}
);
width = 760;
},
{
anchors = (
{
name = top.case;
pos = (395,720);
}
);
background = {
shapes = (
{
closed = 1;
nodes = (
(598,-9,o),
(736,106,o),
(736,286,cs),
(736,700,l),
(520,700,l),
(520,316,ls),
(520,224,o),
(478,199,o),
(401,199,cs),
(322,199,o),
(279,224,o),
(279,316,cs),
(279,700,l),
(55,700,l),
(55,286,ls),
(55,106,o),
(181,-9,o),
(394,-9,cs)
);
}
);
};
layerId = "5C950900-0D0F-4959-81DE-75F048290F1B";
shapes = (
{
closed = 1;
nodes = (
(278,0,l),
(278,258,l),
(513,258,l),
(513,0,l),
(736,0,l),
(736,700,l),
(513,700,l),
(513,453,l),
(278,453,l),
(278,700,l),
(55,700,l),
(55,0,l)
);
}
);
width = 791;
},
{
anchors = (
{
name = top.case;
pos = (390,720);
}
);
background = {
shapes = (
{
closed = 1;
nodes = (
(211,0,l),
(211,302,l),
(565,302,l),
(565,0,l),
(696,0,l),
(696,700,l),
(565,700,l),
(565,418,l),
(211,418,l),
(211,700,l),
(80,700,l),
(80,0,l)
);
}
);
};
layerId = "514A1583-697A-4C0A-B081-2869E94CF283";
shapes = (
{
closed = 1;
nodes = (
(214,0,l),
(214,303,l),
(567,303,l),
(567,0,l),
(698,0,l),
(698,700,l),
(567,700,l),
(567,418,l),
(214,418,l),
(214,700,l),
(83,700,l),
(83,0,l)
);
}
);
width = 781;
}
);
unicode = 72;
},
{
color = 3;
glyphname = Hbar;
lastChange = "2021-09-30 22:26:40 +0000";
layers = (
{
layerId = "620D8D18-E43F-4D11-9420-7EF908A5CAE8";
shapes = (
{
closed = 1;
nodes = (
(805,520,l),
(805,552,l),
(5,552,l),
(5,520,l)
);
},
{
pos = (25,0);
ref = H;
}
);
width = 810;
},
{
layerId = "514A1583-697A-4C0A-B081-2869E94CF283";
shapes = (
{
closed = 1;
nodes = (
(800,529,l),
(800,617,l),
(8,617,l),
(8,529,l)
);
},
{
alignment = -1;
pos = (14,0);
ref = H;
}
);
width = 808;
},
{
layerId = "5C950900-0D0F-4959-81DE-75F048290F1B";
shapes = (
{
closed = 1;
nodes = (
(820,527,l),
(820,635,l),
(5,635,l),
(5,527,l)
);
},
{
pos = (17,0);
ref = H;
}
);
width = 825;
}
);
unicode = 294;
},
{
color = 4;
glyphname = I;
lastChange = "2021-09-30 23:32:25 +0000";
layers = (
{
anchors = (
{
name = bottom;
pos = (125,-35);
},
{
name = ogonek;
pos = (84,10);
},
{
name = top.case;
pos = (125,720);
}
);
layerId = "620D8D18-E43F-4D11-9420-7EF908A5CAE8";
shapes = (
{
closed = 1;
nodes = (
(144,0,l),
(144,700,l),
(105,700,l),
(105,0,l)
);
}
);
width = 249;
},
{
anchors = (
{
name = bottom;
pos = (166,-35);
},
{
name = ogonek;
pos = (149,10);
},
{
name = top.case;
pos = (167,720);
}
);
layerId = "5C950900-0D0F-4959-81DE-75F048290F1B";
shapes = (
{
closed = 1;
nodes = (
(278,0,l),
(278,700,l),
(55,700,l),
(55,0,l)
);
}
);
width = 333;
},
{
anchors = (
{
name = bottom;
pos = (149,-35);
},
{
name = ogonek;
pos = (119,10);
},
{
name = top.case;
pos = (149,720);
}
);
layerId = "514A1583-697A-4C0A-B081-2869E94CF283";
shapes = (
{
closed = 1;
nodes = (
(214,0,l),
(214,700,l),
(83,700,l),
(83,0,l)
);
}
);
width = 297;
}
);
metricLeft = H;
metricRight = H;
unicode = 73;
},
{
glyphname = Ihookabove;
lastChange = "2021-09-30 23:32:26 +0000";
layers = (
{
layerId = "620D8D18-E43F-4D11-9420-7EF908A5CAE8";
shapes = (
{
ref = I;
},
{
pos = (125,0);
ref = hookabovecomb.case;
}
);
width = 249;
},
{
layerId = "514A1583-697A-4C0A-B081-2869E94CF283";
shapes = (
{
ref = I;
},
{
pos = (159,0);
ref = hookabovecomb.case;
}
);
width = 297;
},
{
background = {
shapes = (
{
closed = 1;
nodes = (
(71,748,l),
(245,695,l),
(182,683,l),
(195,720,o),
(203,734,o),
(222,743,cs),
(257,759,ls),
(310,783,o),
(347,816,o),
(347,877,cs),
(347,941,o),
(288,992,o),
(172,992,cs),
(133,992,o),
(87,987,o),
(50,975,cs),
(-12,955,l),
(24,986,l),
(63,846,l),
(26,875,l),
(96,883,ls),
(121,886,o),
(142,886,o),
(158,886,cs),
(204,886,o),
(213,880,o),
(213,869,cs),
(213,862,o),
(208,857,o),
(195,850,cs),
(153,828,ls),
(111,806,o),
(93,761,o),
(103,722,c)
);
}
);
};
layerId = "5C950900-0D0F-4959-81DE-75F048290F1B";
shapes = (
{
ref = I;
},
{
pos = (187,0);
ref = hookabovecomb.case;
}
);
width = 333;
}
);
unicode = 7880;
},
{
color = 4;
glyphname = J;
kernLeft = J;
kernRight = U;
lastChange = "2021-09-30 22:26:40 +0000";
layers = (
{
anchors = (
{
name = top.case;
pos = (394,720);
}
);
background = {
shapes = (
{
closed = 1;
nodes = (
(343,-10,o),
(418,49,o),
(418,198,cs),
(418,700,l),
(379,700,l),
(379,196,ls),
(379,70,o),
(315,26,o),
(199,26,cs),
(144,26,o),
(111,31,o),
(76,38,cs),
(29,48,l),
(54,63,l),
(37,0,l),
(25,19,l),
(60,10,ls),
(123,-6,o),
(162,-10,o),
(202,-10,cs)
);
}
);
};
layerId = "620D8D18-E43F-4D11-9420-7EF908A5CAE8";
shapes = (
{
closed = 1;
nodes = (
(338,-10,o),
(413,49,o),
(413,198,cs),
(413,700,l),
(374,700,l),
(374,196,ls),
(374,70,o),
(310,26,o),
(194,26,cs),
(139,26,o),
(106,31,o),
(71,38,cs),
(44,44,l),
(36,14,l),
(65,7,ls),
(117,-5,o),
(157,-10,o),
(197,-10,cs)
);
}
);
width = 503;
},
{
anchors = (
{
name = top.case;
pos = (420,720);
}
);
background = {
shapes = (
{
closed = 1;
nodes = (
(427,-9,o),
(533,87,o),
(533,264,cs),
(533,700,l),
(310,700,l),
(310,265,ls),
(310,223,o),
(281,196,o),
(232,196,cs),
(204,196,o),
(176,196,o),
(141,201,cs),
(53,213,l),
(98,279,l),
(33,-14,l),
(0,48,l),
(80,22,ls),
(143,1,o),
(196,-9,o),
(248,-9,cs)
);
}
);
};
layerId = "5C950900-0D0F-4959-81DE-75F048290F1B";
shapes = (
{
closed = 1;
nodes = (
(422,-9,o),
(533,87,o),
(533,264,cs),
(533,700,l),
(310,700,l),
(310,265,ls),
(310,223,o),
(279,196,o),
(226,196,cs),
(196,196,o),
(165,196,o),
(128,201,cs),
(64,209,l),
(20,35,l),
(60,22,ls),
(126,1,o),
(181,-9,o),
(236,-9,cs)
);
}
);
width = 573;
},
{
anchors = (
{
name = top.case;
pos = (412,720);
}
);
background = {
shapes = (
{
closed = 1;
nodes = (
(380,-10,o),
(473,68,o),
(473,231,cs),
(473,700,l),
(342,700,l),
(342,231,ls),
(342,147,o),
(295,111,o),
(210,111,cs),
(168,111,o),
(136,114,o),
(100,120,cs),
(29,131,l),
(65,171,l),
(22,0,l),
(-2,33,l),
(63,15,ls),
(122,-2,o),
(169,-10,o),
(217,-10,cs)
);
}
);
};
layerId = "514A1583-697A-4C0A-B081-2869E94CF283";
shapes = (
{
closed = 1;
nodes = (
(383,-10,o),
(476,68,o),
(476,231,cs),
(476,700,l),
(345,700,l),
(345,231,ls),
(345,147,o),
(297,111,o),
(213,111,cs),
(170,111,o),
(138,114,o),
(91,119,cs),
(55,123,l),
(30,25,l),
(67,14,ls),
(125,-3,o),
(172,-10,o),
(219,-10,cs)
);
}
);
width = 539;
}
);
metricRight = U;
unicode = 74;
},
{
glyphname = K;
kernRight = K;
lastChange = "2021-09-30 22:26:40 +0000";
layers = (
{
anchors = (
{
name = bottom;
pos = (360,-35);
}
);
background = {
shapes = (
{
closed = 1;
nodes = (
(613,0,l),
(389,372,l),
(596,700,l),
(355,700,l),
(202,460,l),
(92,460,l),
(49,256,l),
(202,256,l),
(354,0,l)
);
},
{
closed = 1;
nodes = (
(163,0,l),
(163,700,l),
(-60,700,l),
(-60,0,l)
);
}
);
};
layerId = "620D8D18-E43F-4D11-9420-7EF908A5CAE8";
shapes = (
{
closed = 1;
nodes = (
(597,0,l),
(277,341,l),
(580,700,l),
(532,700,l),
(244,355,l),
(133,355,l),
(133,319,l),
(244,319,l),
(548,0,l)
);
},
{
closed = 1;
nodes = (
(144,0,l),
(144,700,l),
(105,700,l),
(105,0,l)
);
}
);
width = 612;
},
{
anchors = (
{
name = bottom;
pos = (375,-35);
}
);
background = {
shapes = (
{
closed = 1;
nodes = (
(728,0,l),
(504,372,l),
(711,700,l),
(470,700,l),
(309,437,l),
(203,437,l),
(203,272,l),
(309,272,l),
(469,0,l)
);
},
{
closed = 1;
nodes = (
(278,0,l),
(278,700,l),
(55,700,l),
(55,0,l)
);
}
);
};
layerId = "5C950900-0D0F-4959-81DE-75F048290F1B";
shapes = (
{
closed = 1;
nodes = (
(728,0,l),
(499,365,l),
(711,700,l),
(482,700,l),
(319,437,l),
(203,437,l),
(203,272,l),
(315,272,l),
(472,0,l)
);
},
{
closed = 1;
nodes = (
(278,0,l),
(278,700,l),
(55,700,l),
(55,0,l)
);
}
);
width = 738;
},
{
anchors = (
{
name = bottom;
pos = (370,-35);
}
);
background = {
shapes = (
{
closed = 1;
nodes = (
(663,0,l),
(388,353,l),
(646,700,l),
(507,700,l),
(282,396,l),
(168,396,l),
(168,296,l),
(280,296,l),
(510,0,l)
);
},
{
closed = 1;
nodes = (
(211,0,l),
(211,700,l),
(80,700,l),
(80,0,l)
);
}
);
};
layerId = "514A1583-697A-4C0A-B081-2869E94CF283";
shapes = (
{
closed = 1;
nodes = (
(665,0,l),
(393,357,l),
(648,700,l),
(490,700,l),
(275,406,l),
(173,406,l),
(151,291,l),
(283,291,l),
(498,0,l)
);
},
{
closed = 1;
nodes = (
(214,0,l),
(214,700,l),
(83,700,l),
(83,0,l)
);
}
);
width = 683;
},
{
anchors = (
{
name = bottom;
pos = (375,-35);
}
);
associatedMasterId = "5C950900-0D0F-4959-81DE-75F048290F1B";
background = {
shapes = (
{
closed = 1;
nodes = (
(278,700,l),
(55,700,l),
(55,0,l),
(278,0,l)
);
},
{
closed = 1;
nodes = (
(207,439,l),
(164,266,l),
(317,266,l),
(479,0,l),
(738,0,l),
(514,367,l),
(721,700,l),
(480,700,l),
(317,439,l)
);
}
);
};
guides = (
{
angle = 90;
pos = (317,358);
}
);
layerId = "AEEF3FB4-A4C1-4D10-9E66-673114164009";
name = "Apr 25 18, 15:59";
shapes = (
{
closed = 1;
nodes = (
(278,700,l),
(55,700,l),
(55,0,l),
(278,0,l)
);
},
{
closed = 1;
nodes = (
(207,460,l),
(164,256,l),
(327,256,l),
(479,0,l),
(738,0,l),
(514,372,l),
(721,700,l),
(480,700,l),
(327,460,l)
);
}
);
width = 748;
},
{
anchors = (
{
name = bottom;
pos = (375,-35);
}
);
associatedMasterId = "5C950900-0D0F-4959-81DE-75F048290F1B";
background = {
shapes = (
{
closed = 1;
nodes = (
(469,0,l),
(728,0,l),
(474,397,l),
(711,700,l),
(470,700,l),
(278,457,l),
(278,700,l),
(55,700,l),
(55,0,l),
(278,0,l),
(278,173,l),
(320,226,l)
);
}
);
};
layerId = "F7930633-DA96-426E-BD48-376A075FDD4D";
name = "May 9 18, 08:26";
shapes = (
{
closed = 1;
nodes = (
(469,0,l),
(728,0,l),
(474,397,l),
(711,700,l),
(470,700,l),
(278,457,l),
(278,700,l),
(55,700,l),
(55,0,l),
(278,0,l),
(278,173,l),
(320,226,l)
);
}
);
width = 748;
},
{
anchors = (
{
name = bottom;
pos = (365,-35);
}
);
associatedMasterId = "620D8D18-E43F-4D11-9420-7EF908A5CAE8";
background = {
shapes = (
{
closed = 1;
nodes = (
(598,0,l),
(642,0,l),
(355,395,l),
(600,700,l),
(554,700,l),
(149,195,l),
(149,700,l),
(110,700,l),
(110,0,l),
(149,0,l),
(149,139,l),
(331,363,l)
);
}
);
};
layerId = "64D8A96F-C693-4579-B842-092C0A862AAF";
name = "May 9 18, 22:07";
shapes = (
{
closed = 1;
nodes = (
(598,0,l),
(642,0,l),
(355,395,l),
(600,700,l),
(554,700,l),
(149,195,l),
(149,700,l),
(110,700,l),
(110,0,l),
(149,0,l),
(149,139,l),
(331,363,l)
);
}
);
width = 662;
}
);
metricLeft = H;
unicode = 75;
},
{
color = 4;
glyphname = L;
kernRight = L;
lastChange = "2021-09-30 22:26:40 +0000";
layers = (
{
anchors = (
{
name = bottom;
pos = (350,-35);
},
{
name = caron;
pos = (389,413);
},
{
name = top.case;
pos = (125,720);
}
);
layerId = "620D8D18-E43F-4D11-9420-7EF908A5CAE8";
shapes = (
{
closed = 1;
nodes = (
(570,0,l),
(570,36,l),
(144,36,l),
(144,700,l),
(105,700,l),
(105,0,l)
);
}
);
width = 600;
},
{
anchors = (
{
name = bottom;
pos = (345,-35);
},
{
name = caron;
pos = (514,413);
},
{
name = top.case;
pos = (167,720);
}
);
layerId = "5C950900-0D0F-4959-81DE-75F048290F1B";
shapes = (
{
closed = 1;
nodes = (
(599,0,l),
(599,195,l),
(278,195,l),
(278,700,l),
(55,700,l),
(55,0,l)
);
}
);
width = 614;
},
{
anchors = (
{
name = bottom;
pos = (350,-35);
},
{
name = caron;
pos = (434,413);
},
{
name = top.case;
pos = (149,720);
}
);
background = {
shapes = (
{
closed = 1;
nodes = (
(585,0,l),
(585,121,l),
(211,121,l),
(211,700,l),
(80,700,l),
(80,0,l)
);
}
);
};
layerId = "514A1583-697A-4C0A-B081-2869E94CF283";
shapes = (
{
closed = 1;
nodes = (
(583,0,l),
(583,115,l),
(214,115,l),
(214,700,l),
(83,700,l),
(83,0,l)
);
}
);
width = 607;
},
{
anchors = (
{
name = bottom;
pos = (350,-35);
},
{
name = caron;
pos = (434,413);
},
{
name = top.case;
pos = (149,720);
}
);
associatedMasterId = "514A1583-697A-4C0A-B081-2869E94CF283";
background = {
shapes = (
{
closed = 1;
nodes = (
(568,0,l),
(568,124,l),
(209,124,l),
(209,700,l),
(83,700,l),
(83,0,l)
);
}
);
};
layerId = "4C632D53-325F-4F81-934A-303ED98B6874";
name = "Jun 28 18, 08:47";
shapes = (
{
closed = 1;
nodes = (
(548,0,l),
(568,124,l),
(214,124,l),
(214,700,l),
(83,700,l),
(83,0,l)
);
}
);
width = 592;
}
);
metricLeft = H;
unicode = 76;
},
{
color = 3;
glyphname = Lslash;
kernRight = L;
lastChange = "2021-09-30 22:26:40 +0000";
layers = (
{
background = {
shapes = (
{
closed = 1;
nodes = (
(431,358,l),
(418,393,l),
(181,311,l),
(181,270,l)
);
},
{
closed = 1;
nodes = (
(181,274,l),
(181,315,l),
(30,262,l),
(43,226,l)
);
}
);
};
layerId = "620D8D18-E43F-4D11-9420-7EF908A5CAE8";
shapes = (
{
closed = 1;
nodes = (
(430,362,l),
(418,393,l),
(181,311,l),
(180,274,l)
);
},
{
closed = 1;
nodes = (
(180,278,l),
(181,315,l),
(30,262,l),
(42,230,l)
);
},
{
pos = (60,0);
ref = L;
}
);
width = 660;
},
{
background = {
shapes = (
{
closed = 1;
nodes = (
(487,388,l),
(456,459,l),
(18,281,l),
(49,209,l)
);
}
);
};
layerId = "514A1583-697A-4C0A-B081-2869E94CF283";
shapes = (
{
closed = 1;
nodes = (
(487,388,l),
(452,468,l),
(217,373,l),
(217,278,l)
);
},
{
closed = 1;
nodes = (
(217,288,l),
(217,383,l),
(14,300,l),
(49,219,l)
);
},
{
alignment = -1;
pos = (59,0);
ref = L;
}
);
width = 666;
},
{
background = {
shapes = (
{
closed = 1;
nodes = (
(549,417,l),
(500,524,l),
(279,424,l),
(279,295,l)
);
},
{
closed = 1;
nodes = (
(279,310,l),
(279,439,l),
(11,319,l),
(60,211,l)
);
}
);
};
layerId = "5C950900-0D0F-4959-81DE-75F048290F1B";
shapes = (
{
closed = 1;
nodes = (
(549,418,l),
(500,525,l),
(279,424,l),
(279,295,l)
);
},
{
closed = 1;
nodes = (
(279,310,l),
(279,439,l),
(-2,313,l),
(47,205,l)
);
},
{
pos = (64,0);
ref = L;
}
);
width = 678;
}
);
metricRight = L;
unicode = 321;
},
{
glyphname = M;
lastChange = "2021-09-30 22:26:40 +0000";
layers = (
{
background = {
shapes = (
{
closed = 1;
nodes = (
(273,0,l),
(273,340,l),
(386,154,l),
(534,154,l),
(647,340,l),
(647,0,l),
(865,0,l),
(865,700,l),
(655,700,l),
(461,380,l),
(459,380,l),
(265,700,l),
(55,700,l),
(55,0,l)
);
},
{
closed = 1;
nodes = (
(819,672,l),
(787,695,l),
(381,125,l),
(412,103,l)
);
}
);
};
guides = (
{
angle = 270;
pos = (458,237);
},
{
pos = (64,633);
}
);
layerId = "620D8D18-E43F-4D11-9420-7EF908A5CAE8";
shapes = (
{
closed = 1;
nodes = (
(144,0,l),
(144,628,l),
(452,198,l),
(475,198,l),
(789,634,l),
(789,0,l),
(828,0,l),
(828,700,l),
(796,700,l),
(465,247,l),
(463,247,l),
(139,700,l),
(105,700,l),
(105,0,l)
);
}
);
width = 933;
},
{
annotations = (
{
pos = (-412,601);
text = "PROBAR UN DISEÑO DONDE LA ZONA MEDIA NO CAIGA TANTO, CREO QUE PODRA REFORZAR LA HORIZONTALIDAD DEL DISEÑO";
type = Text;
width = 203;
}
);
background = {
shapes = (
{
closed = 1;
nodes = (
(273,0,l),
(273,320,l),
(416,104,l),
(504,104,l),
(647,320,l),
(647,0,l),
(865,0,l),
(865,700,l),
(685,700,l),
(461,360,l),
(459,360,l),
(235,700,l),
(55,700,l),
(55,0,l)
);
}
);
};
layerId = "5C950900-0D0F-4959-81DE-75F048290F1B";
shapes = (
{
closed = 1;
nodes = (
(273,0,l),
(273,340,l),
(386,154,l),
(534,154,l),
(647,340,l),
(647,0,l),
(865,0,l),
(865,700,l),
(655,700,l),
(461,380,l),
(459,380,l),
(265,700,l),
(55,700,l),
(55,0,l)
);
}
);
width = 920;
},
{
associatedMasterId = "5C950900-0D0F-4959-81DE-75F048290F1B";
background = {
shapes = (
{
closed = 1;
nodes = (
(637,700,l),
(446,407,l),
(255,700,l),
(55,700,l),
(55,0,l),
(273,0,l),
(273,312,l),
(446,74,l),
(609,299,l),
(609,0,l),
(832,0,l),
(832,700,l)
);
}
);
};
layerId = "C88BBCDE-C6A5-48E6-B255-6F18B77F9807";
name = "Mar 13 18, 15:56";
shapes = (
{
closed = 1;
nodes = (
(637,700,l),
(456,407,l),
(430,407,l),
(255,700,l),
(55,700,l),
(55,0,l),
(273,0,l),
(273,312,l),
(401,74,l),
(486,74,l),
(609,299,l),
(609,0,l),
(832,0,l),
(832,700,l)
);
}
);
width = 887;
},
{
associatedMasterId = "5C950900-0D0F-4959-81DE-75F048290F1B";
background = {
shapes = (
{
closed = 0;
nodes = (
(725,424,l),
(500,104,l),
(427,104,l),
(201,424,l)
);
}
);
};
layerId = "20771765-E429-463C-9F77-64160788F33E";
name = "Mar 18 18, 11:17";
shapes = (
{
closed = 1;
nodes = (
(273,0,l),
(273,320,l),
(426,104,l),
(499,104,l),
(647,314,l),
(647,0,l),
(870,0,l),
(870,700,l),
(695,700,l),
(470,380,l),
(461,380,l),
(235,700,l),
(55,700,l),
(55,0,l)
);
}
);
width = 925;
},
{
associatedMasterId = "5C950900-0D0F-4959-81DE-75F048290F1B";
layerId = "BDE8A0B3-8C9C-497B-B76F-62A6BA8DFA7F";
name = "Mar 18 18, 11:22";
shapes = (
{
closed = 1;
nodes = (
(273,0,l),
(273,312,l),
(446,74,l),
(609,299,l),
(609,0,l),
(832,0,l),
(832,700,l),
(637,700,l),
(446,407,l),
(255,700,l),
(55,700,l),
(55,0,l)
);
}
);
width = 887;
},
{
background = {
shapes = (
{
closed = 1;
nodes = (
(211,0,l),
(211,472,l),
(412,176,l),
(511,176,l),
(715,472,l),
(715,0,l),
(843,0,l),
(843,700,l),
(719,700,l),
(463,322,l),
(461,322,l),
(212,700,l),
(83,700,l),
(83,0,l)
);
}
);
};
guides = (
{
angle = 90;
pos = (465,265);
},
{
angle = 90;
pos = (813,333);
}
);
layerId = "514A1583-697A-4C0A-B081-2869E94CF283";
shapes = (
{
closed = 1;
nodes = (
(211,0,l),
(211,472,l),
(412,176,l),
(511,176,l),
(715,472,l),
(715,0,l),
(846,0,l),
(846,700,l),
(719,700,l),
(463,322,l),
(461,322,l),
(212,700,l),
(83,700,l),
(83,0,l)
);
}
);
width = 929;
},
{
annotations = (
{
pos = (-412,601);
text = "PROBAR UN DISEÑO DONDE LA ZONA MEDIA NO CAIGA TANTO, CREO QUE PODRA REFORZAR LA HORIZONTALIDAD DEL DISEÑO";
type = Text;
width = 203;
}
);
associatedMasterId = "5C950900-0D0F-4959-81DE-75F048290F1B";
background = {
shapes = (
{
closed = 1;
nodes = (
(273,0,l),
(273,363,l),
(446,187,l),
(453,187,l),
(627,363,l),
(627,0,l),
(850,0,l),
(850,700,l),
(665,700,l),
(451,479,l),
(449,479,l),
(235,700,l),
(55,700,l),
(55,0,l)
);
}
);
};
guides = (
{
angle = 90;
pos = (450,288);
}
);
layerId = "839D38FA-97E0-4800-BA6A-7DE6FFCC5556";
name = "May 3 18, 11:24";
shapes = (
{
closed = 1;
nodes = (
(273,0,l),
(273,363,l),
(446,187,l),
(453,187,l),
(627,363,l),
(627,0,l),
(850,0,l),
(850,700,l),
(665,700,l),
(451,479,l),
(449,479,l),
(235,700,l),
(55,700,l),
(55,0,l)
);
}
);
width = 905;
},
{
annotations = (
{
pos = (-412,601);
text = "PROBAR UN DISEÑO DONDE LA ZONA MEDIA NO CAIGA TANTO, CREO QUE PODRA REFORZAR LA HORIZONTALIDAD DEL DISEÑO";
type = Text;
width = 203;
}
);
associatedMasterId = "5C950900-0D0F-4959-81DE-75F048290F1B";
background = {
shapes = (
{
closed = 1;
nodes = (
(273,0,l),
(273,320,l),
(416,104,l),
(504,104,l),
(647,320,l),
(647,0,l),
(865,0,l),
(865,700,l),
(685,700,l),
(461,360,l),
(459,360,l),
(235,700,l),
(55,700,l),
(55,0,l)
);
}
);
};
layerId = "3244E4CF-33B6-48CE-8C65-3298DB57153D";
name = "May 4 18, 16:12";
shapes = (
{
closed = 1;
nodes = (
(273,0,l),
(273,320,l),
(416,104,l),
(504,104,l),
(647,320,l),
(647,0,l),
(865,0,l),
(865,700,l),
(685,700,l),
(461,360,l),
(459,360,l),
(235,700,l),
(55,700,l),
(55,0,l)
);
}
);
width = 920;
},
{
associatedMasterId = "620D8D18-E43F-4D11-9420-7EF908A5CAE8";
background = {
shapes = (
{
closed = 1;
nodes = (
(821,647,l),
(789,667,l),
(413,76,l),
(446,55,l)
);
}
);
};
layerId = "9CA34BE4-C75C-4617-860E-2D3DC067B2A0";
name = "May 4 18, 16:12";
shapes = (
{
closed = 1;
nodes = (
(149,0,l),
(149,623,l),
(470,118,l),
(486,118,l),
(806,625,l),
(806,0,l),
(845,0,l),
(845,700,l),
(813,700,l),
(481,177,l),
(476,177,l),
(142,700,l),
(110,700,l),
(110,0,l)
);
}
);
width = 955;
},
{
annotations = (
{
pos = (-412,601);
text = "PROBAR UN DISEÑO DONDE LA ZONA MEDIA NO CAIGA TANTO, CREO QUE PODRA REFORZAR LA HORIZONTALIDAD DEL DISEÑO";
type = Text;
width = 203;
}
);
associatedMasterId = "5C950900-0D0F-4959-81DE-75F048290F1B";
background = {
shapes = (
{
closed = 0;
nodes = (
(649,320,l),
(536,104,l)
);
},
{
closed = 0;
nodes = (
(461,330,l),
(463,330,l),
(657,700,l)
);
}
);
};
guides = (
{
angle = 90;
pos = (273,400);
},
{
angle = 90;
pos = (647,400);
}
);
layerId = "7D2C3767-8437-458D-BD2F-C02907BCC6D6";
name = "May 8 18, 18:55";
shapes = (
{
closed = 1;
nodes = (
(273,0,l),
(273,320,l),
(386,94,l),
(534,94,l),
(647,320,l),
(647,0,l),
(865,0,l),
(865,700,l),
(655,700,l),
(461,320,l),
(459,320,l),
(265,700,l),
(55,700,l),
(55,0,l)
);
}
);
width = 920;
},
{
annotations = (
{
pos = (-412,601);
text = "PROBAR UN DISEÑO DONDE LA ZONA MEDIA NO CAIGA TANTO, CREO QUE PODRA REFORZAR LA HORIZONTALIDAD DEL DISEÑO";
type = Text;
width = 203;
}
);
associatedMasterId = "5C950900-0D0F-4959-81DE-75F048290F1B";
background = {
shapes = (
{
closed = 0;
nodes = (
(655,351,l),
(461,31,l),
(459,31,l),
(265,351,l)
);
}
);
};
guides = (
{
angle = 90;
pos = (273,400);
},
{
angle = 90;
pos = (647,400);
}
);
layerId = "5E3C03ED-AB5F-4032-A2F2-4222D70BA10F";
name = "May 8 18, 18:57";
shapes = (
{
closed = 1;
nodes = (
(273,0,l),
(273,340,l),
(386,154,l),
(534,154,l),
(647,340,l),
(647,0,l),
(865,0,l),
(865,700,l),
(655,700,l),
(461,380,l),
(459,380,l),
(265,700,l),
(55,700,l),
(55,0,l)
);
}
);
width = 920;
},
{
annotations = (
{
pos = (-412,601);
text = "PROBAR UN DISEÑO DONDE LA ZONA MEDIA NO CAIGA TANTO, CREO QUE PODRA REFORZAR LA HORIZONTALIDAD DEL DISEÑO";
type = Text;
width = 203;
}
);
associatedMasterId = "5C950900-0D0F-4959-81DE-75F048290F1B";
background = {
shapes = (
{
closed = 1;
nodes = (
(273,0,l),
(273,320,l),
(416,104,l),
(504,104,l),
(647,320,l),
(647,0,l),
(865,0,l),
(865,700,l),
(685,700,l),
(461,360,l),
(459,360,l),
(235,700,l),
(55,700,l),
(55,0,l)
);
}
);
};
layerId = "298A95B0-51E6-4D73-BBC8-BEBAD3B36F26";
name = "May 9 18, 00:46";
shapes = (
{
closed = 1;
nodes = (
(273,0,l),
(273,363,l),
(446,187,l),
(453,187,l),
(627,363,l),
(627,0,l),
(850,0,l),
(850,700,l),
(665,700,l),
(451,479,l),
(449,479,l),
(235,700,l),
(55,700,l),
(55,0,l)
);
}
);
width = 905;
}
);
metricLeft = H;
metricRight = H;
unicode = 77;
},
{
glyphname = N;
lastChange = "2021-09-30 23:32:25 +0000";
layers = (
{
anchors = (
{
name = bottom;
pos = (390,-35);
},
{
name = top.case;
pos = (398,720);
}
);
layerId = "620D8D18-E43F-4D11-9420-7EF908A5CAE8";
shapes = (
{
closed = 1;
nodes = (
(144,0,l),
(144,635,l),
(146,635,l),
(657,0,l),
(692,0,l),
(692,700,l),
(653,700,l),
(653,69,l),
(651,69,l),
(142,700,l),
(105,700,l),
(105,0,l)
);
}
);
width = 797;
},
{
anchors = (
{
name = bottom;
pos = (404,-35);
},
{
name = top.case;
pos = (387,720);
}
);
layerId = "5C950900-0D0F-4959-81DE-75F048290F1B";
shapes = (
{
closed = 1;
nodes = (
(276,0,l),
(276,337,l),
(278,337,l),
(542,0,l),
(735,0,l),
(735,700,l),
(514,700,l),
(514,371,l),
(512,371,l),
(254,700,l),
(55,700,l),
(55,0,l)
);
}
);
width = 790;
},
{
anchors = (
{
name = bottom;
pos = (415,-35);
},
{
name = top.case;
pos = (398,720);
}
);
background = {
shapes = (
{
closed = 1;
nodes = (
(210,0,l),
(210,487,l),
(212,487,l),
(601,0,l),
(714,0,l),
(714,700,l),
(584,700,l),
(584,219,l),
(582,219,l),
(197,700,l),
(80,700,l),
(80,0,l)
);
}
);
};
layerId = "514A1583-697A-4C0A-B081-2869E94CF283";
shapes = (
{
closed = 1;
nodes = (
(213,0,l),
(213,472,l),
(215,472,l),
(615,0,l),
(715,0,l),
(715,700,l),
(585,700,l),
(585,248,l),
(583,248,l),
(197,700,l),
(83,700,l),
(83,0,l)
);
}
);
width = 798;
}
);
metricLeft = H;
metricRight = H;
unicode = 78;
},
{
color = 3;
glyphname = Nhookleft;
kernLeft = j;
lastChange = "2021-09-30 23:32:25 +0000";
layers = (
{
background = {
shapes = (
{
closed = 1;
nodes = (
(-51,-192,l),
(-12,-202,ls),
(7,-206,o),
(25,-209,o),
(39,-209,cs),
(116,-209,o),
(145,-182,o),
(145,-117,cs),
(145,35,l),
(106,35,l),
(106,-119,ls),
(106,-158,o),
(85,-175,o),
(44,-175,cs),
(29,-175,o),
(10,-173,o),
(-9,-171,cs),
(-35,-168,l),
(-27,-154,l),
(-34,-211,l)
);
}
);
};
layerId = "620D8D18-E43F-4D11-9420-7EF908A5CAE8";
shapes = (
{
closed = 1;
nodes = (
(114,-209,o),
(145,-182,o),
(145,-117,cs),
(145,637,l),
(147,637,l),
(660,0,l),
(693,0,l),
(693,700,l),
(654,700,l),
(654,67,l),
(652,67,l),
(141,700,l),
(106,700,l),
(106,-116,ls),
(106,-158,o),
(88,-175,o),
(42,-175,cs),
(27,-175,o),
(8,-173,o),
(-13,-171,cs),
(-34,-168,l),
(-37,-197,l),
(-14,-202,ls),
(4,-207,o),
(23,-209,o),
(37,-209,cs)
);
}
);
width = 798;
},
{
layerId = "514A1583-697A-4C0A-B081-2869E94CF283";
shapes = (
{
closed = 1;
nodes = (
(166,-209,o),
(214,-161,o),
(214,-68,cs),
(214,472,l),
(216,472,l),
(586,0,l),
(686,0,l),
(686,700,l),
(556,700,l),
(556,248,l),
(553,248,l),
(197,700,l),
(84,700,l),
(84,-45,ls),
(84,-79,o),
(68,-93,o),
(35,-93,cs),
(24,-93,o),
(8,-92,o),
(0,-91,cs),
(-13,-89,l),
(-30,-189,l),
(-10,-195,ls),
(19,-203,o),
(47,-209,o),
(69,-209,cs)
);
}
);
width = 769;
},
{
layerId = "5C950900-0D0F-4959-81DE-75F048290F1B";
shapes = (
{
closed = 1;
nodes = (
(230,-209,o),
(304,-143,o),
(304,-24,cs),
(304,337,l),
(306,337,l),
(555,0,l),
(748,0,l),
(748,700,l),
(527,700,l),
(527,371,l),
(525,371,l),
(282,700,l),
(83,700,l),
(83,-1,ls),
(83,-30,o),
(63,-39,o),
(32,-39,cs),
(14,-39,o),
(-2,-38,o),
(-15,-36,cs),
(-29,-34,l),
(-55,-185,l),
(-26,-192,ls),
(18,-202,o),
(61,-209,o),
(110,-209,cs)
);
}
);
width = 803;
}
);
metricLeft = "=j+15";
metricRight = N;
unicode = 413;
},
{
color = 3;
glyphname = Eng;
lastChange = "2021-09-30 22:26:40 +0000";
layers = (
{
background = {
shapes = (
{
closed = 1;
nodes = (
(144,0,l),
(144,637,l),
(146,637,l),
(659,0,l),
(692,0,l),
(692,700,l),
(653,700,l),
(653,67,l),
(651,67,l),
(140,700,l),
(105,700,l),
(105,0,l)
);
},
{
closed = 1;
nodes = (
(496,-192,l),
(536,-202,ls),
(554,-206,o),
(572,-209,o),
(586,-209,cs),
(663,-209,o),
(692,-182,o),
(692,-117,cs),
(692,35,l),
(653,35,l),
(653,-119,ls),
(653,-158,o),
(632,-175,o),
(591,-175,cs),
(576,-175,o),
(558,-173,o),
(538,-171,cs),
(512,-168,l),
(520,-154,l),
(513,-211,l)
);
}
);
};
guides = (
{
angle = 90;
pos = (653,51);
}
);
layerId = "620D8D18-E43F-4D11-9420-7EF908A5CAE8";
shapes = (
{
closed = 1;
nodes = (
(144,0,l),
(144,637,l),
(146,637,l),
(653,8,l),
(653,-108,ls),
(653,-160,o),
(631,-175,o),
(574,-175,cs),
(555,-175,o),
(532,-173,o),
(507,-171,cs),
(482,-169,l),
(479,-197,l),
(504,-202,ls),
(526,-206,o),
(548,-209,o),
(576,-209,cs),
(657,-209,o),
(692,-182,o),
(692,-108,cs),
(692,700,l),
(653,700,l),
(653,67,l),
(651,67,l),
(140,700,l),
(105,700,l),
(105,0,l)
);
}
);
width = 797;
},
{
background = {
shapes = (
{
closed = 0;
nodes = (
(585,10,l),
(229,452,l)
);
},
{
closed = 1;
nodes = (
(144,0,l),
(144,637,l),
(146,637,l),
(659,0,l),
(692,0,l),
(692,700,l),
(653,700,l),
(653,67,l),
(651,67,l),
(140,700,l),
(105,700,l),
(105,0,l)
);
},
{
closed = 1;
nodes = (
(456,-192,l),
(504,-202,ls),
(526,-206,o),
(548,-209,o),
(576,-209,cs),
(657,-209,o),
(692,-182,o),
(692,-108,cs),
(692,35,l),
(653,35,l),
(653,-108,ls),
(653,-160,o),
(631,-175,o),
(574,-175,cs),
(555,-175,o),
(532,-173,o),
(507,-171,cs),
(474,-168,l),
(484,-154,l),
(477,-211,l)
);
}
);
};
layerId = "514A1583-697A-4C0A-B081-2869E94CF283";
shapes = (
{
closed = 1;
nodes = (
(213,0,l),
(213,469,l),
(215,469,l),
(559,42,l),
(559,-45,ls),
(559,-79,o),
(539,-93,o),
(498,-93,cs),
(485,-93,o),
(467,-92,o),
(454,-91,cs),
(439,-89,l),
(421,-189,l),
(443,-195,ls),
(473,-203,o),
(503,-209,o),
(527,-209,cs),
(633,-209,o),
(685,-161,o),
(685,-68,cs),
(685,700,l),
(555,700,l),
(555,258,l),
(553,258,l),
(197,700,l),
(83,700,l),
(83,0,l)
);
}
);
width = 768;
},
{
background = {
shapes = (
{
closed = 1;
nodes = (
(144,0,l),
(144,637,l),
(146,637,l),
(659,0,l),
(692,0,l),
(692,700,l),
(653,700,l),
(653,67,l),
(651,67,l),
(140,700,l),
(105,700,l),
(105,0,l)
);
},
{
closed = 1;
nodes = (
(456,-192,l),
(504,-202,ls),
(526,-206,o),
(548,-209,o),
(576,-209,cs),
(657,-209,o),
(692,-182,o),
(692,-108,cs),
(692,35,l),
(653,35,l),
(653,-108,ls),
(653,-160,o),
(631,-175,o),
(574,-175,cs),
(555,-175,o),
(532,-173,o),
(507,-171,cs),
(474,-168,l),
(484,-154,l),
(477,-211,l)
);
}
);
};
layerId = "5C950900-0D0F-4959-81DE-75F048290F1B";
shapes = (
{
closed = 1;
nodes = (
(276,0,l),
(276,337,l),
(278,337,l),
(525,23,l),
(525,-1,ls),
(525,-30,o),
(505,-39,o),
(474,-39,cs),
(456,-39,o),
(440,-38,o),
(427,-36,cs),
(413,-34,l),
(386,-186,l),
(411,-192,ls),
(452,-202,o),
(493,-209,o),
(538,-209,cs),
(651,-209,o),
(720,-143,o),
(720,-24,cs),
(720,700,l),
(499,700,l),
(499,391,l),
(497,391,l),
(254,700,l),
(55,700,l),
(55,0,l)
);
}
);
width = 775;
}
);
metricLeft = N;
metricRight = N;
unicode = 330;
},
{
color = 4;
glyphname = O;
kernLeft = O;
kernRight = O;
lastChange = "2021-09-30 22:26:40 +0000";
layers = (
{
anchors = (
{
name = bottom;
pos = (407,-35);
},
{
name = ogonek;
pos = (442,10);
},
{
name = top.case;
pos = (406,720);
}
);
background = {
shapes = (
{
closed = 1;
nodes = (
(614,-9,o),
(764,130,o),
(764,349,cs),
(764,568,o),
(627,709,o),
(397,709,cs),
(174,709,o),
(25,569,o),
(25,351,cs),
(25,132,o),
(161,-9,o),
(393,-9,cs)
);
},
{
closed = 1;
nodes = (
(302,196,o),
(252,228,o),
(252,349,cs),
(252,472,o),
(306,504,o),
(395,504,cs),
(487,504,o),
(536,472,o),
(536,349,cs),
(536,228,o),
(485,196,o),
(395,196,cs)
);
}
);
};
layerId = "620D8D18-E43F-4D11-9420-7EF908A5CAE8";
shapes = (
{
closed = 1;
nodes = (
(608,-10,o),
(750,140,o),
(750,350,cs),
(750,560,o),
(608,710,o),
(407,710,cs),
(207,710,o),
(65,560,o),
(65,350,cs),
(65,140,o),
(207,-10,o),
(407,-10,cs)
);
},
{
closed = 1;
nodes = (
(232,26,o),
(106,163,o),
(106,350,cs),
(106,537,o),
(232,674,o),
(407,674,cs),
(584,674,o),
(709,537,o),
(709,350,cs),
(709,163,o),
(584,26,o),
(407,26,cs)
);
}
);
width = 815;
},
{
anchors = (
{
name = bottom;
pos = (405,-35);
},
{
name = ogonek;
pos = (475,10);
},
{
name = top.case;
pos = (404,720);
}
);
background = {
shapes = (
{
closed = 1;
nodes = (
(620,-10,o),
(774,140,o),
(774,350,cs),
(774,560,o),
(620,709,o),
(404,709,cs),
(189,709,o),
(35,560,o),
(35,350,cs),
(35,140,o),
(189,-10,o),
(404,-10,cs)
);
},
{
closed = 1;
nodes = (
(319,194,o),
(262,258,o),
(262,350,cs),
(262,442,o),
(319,505,o),
(404,505,cs),
(489,505,o),
(547,442,o),
(547,350,cs),
(547,258,o),
(489,194,o),
(404,194,cs)
);
}
);
};
guides = (
{
angle = 90;
pos = (405,369);
}
);
layerId = "5C950900-0D0F-4959-81DE-75F048290F1B";
shapes = (
{
closed = 1;
nodes = (
(628,-9,o),
(775,131,o),
(775,349,cs),
(775,568,o),
(637,709,o),
(405,709,cs),
(182,709,o),
(35,569,o),
(35,351,cs),
(35,132,o),
(173,-9,o),
(405,-9,cs)
);
},
{
closed = 1;
nodes = (
(312,196,o),
(263,228,o),
(263,349,cs),
(263,472,o),
(316,504,o),
(405,504,cs),
(498,504,o),
(547,472,o),
(547,351,cs),
(547,228,o),
(494,196,o),
(405,196,cs)
);
}
);
width = 810;
},
{
anchors = (
{
name = bottom;
pos = (406,-35);
},
{
name = ogonek;
pos = (459,10);
},
{
name = top.case;
pos = (405,720);
}
);
background = {
anchors = (
{
name = bottom;
pos = (414,-35);
},
{
name = ogonek;
pos = (466,10);
},
{
name = top.case;
pos = (401,720);
}
);
shapes = (
{
closed = 1;
nodes = (
(602,-10,o),
(743,135,o),
(743,350,cs),
(743,564,o),
(608,710,o),
(401,710,cs),
(197,710,o),
(58,565,o),
(58,351,cs),
(58,136,o),
(192,-10,o),
(399,-10,cs)
);
},
{
closed = 1;
nodes = (
(274,116,o),
(193,199,o),
(193,350,cs),
(193,502,o),
(276,584,o),
(400,584,cs),
(526,584,o),
(608,502,o),
(608,350,cs),
(608,199,o),
(525,116,o),
(400,116,cs)
);
}
);
};
layerId = "514A1583-697A-4C0A-B081-2869E94CF283";
shapes = (
{
closed = 1;
nodes = (
(618,-10,o),
(763,136,o),
(763,350,cs),
(763,564,o),
(623,710,o),
(406,710,cs),
(195,710,o),
(50,565,o),
(50,351,cs),
(50,136,o),
(190,-10,o),
(406,-10,cs)
);
},
{
closed = 1;
nodes = (
(272,111,o),
(184,196,o),
(184,350,cs),
(184,505,o),
(274,589,o),
(406,589,cs),
(541,589,o),
(629,505,o),
(629,351,cs),
(629,196,o),
(539,111,o),
(406,111,cs)
);
}
);
width = 813;
}
);
unicode = 79;
},
{
glyphname = Ohorn;
lastChange = "2021-09-30 22:26:40 +0000";
layers = (
{
anchors = (
{
name = bottom;
pos = (407,-35);
},
{
name = ogonek;
pos = (442,10);
},
{
name = top.case;
pos = (406,720);
}
);
background = {
shapes = (
{
closed = 1;
nodes = (
(742,635,o),
(805,660,o),
(805,771,cs),
(805,806,o),
(792,844,o),
(769,883,c),
(835,865,l),
(710,839,l),
(756,878,l),
(763,836,o),
(769,798,o),
(769,770,cs),
(769,695,o),
(733,680,o),
(683,680,cs),
(630,680,o),
(555,710,o),
(509,710,c),
(639,654,l)
);
}
);
};
layerId = "620D8D18-E43F-4D11-9420-7EF908A5CAE8";
shapes = (
{
closed = 1;
nodes = (
(764,649,o),
(805,686,o),
(805,771,cs),
(805,798,o),
(798,826,o),
(784,855,c),
(761,850,l),
(766,819,o),
(769,791,o),
(769,770,cs),
(769,695,o),
(721,680,o),
(655,680,cs),
(584,680,o),
(485,710,o),
(423,710,c),
(584,660,l),
(620,653,o),
(651,649,o),
(678,649,cs)
);
},
{
ref = O;
}
);
width = 815;
},
{
anchors = (
{
name = bottom;
pos = (406,-35);
},
{
name = ogonek;
pos = (459,10);
},
{
name = top.case;
pos = (405,720);
}
);
background = {
shapes = (
{
closed = 1;
nodes = (
(796,589,o),
(861,622,o),
(861,736,cs),
(861,794,o),
(830,864,o),
(802,927,c),
(882,893,l),
(679,850,l),
(723,887,l),
(731,843,o),
(737,803,o),
(737,773,cs),
(737,695,o),
(701,683,o),
(664,683,cs),
(616,683,o),
(556,711,o),
(500,711,c),
(652,600,l),
(669,593,o),
(693,589,o),
(715,589,cs)
);
}
);
};
layerId = "514A1583-697A-4C0A-B081-2869E94CF283";
shapes = (
{
closed = 1;
nodes = (
(805,588,o),
(858,634,o),
(860,736,cs),
(861,780,o),
(846,831,o),
(821,879,c),
(729,860,l),
(734,826,o),
(737,796,o),
(737,772,cs),
(737,694,o),
(703,683,o),
(652,683,cs),
(590,683,o),
(503,710,o),
(423,710,c),
(634,601,l),
(659,593,o),
(688,588,o),
(716,588,cs)
);
},
{
alignment = -1;
ref = O;
}
);
width = 833;
},
{
anchors = (
{
name = bottom;
pos = (405,-35);
},
{
name = ogonek;
pos = (475,10);
},
{
name = top.case;
pos = (404,720);
}
);
background = {
shapes = (
{
closed = 1;
nodes = (
(846,557,o),
(914,629,o),
(914,751,cs),
(914,824,o),
(879,896,o),
(827,969,c),
(946,918,l),
(665,859,l),
(740,893,l),
(749,848,o),
(760,806,o),
(760,774,cs),
(760,693,o),
(718,685,o),
(685,685,cs),
(682,685,o),
(679,686,o),
(677,686,c),
(645,561,l),
(666,559,o),
(685,557,o),
(703,557,cs)
);
}
);
};
layerId = "5C950900-0D0F-4959-81DE-75F048290F1B";
shapes = (
{
closed = 1;
nodes = (
(845,566,o),
(915,615,o),
(915,742,cs),
(915,795,o),
(898,848,o),
(870,902,c),
(745,875,l),
(753,837,o),
(761,802,o),
(761,774,cs),
(761,693,o),
(706,684,o),
(663,684,cs),
(600,684,o),
(533,709,o),
(422,709,c),
(683,579,ls),
(697,572,o),
(725,566,o),
(753,566,cs)
);
},
{
ref = O;
}
);
width = 850;
}
);
metricLeft = O;
unicode = 416;
},
{
glyphname = Oslash;
kernLeft = O;
kernRight = O;
lastChange = "2021-09-30 22:26:40 +0000";
layers = (
{
background = {
shapes = (
{
closed = 1;
nodes = (
(109,-10,l),
(764,684,l),
(735,710,l),
(80,16,l)
);
}
);
};
guides = (
{
angle = 90;
pos = (750,614);
},
{
angle = 90;
pos = (70,614);
}
);
layerId = "620D8D18-E43F-4D11-9420-7EF908A5CAE8";
shapes = (
{
closed = 1;
nodes = (
(750,687,l),
(724,710,l),
(66,13,l),
(92,-10,l)
);
},
{
ref = O;
}
);
width = 815;
},
{
background = {
shapes = (
{
closed = 1;
nodes = (
(743,631,l),
(658,710,l),
(59,72,l),
(143,-8,l)
);
}
);
};
guides = (
{
angle = 90;
pos = (59,634);
},
{
angle = 90;
pos = (743,621);
}
);
layerId = "514A1583-697A-4C0A-B081-2869E94CF283";
shapes = (
{
closed = 1;
nodes = (
(743,646,l),
(674,710,l),
(59,56,l),
(128,-8,l)
);
},
{
ref = O;
}
);
width = 813;
},
{
background = {
shapes = (
{
closed = 1;
nodes = (
(775,613,l),
(679,709,l),
(35,88,l),
(132,-9,l)
);
}
);
};
guides = (
{
angle = 90;
pos = (775,631);
},
{
angle = 90;
pos = (35,655);
}
);
layerId = "5C950900-0D0F-4959-81DE-75F048290F1B";
shapes = (
{
closed = 1;
nodes = (
(775,628,l),
(695,709,l),
(35,72,l),
(116,-9,l)
);
},
{
ref = O;
}
);
width = 810;
}
);
metricLeft = O;
metricRight = O;
unicode = 216;
},
{
color = 3;
glyphname = OE;
kernLeft = O;
kernRight = E;
lastChange = "2021-09-30 22:26:40 +0000";
layers = (
{
layerId = "620D8D18-E43F-4D11-9420-7EF908A5CAE8";
shapes = (
{
closed = 1;
nodes = (
(602,-10,o),
(739,140,o),
(739,350,cs),
(739,560,o),
(602,710,o),
(407,710,cs),
(207,710,o),
(65,560,o),
(65,350,cs),
(65,140,o),
(207,-10,o),
(407,-10,cs)
);
},
{
closed = 1;
nodes = (
(232,26,o),
(106,163,o),
(106,350,cs),
(106,537,o),
(232,674,o),
(407,674,cs),
(584,674,o),
(709,537,o),
(709,350,cs),
(709,163,o),
(584,26,o),
(407,26,cs)
);
},
{
closed = 1;
nodes = (
(1184,0,l),
(1184,36,l),
(748,36,l),
(748,340,l),
(1137,340,l),
(1137,376,l),
(748,376,l),
(748,664,l),
(1177,664,l),
(1177,700,l),
(709,700,l),
(709,0,l)
);
}
);
width = 1239;
},
{
background = {
shapes = (
{
pos = (-54,0);
ref = O;
},
{
pos = (501,0);
ref = E;
}
);
};
layerId = "514A1583-697A-4C0A-B081-2869E94CF283";
shapes = (
{
closed = 1;
nodes = (
(587,-10,o),
(705,136,o),
(705,350,cs),
(705,564,o),
(591,710,o),
(390,710,cs),
(188,710,o),
(50,565,o),
(50,351,cs),
(50,136,o),
(184,-10,o),
(390,-10,cs)
);
},
{
closed = 1;
nodes = (
(266,111,o),
(184,196,o),
(184,350,cs),
(184,505,o),
(268,589,o),
(392,589,cs),
(518,589,o),
(600,505,o),
(600,351,cs),
(600,196,o),
(516,111,o),
(392,111,cs)
);
},
{
closed = 1;
nodes = (
(1101,0,l),
(1101,115,l),
(715,115,l),
(715,301,l),
(1054,301,l),
(1054,416,l),
(715,416,l),
(715,585,l),
(1094,585,l),
(1094,700,l),
(600,700,l),
(600,0,l)
);
}
);
width = 1141;
},
{
background = {
shapes = (
{
pos = (493,0);
ref = E;
}
);
};
layerId = "5C950900-0D0F-4959-81DE-75F048290F1B";
shapes = (
{
closed = 1;
nodes = (
(572,-9,o),
(670,131,o),
(670,349,cs),
(670,568,o),
(579,709,o),
(372,709,cs),
(169,709,o),
(35,569,o),
(35,351,cs),
(35,132,o),
(161,-9,o),
(372,-9,cs)
);
},
{
closed = 1;
nodes = (
(312,196,o),
(262,228,o),
(262,349,cs),
(262,472,o),
(316,504,o),
(405,504,cs),
(498,504,o),
(548,472,o),
(548,351,cs),
(548,228,o),
(494,196,o),
(405,196,cs)
);
},
{
closed = 1;
nodes = (
(1126,0,l),
(1126,192,l),
(771,192,l),
(771,272,l),
(1079,272,l),
(1079,437,l),
(771,437,l),
(771,510,l),
(1119,510,l),
(1119,700,l),
(578,700,l),
(578,0,l)
);
}
);
width = 1151;
}
);
metricLeft = O;
metricRight = E;
unicode = 338;
},
{
glyphname = P;
lastChange = "2021-09-30 22:26:40 +0000";
layers = (
{
background = {
shapes = (
{
closed = 1;
nodes = (
(150,0,l),
(150,262,l),
(372,262,ls),
(526,262,o),
(617,348,o),
(617,488,cs),
(617,628,o),
(526,700,o),
(372,700,cs),
(110,700,l),
(110,0,l)
);
},
{
closed = 1;
nodes = (
(150,664,l),
(372,664,ls),
(501,664,o),
(576,610,o),
(576,487,cs),
(576,367,o),
(501,298,o),
(372,298,cs),
(150,298,l)
);
}
);
};
layerId = "620D8D18-E43F-4D11-9420-7EF908A5CAE8";
shapes = (
{
closed = 1;
nodes = (
(144,0,l),
(144,262,l),
(367,262,ls),
(521,262,o),
(612,348,o),
(612,488,cs),
(612,628,o),
(521,700,o),
(367,700,cs),
(105,700,l),
(105,0,l)
);
},
{
closed = 1;
nodes = (
(144,664,l),
(367,664,ls),
(496,664,o),
(571,610,o),
(571,487,cs),
(571,367,o),
(496,298,o),
(367,298,cs),
(144,298,l)
);
}
);
width = 652;
},
{
background = {
shapes = (
{
closed = 1;
nodes = (
(468,0,ls),
(627,0,o),
(710,92,o),
(710,221,cs),
(710,280,o),
(678,336,o),
(625,361,c),
(625,362,l),
(673,400,o),
(692,454,o),
(692,504,cs),
(692,616,o),
(615,700,o),
(468,700,cs),
(55,700,l),
(55,0,l)
);
},
{
closed = 1;
nodes = (
(278,291,l),
(418,291,ls),
(463,291,o),
(482,273,o),
(482,232,cs),
(482,188,o),
(453,176,o),
(401,176,cs),
(278,176,l)
);
},
{
closed = 1;
nodes = (
(278,535,l),
(397,535,ls),
(452,535,o),
(474,517,o),
(474,479,cs),
(474,440,o),
(450,423,o),
(411,423,cs),
(278,423,l)
);
}
);
};
guides = (
{
pos = (235,517);
},
{
pos = (210,232);
},
{
pos = (167,379);
}
);
layerId = "5C950900-0D0F-4959-81DE-75F048290F1B";
shapes = (
{
closed = 1;
nodes = (
(278,0,l),
(278,193,l),
(422,193,ls),
(577,193,o),
(681,291,o),
(681,446,cs),
(681,598,o),
(589,700,o),
(425,700,cs),
(55,700,l),
(55,0,l)
);
},
{
closed = 1;
nodes = (
(278,517,l),
(364,517,ls),
(422,517,o),
(453,503,o),
(453,448,cs),
(453,393,o),
(422,380,o),
(364,380,cs),
(278,380,l)
);
}
);
width = 716;
},
{
associatedMasterId = "5C950900-0D0F-4959-81DE-75F048290F1B";
background = {
shapes = (
{
closed = 1;
nodes = (
(278,0,l),
(278,193,l),
(417,193,ls),
(572,193,o),
(676,291,o),
(676,446,cs),
(676,598,o),
(584,700,o),
(420,700,cs),
(55,700,l),
(55,0,l)
);
},
{
closed = 1;
nodes = (
(279,506,l),
(385,506,ls),
(429,506,o),
(453,494,o),
(453,445,cs),
(453,396,o),
(429,385,o),
(385,385,cs),
(279,385,l)
);
}
);
};
guides = (
{
pos = (235,506);
},
{
pos = (210,232);
},
{
pos = (146,446);
}
);
layerId = "40CFC262-5756-4773-AAEB-DEC0CCB14600";
name = "Mar 31 18, 23:17";
shapes = (
{
closed = 1;
nodes = (
(278,0,l),
(278,193,l),
(417,193,ls),
(571,193,o),
(676,291,o),
(676,446,cs),
(676,601,o),
(580,700,o),
(419,700,cs),
(55,700,l),
(55,0,l)
);
},
{
closed = 1;
nodes = (
(279,506,l),
(396,506,ls),
(433,506,o),
(453,494,o),
(453,445,cs),
(453,398,o),
(433,385,o),
(396,385,cs),
(279,385,l)
);
}
);
width = 711;
},
{
background = {
shapes = (
{
closed = 1;
nodes = (
(212,0,l),
(212,228,l),
(392,228,ls),
(547,228,o),
(644,320,o),
(644,467,cs),
(644,613,o),
(553,700,o),
(394,700,cs),
(80,700,l),
(80,0,l)
);
},
{
closed = 1;
nodes = (
(212,585,l),
(376,585,ls),
(463,585,o),
(512,552,o),
(512,466,cs),
(512,382,o),
(463,342,o),
(376,342,cs),
(212,342,l)
);
}
);
};
guides = (
{
pos = (133,585);
},
{
pos = (133,337);
},
{
pos = (133,223);
}
);
layerId = "514A1583-697A-4C0A-B081-2869E94CF283";
shapes = (
{
closed = 1;
nodes = (
(214,0,l),
(213,222,l),
(398,222,ls),
(548,222,o),
(643,316,o),
(643,465,cs),
(643,612,o),
(553,700,o),
(399,700,cs),
(83,700,l),
(83,0,l)
);
},
{
closed = 1;
nodes = (
(214,585,l),
(380,585,ls),
(462,585,o),
(509,551,o),
(509,463,cs),
(509,377,o),
(462,337,o),
(380,337,cs),
(214,337,l)
);
}
);
width = 678;
},
{
associatedMasterId = "620D8D18-E43F-4D11-9420-7EF908A5CAE8";
background = {
shapes = (
{
closed = 1;
nodes = (
(150,0,l),
(150,262,l),
(372,262,ls),
(526,262,o),
(617,348,o),
(617,488,cs),
(617,628,o),
(526,700,o),
(372,700,cs),
(110,700,l),
(110,0,l)
);
},
{
closed = 1;
nodes = (
(150,664,l),
(372,664,ls),
(501,664,o),
(576,610,o),
(576,487,cs),
(576,367,o),
(501,298,o),
(372,298,cs),
(150,298,l)
);
}
);
};
layerId = "A3B57E14-E012-458C-B848-A49B8F2FC8CC";
name = "Jun 15 18, 09:52";
shapes = (
{
closed = 1;
nodes = (
(150,0,l),
(150,262,l),
(372,262,ls),
(526,262,o),
(617,348,o),
(617,488,cs),
(617,628,o),
(526,700,o),
(372,700,cs),
(110,700,l),
(110,0,l)
);
},
{
closed = 1;
nodes = (
(150,664,l),
(372,664,ls),
(501,664,o),
(576,610,o),
(576,487,cs),
(576,367,o),
(501,298,o),
(372,298,cs),
(150,298,l)
);
}
);
width = 662;
}
);
metricLeft = H;
unicode = 80;
},
{
color = 3;
glyphname = Thorn;
lastChange = "2021-09-30 22:26:40 +0000";
layers = (
{
layerId = "620D8D18-E43F-4D11-9420-7EF908A5CAE8";
shapes = (
{
closed = 1;
nodes = (
(144,0,l),
(144,154,l),
(367,154,ls),
(521,154,o),
(612,240,o),
(612,380,cs),
(612,520,o),
(521,592,o),
(367,592,cs),
(144,592,l),
(144,700,l),
(105,700,l),
(105,0,l)
);
},
{
closed = 1;
nodes = (
(144,556,l),
(367,556,ls),
(496,556,o),
(571,502,o),
(571,379,cs),
(571,259,o),
(496,190,o),
(367,190,cs),
(144,190,l)
);
}
);
width = 652;
},
{
background = {
shapes = (
{
pos = (0,-101);
ref = P;
}
);
};
guides = (
{
pos = (214,484);
}
);
layerId = "514A1583-697A-4C0A-B081-2869E94CF283";
shapes = (
{
closed = 1;
nodes = (
(214,0,l),
(214,121,l),
(373,121,ls),
(528,121,o),
(625,214,o),
(625,363,cs),
(625,510,o),
(534,599,o),
(375,599,cs),
(214,599,l),
(214,700,l),
(83,700,l),
(83,0,l)
);
},
{
closed = 1;
nodes = (
(214,484,l),
(355,484,ls),
(442,484,o),
(491,449,o),
(491,362,cs),
(491,276,o),
(442,236,o),
(355,236,cs),
(214,236,l)
);
}
);
width = 660;
},
{
background = {
shapes = (
{
pos = (0,-86);
ref = P;
}
);
};
layerId = "5C950900-0D0F-4959-81DE-75F048290F1B";
shapes = (
{
closed = 1;
nodes = (
(278,0,l),
(278,107,l),
(417,107,ls),
(576,107,o),
(681,204,o),
(681,360,cs),
(681,513,o),
(588,614,o),
(420,614,cs),
(278,614,l),
(278,700,l),
(55,700,l),
(55,0,l)
);
},
{
closed = 1;
nodes = (
(278,431,l),
(366,431,ls),
(423,431,o),
(453,418,o),
(453,363,cs),
(453,307,o),
(423,294,o),
(366,294,cs),
(278,294,l)
);
}
);
width = 716;
}
);
metricLeft = H;
metricRight = P;
unicode = 222;
},
{
color = 0;
glyphname = Q;
kernLeft = O;
kernRight = O;
lastChange = "2021-09-30 22:26:40 +0000";
layers = (
{
background = {
shapes = (
{
closed = 1;
nodes = (
(797,-24,l),
(330,497,l),
(301,471,l),
(768,-51,l)
);
}
);
};
guides = (
{
angle = 90;
pos = (755,645);
}
);
layerId = "620D8D18-E43F-4D11-9420-7EF908A5CAE8";
shapes = (
{
closed = 1;
nodes = (
(760,14,l),
(487,316,l),
(458,293,l),
(733,-10,l)
);
},
{
ref = O;
}
);
width = 825;
},
{
background = {
shapes = (
{
closed = 1;
nodes = (
(773,76,l),
(458,360,l),
(380,278,l),
(700,-9,l)
);
}
);
};
guides = (
{
angle = 90;
pos = (773,241);
}
);
layerId = "5C950900-0D0F-4959-81DE-75F048290F1B";
shapes = (
{
closed = 1;
nodes = (
(773,75,l),
(458,360,l),
(380,278,l),
(695,-9,l)
);
},
{
ref = O;
}
);
width = 810;
},
{
background = {
shapes = (
{
closed = 1;
nodes = (
(761,72,l),
(467,352,l),
(387,274,l),
(683,-8,l)
);
}
);
};
guides = (
{
angle = 90;
pos = (761,238);
}
);
layerId = "514A1583-697A-4C0A-B081-2869E94CF283";
shapes = (
{
closed = 1;
nodes = (
(761,70,l),
(467,352,l),
(387,274,l),
(683,-8,l)
);
},
{
alignment = -1;
ref = O;
}
);
width = 813;
},
{
associatedMasterId = "514A1583-697A-4C0A-B081-2869E94CF283";
background = {
shapes = (
{
closed = 0;
nodes = (
(664,-8,l),
(378,285,l)
);
}
);
};
guides = (
{
angle = 90;
pos = (744,238);
}
);
layerId = "536BE7A0-F7E6-4A1E-9408-F87C4F5D70F2";
name = "Jun 17 18, 12:18";
shapes = (
{
closed = 1;
nodes = (
(744,0,l),
(485,360,l),
(334,361,l),
(607,0,l)
);
},
{
alignment = -1;
ref = O;
}
);
width = 802;
}
);
metricLeft = O;
metricRight = O;
unicode = 81;
},
{
glyphname = R;
kernRight = R;
lastChange = "2021-09-30 22:26:40 +0000";
layers = (
{
anchors = (
{
name = bottom;
pos = (354,-35);
},
{
name = top.case;
pos = (354,720);
}
);
background = {
shapes = (
{
closed = 1;
nodes = (
(105,0,l),
(178,0,l),
(178,297,l),
(404,297,l),
(563,0,l),
(647,0,l),
(480,309,l),
(526,324,o),
(562,348,o),
(588,381,cs),
(614,414,o),
(628,455,o),
(628,502,cs),
(628,563,o),
(608,611,o),
(567,646,cs),
(526,681,o),
(471,700,o),
(403,700,cs),
(105,700,l)
);
},
{
closed = 1;
nodes = (
(178,366,l),
(178,631,l),
(401,631,ls),
(447,631,o),
(483,619,o),
(510,595,cs),
(538,570,o),
(550,538,o),
(550,497,cs),
(550,458,o),
(537,426,o),
(511,402,cs),
(485,378,o),
(449,366,o),
(404,366,cs)
);
}
);
};
guides = (
{
angle = 90;
pos = (539,501);
},
{
pos = (251,297);
},
{
pos = (144,343);
}
);
layerId = "620D8D18-E43F-4D11-9420-7EF908A5CAE8";
shapes = (
{
closed = 1;
nodes = (
(144,0,l),
(144,307,l),
(382,307,ls),
(563,307,o),
(630,398,o),
(630,511,cs),
(630,636,o),
(535,700,o),
(390,700,cs),
(105,700,l),
(105,0,l)
);
},
{
closed = 1;
nodes = (
(663,0,l),
(448,327,l),
(410,313,l),
(616,0,l)
);
},
{
closed = 1;
nodes = (
(144,664,l),
(387,664,ls),
(515,664,o),
(589,614,o),
(589,512,cs),
(589,403,o),
(516,343,o),
(392,343,cs),
(144,343,l)
);
}
);
width = 713;
},
{
anchors = (
{
name = bottom;
pos = (380,-35);
},
{
name = top.case;
pos = (352,720);
}
);
background = {
shapes = (
{
closed = 1;
nodes = (
(278,0,l),
(278,216,l),
(318,216,ls),
(515,216,o),
(683,268,o),
(683,458,cs),
(683,605,o),
(583,700,o),
(425,700,cs),
(55,700,l),
(55,0,l)
);
},
{
closed = 1;
nodes = (
(722,0,l),
(553,286,l),
(343,249,l),
(477,0,l)
);
},
{
closed = 1;
nodes = (
(278,505,l),
(402,505,ls),
(446,505,o),
(464,489,o),
(464,444,cs),
(464,401,o),
(444,382,o),
(402,382,cs),
(278,382,l)
);
}
);
};
guides = (
{
pos = (278,225);
},
{
pos = (278,384);
},
{
pos = (278,516);
}
);
layerId = "5C950900-0D0F-4959-81DE-75F048290F1B";
shapes = (
{
closed = 1;
nodes = (
(278,0,l),
(278,235,l),
(360,235,ls),
(515,235,o),
(683,285,o),
(683,468,cs),
(683,609,o),
(583,700,o),
(425,700,cs),
(55,700,l),
(55,0,l)
);
},
{
closed = 1;
nodes = (
(722,0,l),
(553,286,l),
(343,249,l),
(477,0,l)
);
},
{
closed = 1;
nodes = (
(278,516,l),
(375,516,ls),
(438,516,o),
(464,498,o),
(464,451,cs),
(464,405,o),
(436,384,o),
(375,384,cs),
(278,384,l)
);
}
);
width = 732;
},
{
anchors = (
{
name = bottom;
pos = (370,-35);
},
{
name = top.case;
pos = (356,720);
}
);
background = {
shapes = (
{
closed = 1;
nodes = (
(214,0,l),
(214,271,l),
(359,271,ls),
(527,271,o),
(645,342,o),
(645,490,cs),
(645,623,o),
(547,700,o),
(396,700,cs),
(83,700,l),
(83,0,l)
);
},
{
closed = 1;
nodes = (
(681,0,l),
(489,307,l),
(365,281,l),
(535,0,l)
);
},
{
closed = 1;
nodes = (
(214,585,l),
(383,585,ls),
(469,585,o),
(515,552,o),
(515,480,cs),
(515,406,o),
(468,367,o),
(385,367,cs),
(214,367,l)
);
}
);
};
guides = (
{
pos = (151,576);
},
{
pos = (151,375);
},
{
pos = (144,252);
}
);
layerId = "514A1583-697A-4C0A-B081-2869E94CF283";
shapes = (
{
closed = 1;
nodes = (
(214,0,l),
(214,260,l),
(359,260,ls),
(527,260,o),
(645,333,o),
(645,485,cs),
(645,621,o),
(547,700,o),
(396,700,cs),
(83,700,l),
(83,0,l)
);
},
{
closed = 1;
nodes = (
(681,0,l),
(489,307,l),
(365,281,l),
(535,0,l)
);
},
{
closed = 1;
nodes = (
(214,585,l),
(383,585,ls),
(467,585,o),
(513,553,o),
(513,484,cs),
(513,413,o),
(466,375,o),
(385,375,cs),
(214,375,l)
);
}
);
width = 701;
}
);
metricLeft = H;
unicode = 82;
},
{
glyphname = S;
kernLeft = S;
kernRight = S;
lastChange = "2021-09-30 22:26:40 +0000";
layers = (
{
anchors = (
{
name = bottom;
pos = (297,-35);
},
{
name = top.case;
pos = (317,720);
}
);
background = {
shapes = (
{
closed = 1;
nodes = (
(439,-10,o),
(549,47,o),
(549,184,cs),
(549,290,o),
(482,333,o),
(313,382,cs),
(147,431,o),
(105,451,o),
(105,528,cs),
(105,529,ls),
(105,621,o),
(182,674,o),
(309,674,cs),
(368,674,o),
(426,665,o),
(489,650,cs),
(538,638,l),
(516,627,l),
(531,685,l),
(546,667,l),
(498,681,ls),
(437,699,o),
(371,710,o),
(313,710,cs),
(177,710,o),
(66,656,o),
(66,527,cs),
(66,426,o),
(128,395,o),
(299,345,cs),
(465,296,o),
(509,258,o),
(509,182,cs),
(509,180,ls),
(509,80,o),
(433,26,o),
(299,26,cs),
(247,26,o),
(175,33,o),
(121,47,cs),
(42,67,l),
(76,98,l),
(50,16,l),
(29,37,l),
(113,13,ls),
(152,2,o),
(216,-10,o),
(298,-10,cs)
);
}
);
};
guides = (
{
angle = 90;
pos = (61,334);
},
{
angle = 90;
pos = (540,385);
}
);
layerId = "620D8D18-E43F-4D11-9420-7EF908A5CAE8";
shapes = (
{
closed = 1;
nodes = (
(439,-10,o),
(549,47,o),
(549,184,cs),
(549,290,o),
(482,333,o),
(313,382,cs),
(147,431,o),
(105,451,o),
(105,528,cs),
(105,621,o),
(182,674,o),
(309,674,cs),
(368,674,o),
(426,665,o),
(489,650,cs),
(520,642,l),
(528,672,l),
(498,681,ls),
(437,699,o),
(371,710,o),
(313,710,cs),
(177,710,o),
(66,656,o),
(66,527,cs),
(66,426,o),
(128,395,o),
(299,345,cs),
(465,296,o),
(509,258,o),
(509,182,cs),
(509,81,o),
(435,26,o),
(299,26,cs),
(247,26,o),
(175,33,o),
(121,47,cs),
(64,61,l),
(54,30,l),
(113,13,ls),
(152,2,o),
(216,-10,o),
(298,-10,cs)
);
}
);
width = 604;
},
{
anchors = (
{
name = bottom;
pos = (315,-35);
},
{
name = top.case;
pos = (371,720);
}
);
background = {
shapes = (
{
closed = 1;
nodes = (
(487,-9,o),
(621,68,o),
(621,234,cs),
(621,338,o),
(573,401,o),
(412,440,cs),
(296,469,o),
(287,475,o),
(287,488,cs),
(287,492,ls),
(287,507,o),
(307,516,o),
(381,516,cs),
(418,516,o),
(458,514,o),
(484,511,cs),
(641,495,l),
(565,421,l),
(617,711,l),
(697,648,l),
(555,684,ls),
(491,700,o),
(424,709,o),
(363,709,cs),
(188,709,o),
(60,644,o),
(60,486,cs),
(60,360,o),
(113,311,o),
(278,261,cs),
(383,229,o),
(386,222,o),
(386,209,cs),
(386,208,ls),
(386,196,o),
(369,187,o),
(313,187,cs),
(262,187,o),
(197,193,o),
(153,199,cs),
(-25,222,l),
(83,291,l),
(24,0,l),
(-13,52,l),
(94,23,ls),
(173,2,o),
(245,-9,o),
(315,-9,cs)
);
}
);
};
layerId = "5C950900-0D0F-4959-81DE-75F048290F1B";
shapes = (
{
closed = 1;
nodes = (
(487,-9,o),
(621,68,o),
(621,234,cs),
(621,338,o),
(573,401,o),
(412,440,cs),
(296,469,o),
(287,475,o),
(287,490,cs),
(287,509,o),
(307,516,o),
(356,516,cs),
(418,516,o),
(458,514,o),
(484,511,cs),
(579,501,l),
(610,670,l),
(555,684,ls),
(491,700,o),
(424,709,o),
(363,709,cs),
(188,709,o),
(60,644,o),
(60,486,cs),
(60,360,o),
(113,311,o),
(278,261,cs),
(383,229,o),
(386,222,o),
(386,208,cs),
(386,196,o),
(373,187,o),
(330,187,cs),
(262,187,o),
(197,193,o),
(153,199,cs),
(67,210,l),
(32,40,l),
(94,23,ls),
(173,2,o),
(245,-9,o),
(315,-9,cs)
);
}
);
width = 660;
},
{
anchors = (
{
name = bottom;
pos = (306,-35);
},
{
name = top.case;
pos = (341,720);
}
);
background = {
anchors = (
{
name = bottom;
pos = (312,-35);
},
{
name = top.case;
pos = (329,720);
}
);
shapes = (
{
closed = 1;
nodes = (
(470,-10,o),
(577,63,o),
(577,215,cs),
(577,313,o),
(528,368,o),
(364,414,cs),
(225,453,o),
(199,467,o),
(199,510,cs),
(199,511,ls),
(199,564,o),
(243,591,o),
(344,591,cs),
(396,591,o),
(449,585,o),
(498,578,cs),
(581,565,l),
(534,524,l),
(567,698,l),
(606,661,l),
(519,684,ls),
(462,699,o),
(396,710,o),
(327,710,cs),
(181,710,o),
(62,652,o),
(66,507,cs),
(69,390,o),
(121,349,o),
(284,300,cs),
(418,260,o),
(442,240,o),
(442,198,cs),
(442,196,ls),
(442,140,o),
(399,111,o),
(302,111,cs),
(251,111,o),
(185,118,o),
(117,131,cs),
(12,151,l),
(79,195,l),
(41,8,l),
(14,46,l),
(94,21,ls),
(173,-3,o),
(238,-10,o),
(309,-10,cs)
);
}
);
};
guides = (
{
pos = (248,414);
},
{
pos = (203,301);
}
);
layerId = "514A1583-697A-4C0A-B081-2869E94CF283";
shapes = (
{
closed = 1;
nodes = (
(463,-10,o),
(585,58,o),
(585,209,cs),
(585,314,o),
(528,367,o),
(363,411,cs),
(222,450,o),
(196,463,o),
(196,508,cs),
(196,566,o),
(246,595,o),
(345,595,cs),
(393,595,o),
(446,587,o),
(491,581,cs),
(550,573,l),
(569,672,l),
(527,683,ls),
(464,700,o),
(398,710,o),
(338,710,cs),
(183,710,o),
(63,650,o),
(63,507,cs),
(63,393,o),
(121,353,o),
(289,303,cs),
(424,263,o),
(448,240,o),
(448,196,cs),
(448,137,o),
(400,107,o),
(306,107,cs),
(255,107,o),
(186,113,o),
(137,123,cs),
(65,135,l),
(44,35,l),
(104,18,ls),
(163,2,o),
(231,-10,o),
(307,-10,cs)
);
}
);
width = 632;
}
);
unicode = 83;
},
{
glyphname = Germandbls;
lastChange = "2021-09-30 22:26:40 +0000";
layers = (
{
background = {
shapes = (
{
closed = 1;
nodes = (
(527,658,l),
(463,690,o),
(391,710,o),
(322,710,cs),
(205,710,o),
(100,651,o),
(100,507,cs),
(100,0,l),
(139,0,l),
(139,507,ls),
(139,624,o),
(222,674,o),
(323,674,cs),
(382,674,o),
(448,658,o),
(506,631,c),
(501,657,l),
(297,373,l),
(297,349,l),
(353,349,ls),
(498,349,o),
(563,289,o),
(563,192,cs),
(563,83,o),
(495,27,o),
(363,27,cs),
(331,27,o),
(291,30,o),
(258,36,cs),
(201,46,l),
(229,59,l),
(214,-5,l),
(204,15,l),
(248,2,ls),
(282,-8,o),
(328,-10,o),
(363,-10,cs),
(509,-10,o),
(604,69,o),
(604,190,cs),
(604,310,o),
(528,385,o),
(356,385,cs),
(318,385,l),
(341,371,l),
(527,633,l)
);
}
);
};
layerId = "620D8D18-E43F-4D11-9420-7EF908A5CAE8";
shapes = (
{
closed = 1;
nodes = (
(587,-10,o),
(682,69,o),
(682,190,cs),
(682,310,o),
(606,385,o),
(429,385,c),
(605,633,l),
(605,658,l),
(536,692,o),
(455,710,o),
(379,710,cs),
(232,710,o),
(100,645,o),
(100,507,cs),
(100,0,l),
(139,0,l),
(139,507,ls),
(139,622,o),
(254,674,o),
(382,674,cs),
(444,674,o),
(509,663,o),
(566,639,c),
(375,373,l),
(375,349,l),
(431,349,ls),
(576,349,o),
(641,289,o),
(641,192,cs),
(641,83,o),
(573,27,o),
(441,27,cs),
(409,27,o),
(369,30,o),
(336,36,cs),
(303,42,l),
(296,11,l),
(326,2,ls),
(360,-8,o),
(406,-10,o),
(441,-10,cs)
);
}
);
width = 722;
},
{
background = {
shapes = (
{
closed = 1;
nodes = (
(616,-10,o),
(704,83,o),
(704,197,cs),
(704,323,o),
(610,404,o),
(450,404,cs),
(431,404,l),
(491,367,l),
(625,591,l),
(625,654,l),
(553,691,o),
(462,710,o),
(379,710,cs),
(205,710,o),
(54,645,o),
(54,484,cs),
(54,0,l),
(185,0,l),
(185,465,ls),
(185,554,o),
(268,593,o),
(367,593,cs),
(419,593,o),
(474,582,o),
(519,559,c),
(504,638,l),
(359,394,l),
(359,305,l),
(431,305,ls),
(528,305,o),
(568,268,o),
(568,208,cs),
(568,138,o),
(519,103,o),
(431,103,cs),
(403,103,o),
(367,109,o),
(342,113,cs),
(286,123,l),
(308,135,l),
(283,-2,l),
(273,25,l),
(323,10,ls),
(367,-3,o),
(410,-10,o),
(459,-10,cs)
);
}
);
};
layerId = "514A1583-697A-4C0A-B081-2869E94CF283";
shapes = (
{
closed = 1;
nodes = (
(615,-10,o),
(702,83,o),
(702,197,cs),
(702,306,o),
(632,382,o),
(511,400,c),
(624,591,l),
(624,654,l),
(553,691,o),
(464,710,o),
(382,710,cs),
(211,710,o),
(63,645,o),
(63,484,cs),
(63,0,l),
(194,0,l),
(194,465,ls),
(194,554,o),
(273,593,o),
(370,593,cs),
(403,593,o),
(438,588,o),
(470,579,c),
(363,400,l),
(363,305,l),
(434,305,ls),
(529,305,o),
(568,268,o),
(568,208,cs),
(568,138,o),
(520,103,o),
(434,103,cs),
(407,103,o),
(369,108,o),
(346,113,cs),
(310,119,l),
(292,21,l),
(327,10,ls),
(370,-4,o),
(413,-10,o),
(461,-10,cs)
);
}
);
width = 727;
},
{
background = {
shapes = (
{
closed = 1;
nodes = (
(667,-9,o),
(748,96,o),
(748,204,cs),
(748,322,o),
(679,400,o),
(510,400,c),
(542,362,l),
(667,548,l),
(667,649,l),
(589,689,o),
(495,709,o),
(405,709,cs),
(206,709,o),
(45,644,o),
(45,461,cs),
(45,0,l),
(268,0,l),
(268,441,ls),
(268,504,o),
(319,530,o),
(389,530,cs),
(425,530,o),
(462,517,o),
(491,492,c),
(502,605,l),
(365,398,l),
(365,284,l),
(461,284,ls),
(519,284,o),
(536,261,o),
(536,228,cs),
(536,185,o),
(501,165,o),
(452,165,cs),
(427,165,o),
(394,171,o),
(374,174,cs),
(315,184,l),
(338,210,l),
(302,2,l),
(287,34,l),
(342,17,ls),
(396,0,o),
(437,-9,o),
(500,-9,cs)
);
}
);
};
guides = (
{
angle = 90;
pos = (627,703);
}
);
layerId = "5C950900-0D0F-4959-81DE-75F048290F1B";
shapes = (
{
closed = 1;
nodes = (
(682,-9,o),
(763,96,o),
(763,204,cs),
(763,308,o),
(709,381,o),
(581,397,c),
(682,548,l),
(682,649,l),
(608,689,o),
(506,709,o),
(417,709,cs),
(215,709,o),
(45,644,o),
(45,461,cs),
(45,0,l),
(268,0,l),
(268,441,ls),
(268,504,o),
(319,530,o),
(389,530,cs),
(413,530,o),
(437,526,o),
(460,518,c),
(380,398,l),
(380,284,l),
(476,284,ls),
(534,284,o),
(551,261,o),
(551,228,cs),
(551,185,o),
(516,165,o),
(467,165,cs),
(442,165,o),
(409,171,o),
(389,174,cs),
(348,181,l),
(321,28,l),
(357,17,ls),
(411,0,o),
(452,-9,o),
(515,-9,cs)
);
}
);
width = 773;
}
);
unicode = 7838;
},
{
color = 4;
glyphname = T;
kernLeft = T;
kernRight = T;
lastChange = "2021-09-30 22:26:40 +0000";
layers = (
{
anchors = (
{
name = bottom;
pos = (322,-35);
},
{
name = top.case;
pos = (321,720);
}
);
layerId = "620D8D18-E43F-4D11-9420-7EF908A5CAE8";
shapes = (
{
closed = 1;
nodes = (
(341,0,l),
(341,664,l),
(612,664,l),
(612,700,l),
(30,700,l),
(30,664,l),
(302,664,l),
(302,0,l)
);
}
);
width = 642;
},
{
anchors = (
{
name = bottom;
pos = (345,-35);
},
{
name = top.case;
pos = (345,720);
}
);
layerId = "5C950900-0D0F-4959-81DE-75F048290F1B";
shapes = (
{
closed = 1;
nodes = (
(457,0,l),
(457,505,l),
(665,505,l),
(665,700,l),
(25,700,l),
(25,505,l),
(234,505,l),
(234,0,l)
);
}
);
width = 690;
},
{
anchors = (
{
name = bottom;
pos = (346,-35);
},
{
name = top.case;
pos = (336,720);
}
);
background = {
shapes = (
{
closed = 1;
nodes = (
(402,0,l),
(402,580,l),
(642,580,l),
(642,700,l),
(31,700,l),
(31,580,l),
(271,580,l),
(271,0,l)
);
}
);
};
layerId = "514A1583-697A-4C0A-B081-2869E94CF283";
shapes = (
{
closed = 1;
nodes = (
(402,0,l),
(402,585,l),
(641,585,l),
(641,700,l),
(30,700,l),
(30,585,l),
(271,585,l),
(271,0,l)
);
}
);
width = 671;
}
);
unicode = 84;
},
{
color = 3;
glyphname = Tbar;
kernLeft = T;
kernRight = T;
lastChange = "2021-09-30 22:26:40 +0000";
layers = (
{
layerId = "620D8D18-E43F-4D11-9420-7EF908A5CAE8";
shapes = (
{
closed = 1;
nodes = (
(505,350,l),
(505,386,l),
(137,386,l),
(137,350,l)
);
},
{
ref = T;
}
);
width = 642;
},
{
layerId = "514A1583-697A-4C0A-B081-2869E94CF283";
shapes = (
{
closed = 1;
nodes = (
(553,294,l),
(553,382,l),
(119,382,l),
(119,294,l)
);
},
{
alignment = -1;
ref = T;
}
);
width = 671;
},
{
layerId = "5C950900-0D0F-4959-81DE-75F048290F1B";
shapes = (
{
closed = 1;
nodes = (
(597,250,l),
(597,368,l),
(94,368,l),
(94,250,l)
);
},
{
ref = T;
}
);
width = 690;
}
);
metricLeft = T;
metricRight = T;
unicode = 358;
},
{
glyphname = U;
kernLeft = U;
kernRight = U;
lastChange = "2021-09-30 22:26:40 +0000";
layers = (
{
anchors = (
{
name = bottom;
pos = (366,-35);
},
{
name = ogonek;
pos = (405,10);
},
{
name = top.case;
pos = (365,720);
}
);
background = {
shapes = (
{
closed = 1;
nodes = (
(144,0,l),
(144,346,l),
(616,346,l),
(616,0,l),
(655,0,l),
(655,700,l),
(616,700,l),
(616,382,l),
(144,382,l),
(144,700,l),
(105,700,l),
(105,0,l)
);
}
);
};
layerId = "620D8D18-E43F-4D11-9420-7EF908A5CAE8";
shapes = (
{
closed = 1;
nodes = (
(532,-10,o),
(640,76,o),
(640,274,cs),
(640,700,l),
(603,700,l),
(603,285,ls),
(603,100,o),
(517,26,o),
(366,26,cs),
(218,26,o),
(129,100,o),
(129,285,cs),
(129,700,l),
(90,700,l),
(90,274,ls),
(90,75,o),
(200,-10,o),
(366,-10,cs)
);
}
);
width = 730;
},
{
anchors = (
{
name = bottom;
pos = (379,-35);
},
{
name = ogonek;
pos = (429,10);
},
{
name = top.case;
pos = (380,720);
}
);
background = {
shapes = (
{
closed = 1;
nodes = (
(633,-9,o),
(780,131,o),
(780,349,cs),
(780,568,o),
(642,709,o),
(410,709,cs),
(187,709,o),
(40,569,o),
(40,351,cs),
(40,132,o),
(178,-9,o),
(410,-9,cs)
);
},
{
closed = 1;
nodes = (
(317,196,o),
(267,228,o),
(267,349,cs),
(267,472,o),
(321,504,o),
(410,504,cs),
(503,504,o),
(553,472,o),
(553,351,cs),
(553,228,o),
(499,196,o),
(410,196,cs)
);
}
);
};
guides = (
{
pos = (582,286);
}
);
layerId = "5C950900-0D0F-4959-81DE-75F048290F1B";
shapes = (
{
closed = 1;
nodes = (
(583,-9,o),
(721,106,o),
(721,286,cs),
(721,700,l),
(505,700,l),
(505,315,ls),
(505,223,o),
(463,198,o),
(386,198,cs),
(307,198,o),
(263,223,o),
(263,315,cs),
(263,700,l),
(40,700,l),
(40,286,ls),
(40,106,o),
(166,-9,o),
(379,-9,cs)
);
}
);
width = 761;
},
{
anchors = (
{
name = bottom;
pos = (370,-35);
},
{
name = ogonek;
pos = (415,10);
},
{
name = top.case;
pos = (370,720);
}
);
background = {
shapes = (
{
closed = 1;
nodes = (
(539,-10,o),
(657,91,o),
(657,280,cs),
(657,700,l),
(530,700,l),
(530,301,ls),
(530,164,o),
(470,116,o),
(364,116,cs),
(259,116,o),
(196,164,o),
(196,301,cs),
(196,700,l),
(65,700,l),
(65,280,ls),
(65,91,o),
(179,-10,o),
(361,-10,cs)
);
}
);
};
guides = (
{
pos = (261,116);
}
);
layerId = "514A1583-697A-4C0A-B081-2869E94CF283";
shapes = (
{
closed = 1;
nodes = (
(555,-10,o),
(678,91,o),
(678,280,cs),
(678,700,l),
(552,700,l),
(552,302,ls),
(552,163,o),
(488,114,o),
(374,114,cs),
(260,114,o),
(194,163,o),
(194,302,cs),
(194,700,l),
(63,700,l),
(63,280,ls),
(63,91,o),
(181,-10,o),
(370,-10,cs)
);
}
);
width = 741;
}
);
unicode = 85;
},
{
glyphname = Uhorn;
lastChange = "2021-09-30 22:26:40 +0000";
layers = (
{
anchors = (
{
name = bottom;
pos = (366,-35);
},
{
name = ogonek;
pos = (405,10);
},
{
name = top.case;
pos = (365,720);
}
);
background = {
shapes = (
{
closed = 1;
nodes = (
(801,635,o),
(864,660,o),
(864,771,cs),
(864,806,o),
(851,844,o),
(828,883,c),
(894,865,l),
(769,839,l),
(815,878,l),
(822,836,o),
(828,798,o),
(828,770,cs),
(828,674,o),
(769,674,o),
(698,684,c),
(698,654,l)
);
}
);
};
layerId = "620D8D18-E43F-4D11-9420-7EF908A5CAE8";
shapes = (
{
closed = 1;
nodes = (
(823,648,o),
(864,682,o),
(864,771,cs),
(864,798,o),
(857,826,o),
(843,854,c),
(820,850,l),
(824,819,o),
(828,791,o),
(828,770,cs),
(828,697,o),
(794,680,o),
(747,680,cs),
(714,680,o),
(677,690,o),
(640,700,c),
(633,668,l),
(676,655,o),
(717,648,o),
(754,648,cs)
);
},
{
ref = U;
}
);
width = 730;
},
{
anchors = (
{
name = bottom;
pos = (370,-35);
},
{
name = ogonek;
pos = (415,10);
},
{
name = top.case;
pos = (370,720);
}
);
background = {
shapes = (
{
closed = 1;
nodes = (
(870,582,o),
(925,624,o),
(925,736,cs),
(925,799,o),
(894,875,o),
(857,936,c),
(956,903,l),
(753,861,l),
(783,916,l),
(795,852,o),
(801,820,o),
(801,790,cs),
(801,714,o),
(774,692,o),
(732,692,cs),
(724,692,o),
(714,694,o),
(705,695,c),
(700,588,l),
(723,585,o),
(744,582,o),
(779,582,cs)
);
}
);
};
layerId = "514A1583-697A-4C0A-B081-2869E94CF283";
shapes = (
{
closed = 1;
nodes = (
(859,582,o),
(925,612,o),
(925,731,cs),
(925,779,o),
(909,836,o),
(884,887,c),
(792,867,l),
(798,832,o),
(800,802,o),
(800,776,cs),
(800,716,o),
(769,692,o),
(736,692,cs),
(717,692,o),
(701,695,o),
(678,700,c),
(658,600,l),
(689,588,o),
(728,582,o),
(764,582,cs)
);
},
{
alignment = -1;
ref = U;
}
);
width = 813;
},
{
anchors = (
{
name = bottom;
pos = (374,-35);
},
{
name = ogonek;
pos = (424,10);
},
{
name = top.case;
pos = (375,720);
}
);
background = {
shapes = (
{
closed = 1;
nodes = (
(916,556,o),
(984,628,o),
(984,750,cs),
(984,823,o),
(950,895,o),
(897,968,c),
(1016,917,l),
(735,858,l),
(810,892,l),
(819,847,o),
(830,805,o),
(830,773,cs),
(830,692,o),
(788,684,o),
(755,684,cs),
(752,684,o),
(749,685,o),
(747,685,c),
(715,560,l),
(736,558,o),
(755,556,o),
(773,556,cs)
);
}
);
};
layerId = "5C950900-0D0F-4959-81DE-75F048290F1B";
shapes = (
{
closed = 1;
nodes = (
(894,557,o),
(985,609,o),
(985,745,cs),
(985,800,o),
(968,851,o),
(940,902,c),
(815,875,l),
(823,837,o),
(831,802,o),
(831,774,cs),
(831,714,o),
(808,693,o),
(764,694,cs),
(750,694,o),
(734,696,o),
(716,700,c),
(683,572,l),
(701,563,o),
(738,557,o),
(774,557,cs)
);
},
{
ref = U;
}
);
width = 895;
}
);
metricLeft = U;
unicode = 431;
},
{
glyphname = V;
lastChange = "2021-09-30 23:32:25 +0000";
layers = (
{
background = {
shapes = (
{
closed = 1;
nodes = (
(350,-5,l),
(640,700,l),
(598,700,l),
(327,34,l),
(325,34,l),
(54,700,l),
(10,700,l),
(299,-5,l)
);
}
);
};
guides = (
{
pos = (425,23);
}
);
layerId = "620D8D18-E43F-4D11-9420-7EF908A5CAE8";
shapes = (
{
closed = 1;
nodes = (
(354,-5,l),
(640,700,l),
(598,700,l),
(327,23,l),
(325,23,l),
(54,700,l),
(10,700,l),
(295,-5,l)
);
}
);
width = 650;
},
{
background = {
shapes = (
{
closed = 1;
nodes = (
(564,700,l),
(419,227,l),
(416,227,l),
(272,700,l),
(38,700,l),
(290,0,l),
(539,0,l),
(793,700,l)
);
},
{
closed = 1;
nodes = (
(269,602,l),
(269,439,l),
(565,439,l),
(565,602,l)
);
}
);
};
layerId = "5C950900-0D0F-4959-81DE-75F048290F1B";
shapes = (
{
closed = 1;
nodes = (
(534,0,l),
(808,700,l),
(564,700,l),
(419,247,l),
(415,247,l),
(262,700,l),
(20,700,l),
(287,0,l)
);
}
);
width = 828;
},
{
background = {
shapes = (
{
closed = 1;
nodes = (
(444,-3,l),
(726,700,l),
(583,700,l),
(375,141,l),
(372,141,l),
(160,700,l),
(17,700,l),
(295,-3,l)
);
}
);
};
layerId = "514A1583-697A-4C0A-B081-2869E94CF283";
shapes = (
{
closed = 1;
nodes = (
(438,-6,l),
(724,700,l),
(582,700,l),
(375,163,l),
(372,163,l),
(160,700,l),
(15,700,l),
(300,-6,l)
);
}
);
width = 739;
}
);
metricLeft = "=A+5";
metricRight = "=A+5";
unicode = 86;
},
{
glyphname = W;
kernLeft = W;
kernRight = W;
lastChange = "2021-09-30 22:26:40 +0000";
layers = (
{
anchors = (
{
name = top.case;
pos = (527,720);
}
);
background = {
shapes = (
{
closed = 1;
nodes = (
(316,-5,l),
(526,647,l),
(535,647,l),
(515,686,l),
(733,-5,l),
(768,-5,l),
(1015,700,l),
(977,700,l),
(753,48,l),
(730,48,l),
(762,13,l),
(548,700,l),
(508,700,l),
(298,48,l),
(285,48,l),
(311,9,l),
(76,700,l),
(35,700,l),
(280,-5,l)
);
}
);
};
guides = (
{
pos = (427,23);
}
);
layerId = "620D8D18-E43F-4D11-9420-7EF908A5CAE8";
shapes = (
{
closed = 1;
nodes = (
(325,-5,l),
(525,671,l),
(527,671,l),
(725,-5,l),
(776,-5,l),
(1015,700,l),
(977,700,l),
(753,23,l),
(751,23,l),
(556,700,l),
(500,700,l),
(299,23,l),
(297,23,l),
(76,700,l),
(35,700,l),
(271,-5,l)
);
}
);
width = 1050;
},
{
anchors = (
{
name = top.case;
pos = (562,720);
}
);
background = {
shapes = (
{
closed = 1;
nodes = (
(454,0,l),
(561,389,l),
(580,389,l),
(555,448,l),
(691,0,l),
(910,0,l),
(1135,700,l),
(911,700,l),
(793,275,l),
(754,275,l),
(790,267,l),
(669,700,l),
(478,700,l),
(364,273,l),
(348,273,l),
(362,258,l),
(242,700,l),
(10,700,l),
(245,0,l)
);
}
);
};
guides = (
{
angle = 90;
pos = (562,258);
},
{
pos = (489,306);
}
);
layerId = "5C950900-0D0F-4959-81DE-75F048290F1B";
shapes = (
{
closed = 1;
nodes = (
(454,0,l),
(565,405,l),
(568,405,l),
(691,0,l),
(910,0,l),
(1135,700,l),
(911,700,l),
(793,275,l),
(788,275,l),
(669,700,l),
(478,700,l),
(364,273,l),
(358,273,l),
(242,700,l),
(10,700,l),
(245,0,l)
);
}
);
width = 1135;
},
{
anchors = (
{
name = top.case;
pos = (545,720);
}
);
background = {
shapes = (
{
closed = 1;
nodes = (
(400,-6,l),
(549,488,l),
(569,488,l),
(529,560,l),
(703,-6,l),
(844,-6,l),
(1071,700,l),
(940,700,l),
(778,182,l),
(756,182,l),
(787,141,l),
(616,704,l),
(484,704,l),
(332,194,l),
(314,194,l),
(344,140,l),
(170,700,l),
(30,700,l),
(262,-6,l)
);
}
);
};
guides = (
{
pos = (527,194);
}
);
layerId = "514A1583-697A-4C0A-B081-2869E94CF283";
shapes = (
{
closed = 1;
nodes = (
(400,-6,l),
(550,506,l),
(552,506,l),
(703,-6,l),
(844,-6,l),
(1071,700,l),
(940,700,l),
(778,180,l),
(775,180,l),
(616,704,l),
(484,704,l),
(330,172,l),
(328,172,l),
(170,700,l),
(30,700,l),
(262,-6,l)
);
}
);
width = 1101;
},
{
anchors = (
{
name = top.case;
pos = (522,720);
}
);
associatedMasterId = "5C950900-0D0F-4959-81DE-75F048290F1B";
background = {
shapes = (
{
closed = 1;
nodes = (
(414,0,l),
(521,389,l),
(540,389,l),
(505,448,l),
(641,0,l),
(860,0,l),
(1065,700,l),
(841,700,l),
(731,306,l),
(712,306,l),
(740,267,l),
(619,700,l),
(438,700,l),
(331,306,l),
(315,306,l),
(342,258,l),
(222,700,l),
(-10,700,l),
(205,0,l)
);
}
);
};
guides = (
{
angle = 90;
pos = (522,258);
},
{
pos = (449,306);
}
);
layerId = "66F14BB0-BDB1-42B2-A6DB-4EBF702D902D";
name = "Jul 8 18, 19:44";
shapes = (
{
closed = 1;
nodes = (
(471,680,l),
(371,306,l),
(355,306,l),
(382,258,l),
(262,700,l),
(30,700,l),
(245,0,l),
(444,0,l),
(561,435,l)
);
},
{
closed = 1;
nodes = (
(641,0,l),
(860,0,l),
(1065,700,l),
(841,700,l),
(731,306,l),
(712,306,l),
(740,267,l),
(619,700,l),
(428,700,l)
);
}
);
width = 1095;
},
{
anchors = (
{
name = top.case;
pos = (492,720);
}
);
associatedMasterId = "514A1583-697A-4C0A-B081-2869E94CF283";
background = {
shapes = (
{
closed = 1;
nodes = (
(340,-6,l),
(479,488,l),
(499,488,l),
(459,560,l),
(623,-6,l),
(764,-6,l),
(981,700,l),
(850,700,l),
(698,182,l),
(676,182,l),
(707,141,l),
(546,704,l),
(414,704,l),
(272,194,l),
(254,194,l),
(284,140,l),
(120,700,l),
(-20,700,l),
(202,-6,l)
);
}
);
};
guides = (
{
pos = (477,194);
}
);
layerId = "4EB94962-85DB-403C-801D-EF79D9496F57";
name = "Jul 8 18, 19:46";
shapes = (
{
closed = 1;
nodes = (
(459,686,l),
(322,194,l),
(304,194,l),
(334,140,l),
(170,700,l),
(30,700,l),
(252,-6,l),
(385,-6,l),
(528,503,l)
);
},
{
closed = 1;
nodes = (
(623,-6,l),
(764,-6,l),
(981,700,l),
(850,700,l),
(698,182,l),
(676,182,l),
(707,141,l),
(546,704,l),
(414,704,l)
);
}
);
width = 1011;
}
);
unicode = 87;
},
{
glyphname = X;
lastChange = "2021-09-30 22:26:40 +0000";
layers = (
{
background = {
shapes = (
{
closed = 1;
nodes = (
(628,0,l),
(352,361,l),
(340,371,l),
(90,700,l),
(40,700,l),
(310,347,l),
(321,338,l),
(580,0,l)
);
},
{
closed = 1;
nodes = (
(78,0,l),
(333,330,l),
(309,360,l),
(30,0,l)
);
},
{
closed = 1;
nodes = (
(618,700,l),
(572,700,l),
(320,360,l),
(344,330,l)
);
}
);
};
guides = (
{
angle = 90;
pos = (618,252);
}
);
layerId = "620D8D18-E43F-4D11-9420-7EF908A5CAE8";
shapes = (
{
closed = 1;
nodes = (
(623,0,l),
(353,352,l),
(613,700,l),
(567,700,l),
(329,378,l),
(81,700,l),
(35,700,l),
(301,354,l),
(25,0,l),
(73,0,l),
(325,328,l),
(579,0,l)
);
}
);
width = 648;
},
{
background = {
shapes = (
{
closed = 1;
nodes = (
(748,0,l),
(478,420,l),
(437,444,l),
(288,700,l),
(25,700,l),
(307,259,l),
(343,242,l),
(504,0,l)
);
},
{
closed = 1;
nodes = (
(259,0,l),
(396,213,l),
(264,394,l),
(20,0,l)
);
},
{
closed = 1;
nodes = (
(743,700,l),
(500,700,l),
(377,516,l),
(502,334,l)
);
}
);
};
guides = (
{
angle = 90;
pos = (20,329);
},
{
angle = 90;
pos = (753,263);
}
);
layerId = "5C950900-0D0F-4959-81DE-75F048290F1B";
shapes = (
{
closed = 1;
nodes = (
(758,0,l),
(512,362,l),
(753,700,l),
(510,700,l),
(388,517,l),
(278,700,l),
(15,700,l),
(248,355,l),
(10,0,l),
(249,0,l),
(378,199,l),
(514,0,l)
);
}
);
width = 768;
},
{
background = {
shapes = (
{
closed = 1;
nodes = (
(691,0,l),
(410,391,l),
(383,408,l),
(180,700,l),
(25,700,l),
(309,303,l),
(333,290,l),
(547,0,l)
);
},
{
closed = 1;
nodes = (
(161,0,l),
(357,272,l),
(290,377,l),
(18,0,l)
);
},
{
closed = 1;
nodes = (
(683,700,l),
(539,700,l),
(351,438,l),
(415,332,l)
);
}
);
};
layerId = "514A1583-697A-4C0A-B081-2869E94CF283";
shapes = (
{
closed = 1;
nodes = (
(689,0,l),
(430,356,l),
(675,700,l),
(535,700,l),
(350,450,l),
(172,700,l),
(25,700,l),
(265,353,l),
(20,0,l),
(164,0,l),
(349,258,l),
(537,0,l)
);
}
);
width = 709;
}
);
unicode = 88;
},
{
glyphname = Y;
kernLeft = Y;
kernRight = Y;
lastChange = "2021-09-30 22:26:40 +0000";
layers = (
{
anchors = (
{
name = bottom;
pos = (325,-35);
},
{
name = top.case;
pos = (330,720);
}
);
background = {
shapes = (
{
closed = 1;
nodes = (
(531,0,l),
(531,210,l),
(808,700,l),
(564,700,l),
(423,410,l),
(419,410,l),
(279,700,l),
(25,700,l),
(308,202,l),
(308,0,l)
);
},
{
closed = 1;
nodes = (
(348,0,l),
(348,281,l),
(632,700,l),
(586,700,l),
(330,314,l),
(74,700,l),
(25,700,l),
(309,279,l),
(309,0,l)
);
}
);
};
guides = (
{
angle = 90;
pos = (325,545);
}
);
layerId = "620D8D18-E43F-4D11-9420-7EF908A5CAE8";
shapes = (
{
closed = 1;
nodes = (
(348,0,l),
(348,280,l),
(632,700,l),
(584,700,l),
(332,314,l),
(328,314,l),
(74,700,l),
(25,700,l),
(309,278,l),
(309,0,l)
);
}
);
width = 657;
},
{
anchors = (
{
name = bottom;
pos = (419,-35);
},
{
name = top.case;
pos = (421,720);
}
);
background = {
shapes = (
{
closed = 1;
nodes = (
(576,105,l),
(271,735,l),
(69,638,l),
(375,8,l)
);
}
);
};
guides = (
{
angle = 90;
pos = (421,640);
}
);
layerId = "5C950900-0D0F-4959-81DE-75F048290F1B";
shapes = (
{
closed = 1;
nodes = (
(531,0,l),
(531,210,l),
(808,700,l),
(564,700,l),
(423,410,l),
(419,410,l),
(279,700,l),
(25,700,l),
(308,202,l),
(308,0,l)
);
}
);
width = 833;
},
{
anchors = (
{
name = bottom;
pos = (370,-35);
},
{
name = top.case;
pos = (372,720);
}
);
background = {
shapes = (
{
closed = 1;
nodes = (
(440,0,l),
(440,245,l),
(720,700,l),
(574,700,l),
(377,362,l),
(373,362,l),
(177,700,l),
(25,700,l),
(309,240,l),
(309,0,l)
);
}
);
};
guides = (
{
angle = 90;
pos = (370,614);
}
);
layerId = "514A1583-697A-4C0A-B081-2869E94CF283";
shapes = (
{
closed = 1;
nodes = (
(436,0,l),
(436,244,l),
(716,700,l),
(558,700,l),
(374,373,l),
(370,373,l),
(186,700,l),
(24,700,l),
(305,244,l),
(305,0,l)
);
}
);
width = 740;
}
);
unicode = 89;
},
{
glyphname = Z;
kernLeft = Z;
kernRight = Z;
lastChange = "2021-09-30 22:26:40 +0000";
layers = (
{
anchors = (
{
name = top.case;
pos = (297,720);
}
);
background = {
guides = (
{
angle = 90;
pos = (45,232);
}
);
shapes = (
{
closed = 1;
nodes = (
(545,0,l),
(545,205,l),
(265,205,l),
(538,558,l),
(538,700,l),
(-64,700,l),
(-64,495,l),
(219,495,l),
(-69,120,l),
(-69,0,l)
);
}
);
};
guides = (
{
angle = 90;
pos = (35,67);
},
{
pos = (13,664);
}
);
layerId = "620D8D18-E43F-4D11-9420-7EF908A5CAE8";
shapes = (
{
closed = 1;
nodes = (
(570,0,l),
(570,36,l),
(90,36,l),
(562,672,l),
(562,700,l),
(50,700,l),
(50,664,l),
(511,664,l),
(40,29,l),
(40,0,l)
);
}
);
width = 610;
},
{
anchors = (
{
name = top.case;
pos = (344,720);
}
);
background = {
guides = (
{
angle = 90;
pos = (634,306);
}
);
shapes = (
{
closed = 1;
nodes = (
(649,0,l),
(649,205,l),
(362,205,l),
(642,532,l),
(642,700,l),
(40,700,l),
(40,495,l),
(333,495,l),
(35,160,l),
(35,0,l)
);
}
);
};
layerId = "5C950900-0D0F-4959-81DE-75F048290F1B";
shapes = (
{
closed = 1;
nodes = (
(649,0,l),
(649,195,l),
(353,195,l),
(642,532,l),
(642,700,l),
(40,700,l),
(40,505,l),
(342,505,l),
(35,160,l),
(35,0,l)
);
}
);
width = 684;
},
{
anchors = (
{
name = top.case;
pos = (321,720);
}
);
background = {
shapes = (
{
closed = 1;
nodes = (
(610,0,l),
(610,116,l),
(195,116,l),
(203,92,l),
(602,602,l),
(602,700,l),
(45,700,l),
(45,585,l),
(457,585,l),
(445,607,l),
(38,95,l),
(38,0,l)
);
}
);
};
layerId = "514A1583-697A-4C0A-B081-2869E94CF283";
shapes = (
{
closed = 1;
nodes = (
(610,0,l),
(610,115,l),
(216,115,l),
(603,607,l),
(603,700,l),
(48,700,l),
(48,585,l),
(429,585,l),
(40,89,l),
(40,0,l)
);
}
);
width = 650;
}
);
unicode = 90;
},
{
color = 4;
glyphname = a;
kernLeft = a;
kernRight = a;
lastChange = "2021-09-30 22:26:40 +0000";
layers = (
{
anchors = (
{
name = bottom;
pos = (251,-35);
},
{
name = ogonek;
pos = (437,10);
},
{
name = top;
pos = (255,550);
}
);
background = {
shapes = (
{
closed = 1;
nodes = (
(518,39,l),
(536,20,l),
(442,21,o),
(424,33,o),
(424,85,cs),
(424,325,ls),
(424,445,o),
(353,496,o),
(250,496,cs),
(196,496,o),
(143,484,o),
(95,464,cs),
(47,445,l),
(62,471,l),
(85,415,l),
(69,425,l),
(108,438,ls),
(142,449,o),
(191,464,o),
(240,464,cs),
(329,464,o),
(389,423,o),
(389,321,cs),
(389,88,l),
(389,87,o),
(389,85,o),
(389,84,c),
(389,80,ls),
(389,29,o),
(416,-6,o),
(483,-6,cs),
(499,-6,o),
(513,-5,o),
(527,-1,c),
(516,-25,l)
);
},
{
closed = 1;
nodes = (
(261,-6,o),
(321,12,o),
(366,52,cs),
(411,90,l),
(409,118,l),
(352,77,ls),
(309,46,o),
(267,27,o),
(225,27,cs),
(142,27,o),
(86,64,o),
(86,128,cs),
(86,178,o),
(109,210,o),
(186,230,cs),
(412,290,l),
(412,321,l),
(178,261,ls),
(97,240,o),
(50,205,o),
(50,126,cs),
(50,36,o),
(132,-6,o),
(212,-6,cs)
);
}
);
};
guides = (
{
angle = 90;
pos = (77,184);
},
{
angle = 90;
pos = (512,-54);
}
);
layerId = "620D8D18-E43F-4D11-9420-7EF908A5CAE8";
shapes = (
{
closed = 1;
nodes = (
(261,-6,o),
(320,13,o),
(366,52,cs),
(389,71,l),
(392,25,o),
(420,-6,o),
(483,-6,cs),
(499,-6,o),
(513,-5,o),
(516,-3,c),
(517,20,l),
(439,23,o),
(424,37,o),
(424,85,cs),
(424,325,ls),
(424,445,o),
(353,496,o),
(250,496,cs),
(196,496,o),
(143,484,o),
(95,462,cs),
(71,451,l),
(80,429,l),
(108,438,ls),
(142,450,o),
(191,464,o),
(240,464,cs),
(329,464,o),
(389,423,o),
(389,321,cs),
(389,315,l),
(178,261,ls),
(97,241,o),
(50,205,o),
(50,126,cs),
(50,36,o),
(132,-6,o),
(212,-6,cs)
);
},
{
closed = 1;
nodes = (
(142,27,o),
(86,64,o),
(86,128,cs),
(86,178,o),
(109,209,o),
(186,230,cs),
(389,284,l),
(389,104,l),
(352,77,ls),
(309,46,o),
(267,27,o),
(225,27,cs)
);
}
);
width = 522;
},
{
anchors = (
{
name = bottom;
pos = (303,-35);
},
{
name = ogonek;
pos = (464,10);
},
{
name = top;
pos = (288,550);
}
);
background = {
shapes = (
{
closed = 1;
nodes = (
(598,190,l),
(622,130,l),
(558,139,o),
(537,147,o),
(537,180,cs),
(537,320,ls),
(537,458,o),
(439,535,o),
(287,535,cs),
(220,535,o),
(152,519,o),
(88,496,cs),
(-84,435,l),
(37,535,l),
(88,309,l),
(27,344,l),
(108,359,ls),
(153,367,o),
(197,371,o),
(238,371,cs),
(291,371,o),
(322,361,o),
(322,321,cs),
(322,164,ls),
(322,152,o),
(324,141,o),
(326,130,c),
(336,120,l),
(351,46,o),
(404,-9,o),
(516,-9,cs),
(541,-9,o),
(594,6,o),
(617,17,c),
(572,-45,l)
);
},
{
closed = 1;
nodes = (
(250,-9,o),
(313,27,o),
(363,73,c),
(330,157,l),
(295,141,o),
(269,133,o),
(247,133,cs),
(225,133,o),
(209,145,o),
(209,169,cs),
(209,187,o),
(216,202,o),
(250,210,cs),
(327,229,l),
(328,328,l),
(181,294,ls),
(58,266,o),
(8,227,o),
(8,138,cs),
(8,34,o),
(93,-9,o),
(179,-9,cs)
);
}
);
};
guides = (
{
angle = 90;
pos = (592,-61);
}
);
layerId = "5C950900-0D0F-4959-81DE-75F048290F1B";
shapes = (
{
closed = 1;
nodes = (
(228,-9,o),
(287,11,o),
(333,51,cs),
(354,69,l),
(381,22,o),
(432,-8,o),
(516,-8,cs),
(531,-8,o),
(555,-3,o),
(577,3,c),
(592,135,l),
(551,143,o),
(537,153,o),
(537,180,cs),
(537,320,ls),
(537,458,o),
(439,535,o),
(287,535,cs),
(220,535,o),
(152,519,o),
(88,496,cs),
(49,482,l),
(78,353,l),
(108,359,ls),
(153,367,o),
(197,371,o),
(238,371,cs),
(302,371,o),
(325,355,o),
(322,329,cs),
(322,327,l),
(181,294,ls),
(58,265,o),
(8,227,o),
(8,138,cs),
(8,34,o),
(93,-9,o),
(179,-9,cs)
);
},
{
closed = 1;
nodes = (
(225,133,o),
(209,145,o),
(209,169,cs),
(209,187,o),
(216,202,o),
(250,210,cs),
(322,228,l),
(322,155,l),
(305,147,ls),
(284,137,o),
(263,133,o),
(247,133,cs)
);
}
);
width = 602;
},
{
associatedMasterId = "5C950900-0D0F-4959-81DE-75F048290F1B";
background = {
shapes = (
{
closed = 1;
nodes = (
(317,69,o),
(371,-10,o),
(508,-10,cs),
(543,-10,o),
(587,-4,o),
(609,10,c),
(572,-45,l),
(594,190,l),
(669,143,l),
(568,142,o),
(534,153,o),
(534,175,cs),
(534,340,ls),
(534,464,o),
(454,535,o),
(310,535,cs),
(187,535,o),
(59,485,o),
(-32,433,c),
(52,502,l),
(98,284,l),
(16,323,l),
(98,346,o),
(171,361,o),
(231,361,cs),
(289,361,o),
(317,351,o),
(317,311,cs),
(317,164,ls)
);
},
{
closed = 1;
nodes = (
(322,159,l),
(298,143,o),
(272,134,o),
(251,134,cs),
(230,134,o),
(215,144,o),
(215,165,cs),
(215,181,o),
(222,192,o),
(254,201,cs),
(328,221,l),
(329,317,l),
(185,288,ls),
(63,264,o),
(15,220,o),
(15,132,cs),
(15,31,o),
(98,-9,o),
(183,-9,cs),
(248,-9,o),
(305,17,o),
(354,73,c)
);
}
);
};
layerId = "8E5AF51A-A27B-443A-9AC1-ED177E22C5AB";
name = "Mar 2 18, 13:36";
shapes = (
{
closed = 1;
nodes = (
(317,69,o),
(371,-10,o),
(508,-10,cs),
(543,-10,o),
(587,-4,o),
(609,10,c),
(572,-45,l),
(594,190,l),
(669,143,l),
(568,142,o),
(534,153,o),
(534,175,cs),
(534,340,ls),
(534,464,o),
(454,535,o),
(310,535,cs),
(244,535,o),
(171,519,o),
(132,505,cs),
(91,491,o),
(53,446,o),
(70,367,cs),
(88,284,l),
(16,323,l),
(98,346,o),
(171,361,o),
(231,361,cs),
(289,361,o),
(317,351,o),
(317,311,cs),
(317,164,ls)
);
},
{
closed = 1;
nodes = (
(322,159,l),
(298,143,o),
(272,134,o),
(251,134,cs),
(230,134,o),
(215,144,o),
(215,165,cs),
(215,181,o),
(222,192,o),
(254,201,cs),
(328,221,l),
(329,317,l),
(185,288,ls),
(63,264,o),
(15,220,o),
(15,132,cs),
(15,31,o),
(98,-9,o),
(183,-9,cs),
(248,-9,o),
(305,17,o),
(354,73,c)
);
}
);
width = 597;
},
{
associatedMasterId = "5C950900-0D0F-4959-81DE-75F048290F1B";
background = {
shapes = (
{
closed = 1;
nodes = (
(542,157,o),
(532,168,o),
(532,197,cs),
(532,307,ls),
(532,452,o),
(441,535,o),
(291,535,cs),
(196,535,o),
(112,502,o),
(38,461,c),
(98,325,l),
(153,347,o),
(202,361,o),
(244,361,cs),
(283,361,o),
(304,350,o),
(312,325,c),
(183,296,ls),
(63,269,o),
(13,226,o),
(13,136,cs),
(13,32,o),
(96,-9,o),
(181,-9,cs),
(245,-9,o),
(298,13,o),
(344,61,c),
(377,13,o),
(432,-10,o),
(506,-10,cs),
(531,-10,o),
(561,-7,o),
(584,0,c),
(599,162,l),
(587,158,o),
(575,157,o),
(565,157,cs)
);
},
{
closed = 1;
nodes = (
(213,189,o),
(222,200,o),
(252,209,cs),
(315,228,l),
(315,164,l),
(293,150,o),
(269,142,o),
(249,142,cs),
(228,142,o),
(213,152,o),
(213,173,cs)
);
}
);
};
layerId = "367CDCB9-A811-4795-AA2F-659DEFEB3A5F";
name = "Mar 9 18, 21:40";
shapes = (
{
closed = 1;
nodes = (
(317,152,o),
(318,141,o),
(320,130,c),
(330,120,l),
(345,46,o),
(399,-9,o),
(511,-9,cs),
(536,-9,o),
(589,6,o),
(613,17,c),
(572,-45,l),
(594,190,l),
(656,151,l),
(618,147,o),
(596,144,o),
(575,144,cs),
(540,144,o),
(534,161,o),
(534,175,cs),
(534,340,ls),
(534,464,o),
(448,535,o),
(293,535,cs),
(160,535,o),
(22,472,o),
(-76,407,c),
(43,535,l),
(98,284,l),
(-8,330,l),
(81,349,o),
(160,361,o),
(224,361,cs),
(287,361,o),
(317,351,o),
(317,311,cs),
(317,164,ls)
);
},
{
closed = 1;
nodes = (
(322,155,l),
(298,142,o),
(272,134,o),
(251,134,cs),
(230,134,o),
(215,144,o),
(215,165,cs),
(215,181,o),
(223,190,o),
(254,201,cs),
(328,226,l),
(329,309,l),
(185,284,ls),
(63,263,o),
(15,220,o),
(15,132,cs),
(15,31,o),
(98,-9,o),
(183,-9,cs),
(255,-9,o),
(318,27,o),
(372,73,c)
);
}
);
width = 597;
},
{
associatedMasterId = "5C950900-0D0F-4959-81DE-75F048290F1B";
background = {
shapes = (
{
closed = 1;
nodes = (
(317,152,o),
(318,141,o),
(320,130,c),
(330,120,l),
(345,46,o),
(399,-9,o),
(511,-9,cs),
(536,-9,o),
(589,6,o),
(613,17,c),
(572,-45,l),
(594,190,l),
(656,151,l),
(618,147,o),
(596,144,o),
(575,144,cs),
(540,144,o),
(534,161,o),
(534,175,cs),
(534,320,ls),
(534,461,o),
(449,535,o),
(301,535,cs),
(119,535,o),
(-35,437,o),
(-143,335,c),
(43,535,l),
(98,284,l),
(-8,320,l),
(81,345,o),
(160,361,o),
(236,361,cs),
(287,361,o),
(317,351,o),
(317,311,cs),
(317,164,ls)
);
},
{
closed = 1;
nodes = (
(322,155,l),
(298,142,o),
(272,134,o),
(251,134,cs),
(230,134,o),
(215,146,o),
(215,170,cs),
(215,188,o),
(221,202,o),
(254,211,cs),
(328,230,l),
(329,313,l),
(185,279,ls),
(64,250,o),
(15,216,o),
(15,130,cs),
(15,30,o),
(98,-9,o),
(183,-9,cs),
(255,-9,o),
(318,27,o),
(372,73,c)
);
}
);
};
layerId = "2566D14B-478B-4FE6-843D-A24B43E42469";
name = "Mar 11 18, 17:41";
shapes = (
{
closed = 1;
nodes = (
(317,152,o),
(318,141,o),
(320,130,c),
(330,120,l),
(345,46,o),
(399,-9,o),
(511,-9,cs),
(536,-9,o),
(589,6,o),
(613,17,c),
(572,-45,l),
(594,190,l),
(656,151,l),
(618,147,o),
(596,144,o),
(575,144,cs),
(540,144,o),
(534,161,o),
(534,175,cs),
(534,320,ls),
(534,461,o),
(449,535,o),
(301,535,cs),
(119,535,o),
(-35,437,o),
(-143,335,c),
(43,535,l),
(98,284,l),
(-8,320,l),
(81,345,o),
(160,361,o),
(236,361,cs),
(287,361,o),
(317,351,o),
(317,311,cs),
(317,164,ls)
);
},
{
closed = 1;
nodes = (
(318,168,l),
(296,153,o),
(271,142,o),
(250,140,cs),
(229,138,o),
(213,148,o),
(210,172,cs),
(208,190,o),
(213,205,o),
(245,217,cs),
(345,255,l),
(337,337,l),
(169,277,ls),
(52,235,o),
(7,197,o),
(16,111,cs),
(26,12,o),
(113,-18,o),
(197,-9,cs),
(269,-1,o),
(328,41,o),
(377,92,c)
);
}
);
width = 597;
},
{
associatedMasterId = "5C950900-0D0F-4959-81DE-75F048290F1B";
background = {
shapes = (
{
closed = 1;
nodes = (
(317,152,o),
(318,141,o),
(320,130,c),
(330,120,l),
(345,46,o),
(399,-9,o),
(511,-9,cs),
(536,-9,o),
(589,6,o),
(613,17,c),
(572,-45,l),
(594,190,l),
(656,151,l),
(618,147,o),
(596,144,o),
(575,144,cs),
(540,144,o),
(534,161,o),
(534,175,cs),
(534,320,ls),
(534,461,o),
(449,535,o),
(301,535,cs),
(119,535,o),
(-35,437,o),
(-143,335,c),
(43,535,l),
(98,284,l),
(-8,320,l),
(81,345,o),
(160,361,o),
(236,361,cs),
(287,361,o),
(317,351,o),
(317,311,cs),
(317,164,ls)
);
},
{
closed = 1;
nodes = (
(322,155,l),
(298,142,o),
(272,134,o),
(251,134,cs),
(230,134,o),
(215,146,o),
(215,170,cs),
(215,188,o),
(221,202,o),
(254,211,cs),
(328,230,l),
(329,313,l),
(185,279,ls),
(64,250,o),
(15,216,o),
(15,130,cs),
(15,30,o),
(98,-9,o),
(183,-9,cs),
(255,-9,o),
(318,27,o),
(372,73,c)
);
}
);
};
layerId = "37D52441-0D78-459B-806A-C19F8EE0A659";
name = "Mar 12 18, 14:55";
shapes = (
{
closed = 1;
nodes = (
(317,152,o),
(318,141,o),
(320,130,c),
(330,120,l),
(345,46,o),
(399,-9,o),
(511,-9,cs),
(536,-9,o),
(589,6,o),
(613,17,c),
(572,-45,l),
(594,190,l),
(656,151,l),
(618,147,o),
(596,144,o),
(575,144,cs),
(540,144,o),
(534,161,o),
(534,175,cs),
(534,320,ls),
(534,461,o),
(449,535,o),
(301,535,cs),
(119,535,o),
(-35,449,o),
(-143,359,c),
(43,535,l),
(72,305,l),
(-8,341,l),
(81,353,o),
(160,361,o),
(236,361,cs),
(287,361,o),
(317,351,o),
(317,311,cs),
(317,164,ls)
);
},
{
closed = 1;
nodes = (
(322,155,l),
(298,142,o),
(272,134,o),
(251,134,cs),
(230,134,o),
(215,146,o),
(215,170,cs),
(215,188,o),
(221,202,o),
(254,211,cs),
(328,230,l),
(329,313,l),
(185,279,ls),
(64,250,o),
(15,216,o),
(15,130,cs),
(15,30,o),
(98,-9,o),
(183,-9,cs),
(255,-9,o),
(318,27,o),
(372,73,c)
);
}
);
width = 597;
},
{
associatedMasterId = "5C950900-0D0F-4959-81DE-75F048290F1B";
background = {
shapes = (
{
closed = 1;
nodes = (
(317,152,o),
(318,141,o),
(320,130,c),
(330,120,l),
(345,46,o),
(399,-9,o),
(511,-9,cs),
(536,-9,o),
(589,6,o),
(613,17,c),
(572,-45,l),
(594,190,l),
(656,151,l),
(618,147,o),
(596,144,o),
(575,144,cs),
(540,144,o),
(534,161,o),
(534,175,cs),
(534,320,ls),
(534,461,o),
(449,535,o),
(301,535,cs),
(119,535,o),
(-35,437,o),
(-143,335,c),
(43,535,l),
(98,284,l),
(-8,320,l),
(81,345,o),
(160,361,o),
(236,361,cs),
(287,361,o),
(317,351,o),
(317,311,cs),
(317,164,ls)
);
},
{
closed = 1;
nodes = (
(322,155,l),
(298,142,o),
(272,134,o),
(251,134,cs),
(230,134,o),
(215,146,o),
(215,170,cs),
(215,188,o),
(221,202,o),
(254,211,cs),
(328,230,l),
(329,313,l),
(185,279,ls),
(64,250,o),
(15,216,o),
(15,130,cs),
(15,30,o),
(98,-9,o),
(183,-9,cs),
(255,-9,o),
(318,27,o),
(372,73,c)
);
}
);
};
layerId = "0BA56532-7AF4-4B5E-BD0D-3B6415B19D8E";
name = "Mar 13 18, 18:20";
shapes = (
{
closed = 1;
nodes = (
(594,190,l),
(656,151,l),
(618,147,o),
(596,144,o),
(575,144,cs),
(540,144,o),
(534,161,o),
(534,175,cs),
(534,320,ls),
(534,461,o),
(449,535,o),
(301,535,cs),
(119,535,o),
(-35,437,o),
(-143,335,c),
(43,535,l),
(98,284,l),
(-8,320,l),
(81,345,o),
(160,361,o),
(236,361,cs),
(287,361,o),
(317,351,o),
(317,311,cs),
(317,164,ls),
(317,152,o),
(318,141,o),
(320,130,c),
(330,120,l),
(345,46,o),
(399,-9,o),
(511,-9,cs),
(536,-9,o),
(589,6,o),
(613,17,c),
(572,-45,l)
);
},
{
closed = 1;
nodes = (
(255,-9,o),
(318,27,o),
(372,73,c),
(322,155,l),
(298,142,o),
(272,134,o),
(251,134,cs),
(230,134,o),
(215,146,o),
(215,170,cs),
(215,188,o),
(221,202,o),
(254,211,cs),
(328,230,l),
(329,313,l),
(185,279,ls),
(64,250,o),
(15,216,o),
(15,130,cs),
(15,30,o),
(98,-9,o),
(183,-9,cs)
);
}
);
width = 597;
},
{
associatedMasterId = "5C950900-0D0F-4959-81DE-75F048290F1B";
background = {
shapes = (
{
closed = 1;
nodes = (
(605,190,l),
(668,151,l),
(629,147,o),
(607,144,o),
(586,144,cs),
(550,144,o),
(544,161,o),
(544,175,cs),
(544,320,ls),
(544,461,o),
(457,535,o),
(306,535,cs),
(228,535,o),
(152,516,o),
(87,489,cs),
(-77,422,l),
(44,535,l),
(95,309,l),
(34,334,l),
(115,349,ls),
(160,357,o),
(204,361,o),
(245,361,cs),
(298,361,o),
(329,351,o),
(329,311,cs),
(329,164,ls),
(329,152,o),
(331,141,o),
(333,130,c),
(343,120,l),
(358,46,o),
(411,-9,o),
(523,-9,cs),
(548,-9,o),
(601,6,o),
(624,17,c),
(579,-45,l)
);
},
{
closed = 1;
nodes = (
(257,-9,o),
(320,27,o),
(370,73,c),
(337,158,l),
(302,142,o),
(276,134,o),
(254,134,cs),
(232,134,o),
(216,146,o),
(216,170,cs),
(216,188,o),
(223,202,o),
(257,211,cs),
(334,230,l),
(335,323,l),
(188,289,ls),
(65,260,o),
(15,224,o),
(15,135,cs),
(15,31,o),
(100,-9,o),
(186,-9,cs)
);
}
);
};
layerId = "DF06E098-D1D6-4C45-86B7-7FEEE28D71A1";
name = "Mar 18 18, 13:31";
shapes = (
{
closed = 1;
nodes = (
(605,190,l),
(668,151,l),
(629,147,o),
(607,144,o),
(586,144,cs),
(550,144,o),
(544,161,o),
(544,175,cs),
(544,320,ls),
(544,461,o),
(448,535,o),
(281,535,cs),
(203,535,o),
(126,505,o),
(61,465,cs),
(-11,419,l),
(51,489,l),
(95,309,l),
(34,334,l),
(115,349,ls),
(160,357,o),
(204,361,o),
(245,361,cs),
(298,361,o),
(329,351,o),
(329,311,cs),
(329,164,ls),
(329,152,o),
(331,141,o),
(333,130,c),
(343,120,l),
(358,46,o),
(411,-9,o),
(523,-9,cs),
(548,-9,o),
(601,6,o),
(624,17,c),
(579,-45,l)
);
},
{
closed = 1;
nodes = (
(257,-9,o),
(320,27,o),
(370,73,c),
(337,158,l),
(302,142,o),
(276,134,o),
(254,134,cs),
(232,134,o),
(216,146,o),
(216,170,cs),
(216,188,o),
(223,202,o),
(257,211,cs),
(334,230,l),
(335,323,l),
(188,289,ls),
(65,260,o),
(15,224,o),
(15,135,cs),
(15,31,o),
(100,-9,o),
(186,-9,cs)
);
}
);
width = 609;
},
{
anchors = (
{
name = bottom;
pos = (270,-35);
},
{
name = ogonek;
pos = (457,10);
},
{
name = top;
pos = (268,550);
}
);
background = {
shapes = (
{
closed = 1;
nodes = (
(558,115,l),
(579,75,l),
(500,80,o),
(481,90,o),
(481,133,cs),
(481,323,ls),
(481,452,o),
(396,516,o),
(269,516,cs),
(208,516,o),
(148,502,o),
(92,480,cs),
(-19,440,l),
(50,503,l),
(87,362,l),
(48,385,l),
(108,399,ls),
(148,408,o),
(194,418,o),
(239,418,cs),
(310,418,o),
(356,392,o),
(356,321,cs),
(356,126,l),
(356,120,o),
(357,113,o),
(358,107,c),
(363,100,ls),
(370,38,o),
(410,-8,o),
(500,-8,cs),
(520,-8,o),
(554,1,o),
(572,8,c),
(544,-35,l)
);
},
{
closed = 1;
nodes = (
(245,-8,o),
(304,12,o),
(350,52,cs),
(395,90,l),
(370,138,l),
(329,112,ls),
(297,91,o),
(265,80,o),
(236,80,cs),
(184,80,o),
(148,105,o),
(148,149,cs),
(148,183,o),
(163,206,o),
(218,220,cs),
(370,260,l),
(370,325,l),
(180,278,ls),
(78,253,o),
(29,216,o),
(29,132,cs),
(29,35,o),
(113,-8,o),
(196,-8,cs)
);
}
);
};
guides = (
{
pos = (235,407);
}
);
layerId = "514A1583-697A-4C0A-B081-2869E94CF283";
shapes = (
{
closed = 1;
nodes = (
(242,-8,o),
(297,12,o),
(341,52,cs),
(364,73,l),
(384,27,o),
(422,-8,o),
(492,-8,cs),
(504,-8,o),
(521,-6,o),
(538,-2,c),
(545,81,l),
(484,86,o),
(470,96,o),
(470,137,cs),
(470,323,ls),
(470,452,o),
(388,516,o),
(268,516,cs),
(211,516,o),
(155,504,o),
(88,480,cs),
(63,471,l),
(84,388,l),
(107,393,ls),
(146,401,o),
(192,407,o),
(235,407,cs),
(309,407,o),
(345,381,o),
(345,323,cs),
(345,321,l),
(192,289,ls),
(92,269,o),
(35,220,o),
(35,135,cs),
(35,38,o),
(114,-8,o),
(196,-8,cs)
);
},
{
closed = 1;
nodes = (
(185,97,o),
(157,116,o),
(157,151,cs),
(157,178,o),
(171,198,o),
(210,209,cs),
(345,247,l),
(345,144,l),
(323,129,ls),
(292,108,o),
(260,97,o),
(234,97,cs)
);
}
);
width = 555;
}
);
unicode = 97;
},
{
glyphname = agrave;
kernLeft = a;
kernRight = a;
lastChange = "2021-09-30 22:26:40 +0000";
layers = (
{
layerId = "620D8D18-E43F-4D11-9420-7EF908A5CAE8";
shapes = (
{
ref = a;
},
{
pos = (231,0);
ref = gravecomb;
}
);
width = 522;
},
{
layerId = "514A1583-697A-4C0A-B081-2869E94CF283";
shapes = (
{
ref = a;
},
{
pos = (226,0);
ref = gravecomb;
}
);
width = 555;
},
{
layerId = "5C950900-0D0F-4959-81DE-75F048290F1B";
shapes = (
{
ref = a;
},
{
pos = (252,0);
ref = gravecomb;
}
);
width = 602;
},
{
anchors = (
{
name = _top;
pos = (295,550);
},
{
name = top;
pos = (295,550);
}
);
associatedMasterId = "5C950900-0D0F-4959-81DE-75F048290F1B";
background = {
shapes = (
{
ref = a;
},
{
pos = (259,0);
ref = gravecomb;
}
);
};
layerId = "F80DF4EC-DED8-4411-8E3A-94AB8D6BB5F3";
name = "Apr 22 18, 10:48";
shapes = (
{
closed = 1;
nodes = (
(605,190,l),
(668,151,l),
(629,147,o),
(607,144,o),
(586,144,cs),
(550,144,o),
(544,161,o),
(544,175,cs),
(544,320,ls),
(544,458,o),
(446,535,o),
(294,535,cs),
(227,535,o),
(159,519,o),
(95,496,cs),
(-77,435,l),
(44,535,l),
(95,309,l),
(34,344,l),
(115,359,ls),
(160,367,o),
(204,371,o),
(245,371,cs),
(298,371,o),
(329,361,o),
(329,321,cs),
(329,164,ls),
(329,152,o),
(331,141,o),
(333,130,c),
(343,120,l),
(358,46,o),
(411,-9,o),
(523,-9,cs),
(548,-9,o),
(601,6,o),
(624,17,c),
(579,-45,l)
);
},
{
closed = 1;
nodes = (
(257,-9,o),
(320,27,o),
(370,73,c),
(337,157,l),
(302,141,o),
(276,133,o),
(254,133,cs),
(232,133,o),
(216,145,o),
(216,169,cs),
(216,187,o),
(223,202,o),
(257,210,cs),
(334,229,l),
(335,328,l),
(188,294,ls),
(65,266,o),
(15,227,o),
(15,138,cs),
(15,34,o),
(100,-9,o),
(186,-9,cs)
);
},
{
closed = 1;
nodes = (
(328,748,l),
(113,748,l),
(112,709,l),
(249,569,l),
(419,569,l)
);
}
);
width = 609;
}
);
unicode = 224;
},
{
color = 3;
glyphname = ae;
kernLeft = a;
kernRight = e;
lastChange = "2021-09-30 22:26:40 +0000";
layers = (
{
anchors = (
{
name = top;
pos = (452,550);
}
);
layerId = "620D8D18-E43F-4D11-9420-7EF908A5CAE8";
shapes = (
{
closed = 1;
nodes = (
(261,-6,o),
(321,12,o),
(366,52,cs),
(421,97,l),
(467,29,o),
(547,-6,o),
(633,-6,cs),
(680,-6,o),
(729,6,o),
(771,24,cs),
(802,38,l),
(791,61,l),
(761,50,ls),
(717,34,o),
(676,27,o),
(631,27,cs),
(519,27,o),
(416,107,o),
(416,248,c),
(822,248,l),
(822,264,ls),
(822,387,o),
(756,496,o),
(611,496,cs),
(527,496,o),
(457,451,o),
(417,384,c),
(397,462,o),
(334,496,o),
(250,496,cs),
(196,496,o),
(143,484,o),
(95,464,cs),
(69,454,l),
(80,428,l),
(108,438,ls),
(142,449,o),
(191,464,o),
(240,464,cs),
(329,464,o),
(389,423,o),
(388,315,c),
(178,261,ls),
(97,240,o),
(50,205,o),
(50,126,cs),
(50,36,o),
(132,-6,o),
(212,-6,cs)
);
},
{
closed = 1;
nodes = (
(142,27,o),
(86,64,o),
(86,128,cs),
(86,178,o),
(109,210,o),
(186,230,cs),
(381,282,l),
(380,270,o),
(379,257,o),
(379,244,cs),
(379,195,o),
(390,152,o),
(409,117,c),
(352,76,ls),
(309,45,o),
(267,27,o),
(225,27,cs)
);
},
{
closed = 1;
nodes = (
(432,392,o),
(515,463,o),
(612,463,cs),
(720,463,o),
(781,390,o),
(788,280,c),
(418,280,l)
);
}
);
width = 872;
},
{
anchors = (
{
name = top;
pos = (477,550);
}
);
background = {
shapes = (
{
closed = 1;
nodes = (
(242,-8,o),
(297,12,o),
(341,52,cs),
(403,108,l),
(363,156,l),
(323,129,ls),
(292,108,o),
(260,97,o),
(234,97,cs),
(185,97,o),
(157,116,o),
(157,151,cs),
(157,178,o),
(171,198,o),
(210,209,cs),
(363,252,l),
(363,329,l),
(192,294,ls),
(92,274,o),
(35,223,o),
(35,137,cs),
(35,39,o),
(114,-8,o),
(196,-8,cs)
);
},
{
closed = 1;
nodes = (
(470,283,l),
(470,323,ls),
(470,452,o),
(388,516,o),
(268,516,cs),
(211,516,o),
(155,504,o),
(88,480,cs),
(-5,446,l),
(55,503,l),
(91,362,l),
(53,383,l),
(107,394,ls),
(146,402,o),
(192,408,o),
(235,408,cs),
(307,408,o),
(345,380,o),
(345,316,cs),
(345,218,l)
);
},
{
closed = 1;
nodes = (
(663,-8,o),
(720,4,o),
(774,30,cs),
(832,58,l),
(821,23,l),
(767,152,l),
(795,136,l),
(734,119,ls),
(696,108,o),
(658,102,o),
(624,102,cs),
(531,102,o),
(465,149,o),
(465,256,cs),
(465,347,o),
(513,409,o),
(595,409,cs),
(673,409,o),
(711,358,o),
(711,273,c),
(746,312,l),
(424,312,l),
(424,220,l),
(828,220,l),
(828,260,ls),
(828,408,o),
(747,516,o),
(595,516,cs),
(454,516,o),
(337,413,o),
(337,253,cs),
(337,84,o),
(462,-8,o),
(610,-8,cs)
);
}
);
};
layerId = "514A1583-697A-4C0A-B081-2869E94CF283";
shapes = (
{
closed = 1;
nodes = (
(242,-8,o),
(297,12,o),
(341,52,cs),
(387,93,l),
(436,27,o),
(519,-8,o),
(610,-8,cs),
(663,-8,o),
(720,4,o),
(774,30,cs),
(811,48,l),
(776,131,l),
(734,119,ls),
(696,108,o),
(658,102,o),
(624,102,cs),
(542,102,o),
(481,138,o),
(468,220,c),
(828,220,l),
(828,260,ls),
(828,408,o),
(747,516,o),
(595,516,cs),
(531,516,o),
(471,495,o),
(426,456,c),
(390,496,o),
(335,516,o),
(268,516,cs),
(211,516,o),
(155,504,o),
(88,480,cs),
(63,471,l),
(84,389,l),
(107,394,ls),
(146,402,o),
(192,408,o),
(235,408,cs),
(303,408,o),
(341,383,o),
(345,325,c),
(192,294,ls),
(92,274,o),
(35,223,o),
(35,137,cs),
(35,39,o),
(114,-8,o),
(196,-8,cs)
);
},
{
closed = 1;
nodes = (
(185,97,o),
(157,116,o),
(157,151,cs),
(157,178,o),
(171,198,o),
(210,209,cs),
(337,245,l),
(337,239,o),
(337,233,o),
(338,228,cs),
(340,200,o),
(346,174,o),
(355,150,c),
(323,129,ls),
(292,108,o),
(260,97,o),
(234,97,cs)
);
},
{
closed = 1;
nodes = (
(488,372,o),
(531,409,o),
(595,409,cs),
(660,409,o),
(697,373,o),
(708,312,c),
(472,312,l)
);
}
);
width = 863;
},
{
anchors = (
{
name = top;
pos = (489,550);
}
);
background = {
shapes = (
{
closed = 1;
nodes = (
(598,190,l),
(622,130,l),
(558,139,o),
(537,147,o),
(537,180,cs),
(537,320,ls),
(537,458,o),
(439,535,o),
(287,535,cs),
(220,535,o),
(152,519,o),
(88,496,cs),
(-84,435,l),
(37,535,l),
(88,309,l),
(27,344,l),
(108,359,ls),
(153,367,o),
(197,371,o),
(238,371,cs),
(291,371,o),
(322,361,o),
(322,321,cs),
(322,164,ls),
(322,152,o),
(324,141,o),
(326,130,c),
(336,120,l),
(351,46,o),
(404,-9,o),
(516,-9,cs),
(541,-9,o),
(594,6,o),
(617,17,c),
(572,-45,l)
);
},
{
closed = 1;
nodes = (
(228,-9,o),
(287,11,o),
(333,51,cs),
(378,90,l),
(331,159,l),
(305,147,ls),
(284,137,o),
(263,133,o),
(247,133,cs),
(225,133,o),
(209,145,o),
(209,169,cs),
(209,187,o),
(216,202,o),
(250,210,cs),
(327,229,l),
(328,328,l),
(181,294,ls),
(58,266,o),
(8,227,o),
(8,138,cs),
(8,34,o),
(93,-9,o),
(179,-9,cs)
);
}
);
};
layerId = "5C950900-0D0F-4959-81DE-75F048290F1B";
shapes = (
{
closed = 1;
nodes = (
(228,-9,o),
(287,11,o),
(333,51,cs),
(376,88,l),
(432,25,o),
(520,-9,o),
(620,-9,cs),
(683,-9,o),
(750,4,o),
(817,32,cs),
(860,50,l),
(810,173,l),
(769,165,ls),
(726,156,o),
(687,151,o),
(654,151,cs),
(592,151,o),
(551,165,o),
(535,210,c),
(889,210,l),
(889,255,ls),
(889,428,o),
(785,535,o),
(617,535,cs),
(557,535,o),
(498,522,o),
(448,494,c),
(407,521,o),
(352,535,o),
(287,535,cs),
(220,535,o),
(152,519,o),
(88,496,cs),
(49,482,l),
(78,353,l),
(108,359,ls),
(153,367,o),
(197,371,o),
(238,371,cs),
(288,371,o),
(319,362,o),
(322,327,c),
(181,294,ls),
(58,266,o),
(8,227,o),
(8,138,cs),
(8,34,o),
(93,-9,o),
(179,-9,cs)
);
},
{
closed = 1;
nodes = (
(225,133,o),
(209,145,o),
(209,169,cs),
(209,187,o),
(216,202,o),
(250,210,cs),
(317,226,l),
(318,216,o),
(320,207,o),
(322,197,c),
(325,182,o),
(329,171,o),
(333,160,c),
(305,147,ls),
(284,137,o),
(263,133,o),
(247,133,cs)
);
},
{
closed = 1;
nodes = (
(541,376,o),
(572,392,o),
(617,392,cs),
(666,392,o),
(688,370,o),
(693,321,c),
(530,321,l)
);
}
);
width = 904;
}
);
metricLeft = a;
metricRight = e;
unicode = 230;
},
{
color = 4;
glyphname = b;
kernLeft = h;
kernRight = o;
lastChange = "2021-09-30 22:26:40 +0000";
layers = (
{
background = {
shapes = (
{
closed = 1;
nodes = (
(435,-6,o),
(543,87,o),
(543,245,cs),
(543,404,o),
(430,496,o),
(294,496,cs),
(252,496,o),
(206,487,o),
(167,472,cs),
(120,454,l),
(136,477,l),
(156,418,l),
(114,424,l),
(179,444,ls),
(218,456,o),
(255,462,o),
(289,462,cs),
(416,462,o),
(506,383,o),
(506,245,cs),
(506,108,o),
(413,27,o),
(287,27,cs),
(251,27,o),
(212,34,o),
(177,46,cs),
(126,63,l),
(149,67,l),
(127,13,l),
(114,41,l),
(165,19,ls),
(206,1,o),
(252,-6,o),
(295,-6,cs)
);
}
);
};
layerId = "620D8D18-E43F-4D11-9420-7EF908A5CAE8";
shapes = (
{
closed = 1;
nodes = (
(443,-6,o),
(538,102,o),
(538,245,cs),
(538,388,o),
(442,496,o),
(304,496,cs),
(255,496,o),
(207,481,o),
(160,454,cs),
(117,429,l),
(125,424,l),
(125,770,l),
(90,738,l),
(90,0,l),
(116,0,l),
(125,74,l),
(125,81,l),
(125,406,l),
(175,429,ls),
(225,453,o),
(261,462,o),
(298,462,cs),
(427,462,o),
(501,360,o),
(501,243,cs),
(501,111,o),
(414,27,o),
(298,27,cs),
(261,27,o),
(225,38,o),
(175,61,cs),
(125,84,l),
(117,61,l),
(160,36,ls),
(207,9,o),
(255,-6,o),
(304,-6,cs)
);
}
);
width = 593;
},
{
background = {
shapes = (
{
closed = 1;
nodes = (
(566,-9,o),
(631,136,o),
(631,263,cs),
(631,390,o),
(566,535,o),
(401,535,cs),
(365,535,o),
(314,526,o),
(277,508,cs),
(203,472,l),
(262,425,l),
(262,770,l),
(45,738,l),
(45,0,l),
(203,0,l),
(231,100,l),
(262,136,l),
(262,345,l),
(284,351,ls),
(298,355,o),
(314,357,o),
(333,357,cs),
(384,357,o),
(413,336,o),
(413,263,cs),
(413,189,o),
(386,168,o),
(333,168,cs),
(311,168,o),
(282,176,o),
(257,190,c),
(216,70,l),
(258,16,o),
(345,-9,o),
(401,-9,cs)
);
}
);
};
layerId = "5C950900-0D0F-4959-81DE-75F048290F1B";
shapes = (
{
closed = 1;
nodes = (
(536,-9,o),
(631,101,o),
(631,263,cs),
(631,424,o),
(537,535,o),
(401,535,cs),
(360,535,o),
(310,524,o),
(277,508,cs),
(203,472,l),
(262,425,l),
(262,770,l),
(45,738,l),
(45,0,l),
(203,0,l),
(231,100,l),
(262,136,l),
(262,345,l),
(284,351,ls),
(298,355,o),
(314,357,o),
(333,357,cs),
(390,357,o),
(413,329,o),
(413,263,cs),
(413,195,o),
(391,168,o),
(333,168,cs),
(315,168,o),
(294,173,o),
(277,181,cs),
(257,190,l),
(199,70,l),
(245,41,ls),
(298,8,o),
(348,-9,o),
(396,-9,cs)
);
}
);
width = 656;
},
{
background = {
shapes = (
{
closed = 1;
nodes = (
(536,-9,o),
(631,101,o),
(631,263,cs),
(631,424,o),
(537,535,o),
(401,535,cs),
(360,535,o),
(310,524,o),
(277,508,cs),
(203,472,l),
(262,425,l),
(262,770,l),
(45,738,l),
(45,0,l),
(203,0,l),
(231,100,l),
(262,136,l),
(262,345,l),
(284,351,ls),
(298,355,o),
(314,357,o),
(333,357,cs),
(390,357,o),
(413,329,o),
(413,263,cs),
(413,195,o),
(391,168,o),
(333,168,cs),
(315,168,o),
(294,173,o),
(277,181,cs),
(257,190,l),
(199,70,l),
(245,41,ls),
(298,8,o),
(348,-9,o),
(396,-9,cs)
);
}
);
};
layerId = "514A1583-697A-4C0A-B081-2869E94CF283";
shapes = (
{
closed = 1;
nodes = (
(474,-8,o),
(567,101,o),
(567,254,cs),
(567,408,o),
(475,516,o),
(343,516,cs),
(305,516,o),
(261,506,o),
(226,490,cs),
(159,460,l),
(196,427,l),
(196,770,l),
(70,738,l),
(70,0,l),
(165,0,l),
(181,93,l),
(196,114,l),
(196,375,l),
(230,387,ls),
(259,397,o),
(284,402,o),
(307,402,cs),
(390,402,o),
(439,351,o),
(439,255,cs),
(439,159,o),
(394,107,o),
(314,107,cs),
(288,107,o),
(261,113,o),
(235,129,cs),
(190,156,l),
(165,69,l),
(206,41,ls),
(253,9,o),
(301,-8,o),
(344,-8,cs)
);
}
);
width = 612;
}
);
metricLeft = n;
metricRight = o;
unicode = 98;
},
{
color = 4;
glyphname = c;
kernLeft = o;
kernRight = c;
lastChange = "2021-09-30 22:26:40 +0000";
layers = (
{
anchors = (
{
name = bottom;
pos = (265,-35);
},
{
name = top;
pos = (309,550);
}
);
background = {
shapes = (
{
closed = 1;
nodes = (
(351,-6,o),
(397,2,o),
(438,19,cs),
(489,41,l),
(476,13,l),
(454,67,l),
(477,63,l),
(426,46,ls),
(391,35,o),
(352,27,o),
(316,27,cs),
(190,27,o),
(97,108,o),
(97,245,cs),
(97,383,o),
(187,462,o),
(314,462,cs),
(348,462,o),
(385,456,o),
(424,444,cs),
(489,424,l),
(447,418,l),
(467,477,l),
(483,454,l),
(436,472,ls),
(397,487,o),
(351,496,o),
(309,496,cs),
(173,496,o),
(60,404,o),
(60,245,cs),
(60,87,o),
(168,-6,o),
(308,-6,cs)
);
}
);
};
guides = (
{
angle = 90;
pos = (459,160);
},
{
angle = 90;
pos = (449,174);
}
);
layerId = "620D8D18-E43F-4D11-9420-7EF908A5CAE8";
shapes = (
{
closed = 1;
nodes = (
(346,-6,o),
(392,2,o),
(433,19,cs),
(463,32,l),
(454,56,l),
(421,45,ls),
(386,33,o),
(347,27,o),
(311,27,cs),
(185,27,o),
(92,108,o),
(92,245,cs),
(92,383,o),
(182,463,o),
(309,463,cs),
(346,463,o),
(385,456,o),
(421,444,cs),
(448,435,l),
(458,461,l),
(434,471,ls),
(393,489,o),
(347,496,o),
(304,496,cs),
(168,496,o),
(55,404,o),
(55,245,cs),
(55,87,o),
(163,-6,o),
(303,-6,cs)
);
}
);
width = 502;
},
{
anchors = (
{
name = bottom;
pos = (275,-35);
},
{
name = top;
pos = (325,550);
}
);
background = {
shapes = (
{
closed = 1;
nodes = (
(364,-9,o),
(414,1,o),
(464,19,cs),
(544,48,l),
(499,10,l),
(447,222,l),
(487,190,l),
(428,183,ls),
(386,178,o),
(363,177,o),
(342,177,cs),
(283,177,o),
(243,200,o),
(243,267,cs),
(243,331,o),
(280,357,o),
(341,357,cs),
(372,357,o),
(395,354,o),
(420,349,cs),
(490,338,l),
(440,304,l),
(492,516,l),
(544,482,l),
(463,510,ls),
(415,526,o),
(366,535,o),
(320,535,cs),
(153,535,o),
(25,440,o),
(25,263,cs),
(25,91,o),
(157,-9,o),
(317,-9,cs)
);
}
);
};
guides = (
{
angle = 90;
pos = (494,266);
}
);
layerId = "5C950900-0D0F-4959-81DE-75F048290F1B";
shapes = (
{
closed = 1;
nodes = (
(364,-9,o),
(414,1,o),
(464,19,cs),
(495,30,l),
(464,187,l),
(428,183,ls),
(386,178,o),
(363,177,o),
(342,177,cs),
(283,177,o),
(243,200,o),
(243,267,cs),
(243,331,o),
(280,357,o),
(341,357,cs),
(372,357,o),
(395,354,o),
(420,349,cs),
(450,344,l),
(488,501,l),
(463,510,ls),
(415,526,o),
(366,535,o),
(320,535,cs),
(153,535,o),
(25,440,o),
(25,263,cs),
(25,91,o),
(157,-9,o),
(317,-9,cs)
);
}
);
width = 496;
},
{
associatedMasterId = "5C950900-0D0F-4959-81DE-75F048290F1B";
background = {
shapes = (
{
closed = 1;
nodes = (
(388,-9,o),
(468,21,o),
(534,70,c),
(499,10,l),
(447,222,l),
(495,204,l),
(429,186,o),
(380,177,o),
(338,177,cs),
(283,177,o),
(243,204,o),
(243,267,cs),
(243,331,o),
(281,357,o),
(341,357,cs),
(383,357,o),
(432,348,o),
(498,333,c),
(440,304,l),
(492,516,l),
(546,456,l),
(478,505,o),
(394,535,o),
(318,535,cs),
(161,535,o),
(25,440,o),
(25,263,cs),
(25,81,o),
(161,-9,o),
(315,-9,cs)
);
}
);
};
guides = (
{
angle = 90;
pos = (492,266);
}
);
layerId = "9B9CC5C4-3753-47A6-8344-A7C9F81706A8";
name = "Mar 12 18, 17:50";
shapes = (
{
closed = 1;
nodes = (
(262,-106,o),
(550,37,c),
(518,-22,l),
(518,195,l),
(570,186,l),
(488,176,o),
(427,172,o),
(371,172,cs),
(274,172,o),
(242,190,o),
(242,255,cs),
(242,311,o),
(280,336,o),
(317,336,cs),
(371,336,o),
(495,278,o),
(557,261,c),
(422,240,l),
(570,507,l),
(637,358,l),
(536,426,o),
(427,535,o),
(278,535,cs),
(164,535,o),
(25,440,o),
(25,254,cs),
(25,-13,o)
);
}
);
width = 535;
},
{
associatedMasterId = "5C950900-0D0F-4959-81DE-75F048290F1B";
background = {
shapes = (
{
closed = 1;
nodes = (
(497,-10,o),
(617,96,o),
(617,262,cs),
(617,428,o),
(507,535,o),
(323,535,cs),
(144,535,o),
(25,429,o),
(25,263,cs),
(25,97,o),
(134,-10,o),
(319,-10,cs)
);
},
{
closed = 1;
nodes = (
(270,165,o),
(243,186,o),
(243,262,cs),
(243,339,o),
(272,360,o),
(321,360,cs),
(372,360,o),
(398,339,o),
(398,262,cs),
(398,186,o),
(370,165,o),
(321,165,cs)
);
}
);
};
guides = (
{
pos = (347,286);
}
);
layerId = "0B8C878D-AE3C-4A83-A205-D58ECCFACC51";
name = "Mar 13 18, 08:47";
shapes = (
{
closed = 1;
nodes = (
(416,173,o),
(363,172,cs),
(284,171,o),
(243,192,o),
(243,271,cs),
(243,317,o),
(259,364,o),
(323,364,cs),
(372,364,o),
(388,330,o),
(388,278,cs),
(388,265,l),
(583,265,l),
(583,286,ls),
(583,440,o),
(482,535,o),
(319,535,cs),
(167,535,o),
(25,444,o),
(25,262,cs),
(25,75,o),
(152,-9,o),
(315,-9,cs),
(416,-9,o),
(561,37,o),
(635,83,c),
(594,15,l),
(546,231,l),
(569,200,l),
(490,184,o)
);
}
);
width = 600;
},
{
associatedMasterId = "5C950900-0D0F-4959-81DE-75F048290F1B";
background = {
shapes = (
{
closed = 1;
nodes = (
(262,-106,o),
(550,37,c),
(518,-22,l),
(518,195,l),
(570,186,l),
(488,176,o),
(427,172,o),
(371,172,cs),
(274,172,o),
(242,190,o),
(242,255,cs),
(242,311,o),
(280,336,o),
(317,336,cs),
(371,336,o),
(495,278,o),
(557,261,c),
(422,240,l),
(570,507,l),
(637,358,l),
(536,426,o),
(427,535,o),
(278,535,cs),
(164,535,o),
(25,440,o),
(25,254,cs),
(25,-13,o)
);
}
);
};
guides = (
{
angle = 90;
pos = (492,266);
}
);
layerId = "0999EA5F-06F4-4A53-9BE6-D47CF30C07DF";
name = "Mar 31 18, 23:19";
shapes = (
{
closed = 1;
nodes = (
(133,-9,o),
(298,-9,cs),
(372,-9,o),
(458,11,o),
(550,50,c),
(518,-22,l),
(518,217,l),
(570,196,l),
(491,177,o),
(421,165,o),
(369,165,cs),
(287,165,o),
(242,184,o),
(242,255,cs),
(242,317,o),
(275,341,o),
(319,341,cs),
(373,341,o),
(446,271,o),
(481,246,c),
(435,246,l),
(615,473,l),
(581,359,l),
(530,400,o),
(439,535,o),
(289,535,cs),
(159,535,o),
(25,443,o),
(25,254,cs),
(25,70,o)
);
}
);
width = 565;
},
{
associatedMasterId = "5C950900-0D0F-4959-81DE-75F048290F1B";
background = {
shapes = (
{
closed = 1;
nodes = (
(146,-9,o),
(318,-9,cs),
(392,-9,o),
(478,11,o),
(570,50,c),
(528,-22,l),
(528,217,l),
(570,196,l),
(491,177,o),
(421,165,o),
(369,165,cs),
(287,165,o),
(242,184,o),
(242,255,cs),
(242,317,o),
(275,341,o),
(319,341,cs),
(385,341,o),
(474,286,o),
(516,260,c),
(420,246,l),
(584,473,l),
(600,381,l),
(526,444,o),
(443,535,o),
(307,535,cs),
(169,535,o),
(25,447,o),
(25,254,cs),
(25,68,o)
);
}
);
};
guides = (
{
angle = 90;
pos = (492,266);
}
);
layerId = "D4532447-C6A2-4C17-8606-B05FFAA80657";
name = "Mar 31 18, 23:24";
shapes = (
{
closed = 1;
nodes = (
(154,-9,o),
(337,-9,cs),
(416,-9,o),
(507,11,o),
(605,50,c),
(551,-22,l),
(551,217,l),
(605,196,l),
(518,177,o),
(441,165,o),
(382,165,cs),
(292,165,o),
(242,184,o),
(242,255,cs),
(242,317,o),
(278,341,o),
(327,341,cs),
(400,341,o),
(499,286,o),
(546,260,c),
(436,246,l),
(610,473,l),
(637,381,l),
(558,444,o),
(470,535,o),
(325,535,cs),
(178,535,o),
(25,447,o),
(25,254,cs),
(25,68,o)
);
}
);
width = 565;
},
{
associatedMasterId = "5C950900-0D0F-4959-81DE-75F048290F1B";
background = {
shapes = (
{
closed = 1;
nodes = (
(146,-9,o),
(318,-9,cs),
(392,-9,o),
(478,11,o),
(570,50,c),
(528,-22,l),
(528,217,l),
(570,196,l),
(491,177,o),
(421,165,o),
(369,165,cs),
(287,165,o),
(242,184,o),
(242,255,cs),
(242,317,o),
(275,341,o),
(319,341,cs),
(385,341,o),
(474,286,o),
(516,260,c),
(420,246,l),
(584,473,l),
(600,381,l),
(526,444,o),
(443,535,o),
(307,535,cs),
(169,535,o),
(25,447,o),
(25,254,cs),
(25,68,o)
);
}
);
};
guides = (
{
angle = 90;
pos = (492,266);
}
);
layerId = "3D494151-E7D6-4ECB-BC4F-954AAC384553";
name = "Apr 1 18, 00:24";
shapes = (
{
closed = 1;
nodes = (
(154,-9,o),
(337,-9,cs),
(416,-9,o),
(507,11,o),
(605,50,c),
(541,-22,l),
(541,217,l),
(605,196,l),
(518,177,o),
(441,165,o),
(382,165,cs),
(292,165,o),
(242,184,o),
(242,255,cs),
(242,317,o),
(278,341,o),
(327,341,cs),
(400,341,o),
(499,286,o),
(546,260,c),
(426,246,l),
(590,473,l),
(637,381,l),
(558,444,o),
(470,535,o),
(325,535,cs),
(178,535,o),
(25,447,o),
(25,254,cs),
(25,68,o)
);
}
);
width = 571;
},
{
anchors = (
{
name = bottom;
pos = (275,-35);
},
{
name = top;
pos = (309,550);
}
);
background = {
shapes = (
{
closed = 1;
nodes = (
(348,482,o),
(388,474,o),
(426,462,cs),
(480,444,l),
(449,440,l),
(471,496,l),
(478,473,l),
(439,490,ls),
(396,509,o),
(349,516,o),
(304,516,cs),
(163,516,o),
(45,420,o),
(45,255,cs),
(45,91,o),
(157,-6,o),
(303,-6,cs),
(348,-6,o),
(395,1,o),
(438,20,cs),
(491,43,l),
(478,14,l),
(455,70,l),
(479,65,l),
(426,47,ls),
(389,35,o),
(349,28,o),
(311,28,cs),
(180,28,o),
(83,113,o),
(83,255,cs),
(83,398,o),
(177,482,o),
(309,482,cs)
);
}
);
};
guides = (
{
pos = (236,406);
},
{
pos = (211,108);
}
);
layerId = "514A1583-697A-4C0A-B081-2869E94CF283";
shapes = (
{
closed = 1;
nodes = (
(348,-8,o),
(396,0,o),
(442,19,cs),
(468,30,l),
(444,120,l),
(413,113,ls),
(379,106,o),
(347,103,o),
(321,103,cs),
(235,103,o),
(173,155,o),
(173,254,cs),
(173,353,o),
(232,406,o),
(319,406,cs),
(344,406,o),
(374,404,o),
(404,397,cs),
(438,389,l),
(461,481,l),
(433,492,ls),
(397,506,o),
(352,516,o),
(306,516,cs),
(163,516,o),
(45,421,o),
(45,254,cs),
(45,86,o),
(157,-8,o),
(305,-8,cs)
);
}
);
width = 490;
},
{
anchors = (
{
name = bottom;
pos = (275,-35);
},
{
name = top;
pos = (325,550);
}
);
associatedMasterId = "5C950900-0D0F-4959-81DE-75F048290F1B";
background = {
shapes = (
{
closed = 1;
nodes = (
(364,-9,o),
(414,1,o),
(464,19,cs),
(544,48,l),
(499,10,l),
(447,222,l),
(487,190,l),
(428,183,ls),
(386,178,o),
(363,177,o),
(342,177,cs),
(283,177,o),
(243,200,o),
(243,267,cs),
(243,331,o),
(280,357,o),
(341,357,cs),
(372,357,o),
(395,354,o),
(420,349,cs),
(490,338,l),
(440,304,l),
(492,516,l),
(544,482,l),
(463,510,ls),
(415,526,o),
(366,535,o),
(320,535,cs),
(153,535,o),
(25,440,o),
(25,263,cs),
(25,91,o),
(157,-9,o),
(317,-9,cs)
);
}
);
};
guides = (
{
angle = 90;
pos = (514,255);
}
);
layerId = "A9901ABC-1A57-4816-B6FB-DA4B73540C03";
name = "Dec 10 18, 10:00";
shapes = (
{
closed = 1;
nodes = (
(381,-9,o),
(434,1,o),
(486,19,cs),
(571,48,l),
(553,10,l),
(499,222,l),
(543,193,l),
(446,183,ls),
(399,178,o),
(374,177,o),
(351,177,cs),
(287,177,o),
(243,201,o),
(243,270,cs),
(243,337,o),
(284,363,o),
(350,363,cs),
(385,363,o),
(410,360,o),
(437,355,cs),
(514,344,l),
(461,304,l),
(516,516,l),
(571,482,l),
(485,510,ls),
(435,526,o),
(383,535,o),
(335,535,cs),
(160,535,o),
(25,440,o),
(25,263,cs),
(25,86,o),
(158,-9,o),
(332,-9,cs)
);
},
{
closed = 1;
nodes = (
(383,301,l),
(514,301,l),
(514,499,l),
(287,499,l)
);
}
);
width = 556;
}
);
metricLeft = o;
unicode = 99;
},
{
glyphname = ccedilla;
kernLeft = o;
kernRight = c;
lastChange = "2021-09-30 22:26:40 +0000";
layers = (
{
layerId = "620D8D18-E43F-4D11-9420-7EF908A5CAE8";
shapes = (
{
ref = c;
},
{
pos = (265,0);
ref = cedillacomb;
}
);
width = 502;
},
{
layerId = "514A1583-697A-4C0A-B081-2869E94CF283";
shapes = (
{
ref = c;
},
{
pos = (275,0);
ref = cedillacomb;
}
);
width = 490;
},
{
background = {
shapes = (
{
closed = 1;
nodes = (
(234,-24,l),
(234,-50,o),
(223,-68,o),
(194,-68,cs),
(173,-68,o),
(161,-65,o),
(136,-61,c),
(162,-48,l),
(128,-196,l),
(100,-170,l),
(151,-190,ls),
(182,-202,o),
(214,-209,o),
(244,-209,cs),
(357,-209,o),
(423,-151,o),
(390,-24,c)
);
}
);
};
layerId = "5C950900-0D0F-4959-81DE-75F048290F1B";
shapes = (
{
ref = c;
},
{
pos = (275,0);
ref = cedillacomb;
}
);
width = 496;
},
{
associatedMasterId = "5C950900-0D0F-4959-81DE-75F048290F1B";
layerId = "A37B8792-5E6B-496C-A943-7EAC3164E776";
name = "Apr 22 18, 11:16";
shapes = (
{
ref = c;
}
);
width = 496;
},
{
associatedMasterId = "5C950900-0D0F-4959-81DE-75F048290F1B";
layerId = "1E4F9306-3410-4228-9033-9CEC31CF15D6";
name = "Apr 22 18, 11:20";
shapes = (
{
closed = 1;
nodes = (
(341,-183,l),
(383,-152,o),
(410,-104,o),
(429,-43,c),
(191,-43,l),
(182,-98,o),
(166,-145,o),
(144,-183,c)
);
},
{
ref = c;
}
);
width = 496;
}
);
unicode = 231;
},
{
color = 4;
glyphname = d;
kernLeft = o;
kernRight = d;
lastChange = "2021-09-30 22:26:40 +0000";
layers = (
{
anchors = (
{
name = caron;
pos = (636,413);
}
);
background = {
shapes = (
{
closed = 1;
nodes = (
(351,-6,o),
(427,20,o),
(482,90,c),
(480,121,l),
(434,62,o),
(349,27,o),
(300,27,cs),
(171,27,o),
(97,130,o),
(97,247,cs),
(97,386,o),
(188,464,o),
(302,464,cs),
(334,464,o),
(367,457,o),
(401,445,cs),
(473,419,l),
(473,92,l),
(473,85,l),
(476,0,l),
(508,0,l),
(508,770,l),
(473,738,l),
(473,429,l),
(480,447,l),
(415,472,ls),
(374,488,o),
(334,496,o),
(296,496,cs),
(162,496,o),
(60,398,o),
(60,245,cs),
(60,102,o),
(155,-6,o),
(294,-6,cs)
);
},
{
closed = 0;
nodes = (
(-7,424,l),
(1,429,l),
(-42,454,ls),
(-89,481,o),
(-137,496,o),
(-186,496,cs),
(-325,496,o),
(-420,388,o),
(-420,245,cs),
(-420,102,o),
(-325,-6,o),
(-186,-6,cs),
(-137,-6,o),
(-89,9,o),
(-42,36,cs),
(1,61,l),
(-7,84,l),
(-57,61,ls),
(-107,38,o),
(-143,27,o),
(-180,27,cs),
(-296,27,o),
(-383,111,o),
(-383,243,cs),
(-383,360,o),
(-309,463,o),
(-180,463,cs),
(-143,463,o),
(-107,452,o),
(-57,429,cs),
(-7,406,l),
(-7,81,l),
(-7,74,l)
);
}
);
};
layerId = "620D8D18-E43F-4D11-9420-7EF908A5CAE8";
shapes = (
{
closed = 1;
nodes = (
(338,-6,o),
(386,9,o),
(433,36,cs),
(471,58,l),
(477,0,l),
(503,0,l),
(503,770,l),
(468,738,l),
(468,434,l),
(433,454,ls),
(386,481,o),
(338,496,o),
(289,496,cs),
(150,496,o),
(55,388,o),
(55,245,cs),
(55,102,o),
(150,-6,o),
(289,-6,cs)
);
},
{
closed = 1;
nodes = (
(92,360,o),
(166,463,o),
(295,463,cs),
(332,463,o),
(368,452,o),
(418,429,cs),
(468,406,l),
(468,84,l),
(418,61,ls),
(368,38,o),
(332,27,o),
(295,27,cs),
(179,27,o),
(92,111,o),
(92,243,cs)
);
}
);
width = 593;
},
{
anchors = (
{
name = caron;
pos = (797,410);
}
);
background = {
shapes = (
{
closed = 1;
nodes = (
(110,535,o),
(25,419,o),
(25,263,cs),
(25,136,o),
(90,-9,o),
(255,-9,cs),
(311,-9,o),
(398,16,o),
(440,70,c),
(399,190,l),
(374,176,o),
(345,168,o),
(323,168,cs),
(270,168,o),
(243,189,o),
(243,263,cs),
(243,330,o),
(264,357,o),
(323,357,cs),
(342,357,o),
(358,354,o),
(372,351,cs),
(410,342,l),
(453,471,l),
(379,507,ls),
(342,525,o),
(291,535,o),
(255,535,cs)
);
},
{
closed = 1;
nodes = (
(611,525,l),
(453,525,l),
(425,425,l),
(394,389,l),
(394,-195,l),
(611,-217,l)
);
}
);
};
guides = (
{
angle = 90;
pos = (243,375);
},
{
pos = (150,168);
}
);
layerId = "5C950900-0D0F-4959-81DE-75F048290F1B";
shapes = (
{
closed = 1;
nodes = (
(306,-9,o),
(357,10,o),
(406,41,cs),
(436,60,l),
(453,0,l),
(611,0,l),
(611,770,l),
(394,738,l),
(394,501,l),
(379,508,ls),
(342,526,o),
(291,535,o),
(255,535,cs),
(90,535,o),
(25,390,o),
(25,263,cs),
(25,136,o),
(90,-9,o),
(255,-9,cs)
);
},
{
closed = 1;
nodes = (
(243,336,o),
(272,357,o),
(323,357,cs),
(342,357,o),
(358,354,o),
(372,351,cs),
(394,346,l),
(394,190,l),
(375,181,ls),
(357,172,o),
(337,168,o),
(321,168,cs),
(270,168,o),
(243,189,o),
(243,263,cs)
);
}
);
width = 656;
},
{
anchors = (
{
name = caron;
pos = (697,413);
}
);
background = {
shapes = (
{
closed = 1;
nodes = (
(454,-8,o),
(557,99,o),
(557,254,cs),
(557,408,o),
(458,516,o),
(303,516,cs),
(149,516,o),
(45,409,o),
(45,254,cs),
(45,100,o),
(144,-8,o),
(301,-8,cs)
);
},
{
closed = 1;
nodes = (
(223,101,o),
(173,157,o),
(173,254,cs),
(173,351,o),
(224,407,o),
(302,407,cs),
(380,407,o),
(428,351,o),
(428,254,cs),
(428,157,o),
(379,101,o),
(302,101,cs)
);
}
);
};
guides = (
{
angle = 90;
pos = (171,255);
}
);
layerId = "514A1583-697A-4C0A-B081-2869E94CF283";
shapes = (
{
closed = 1;
nodes = (
(314,-8,o),
(362,11,o),
(406,41,cs),
(437,62,l),
(447,0,l),
(542,0,l),
(542,770,l),
(416,738,l),
(416,477,l),
(386,490,ls),
(349,507,o),
(305,516,o),
(269,516,cs),
(125,516,o),
(45,394,o),
(45,254,cs),
(45,119,o),
(122,-8,o),
(268,-8,cs)
);
},
{
closed = 1;
nodes = (
(173,358,o),
(226,407,o),
(305,407,cs),
(330,407,o),
(357,401,o),
(382,390,cs),
(416,375,l),
(416,147,l),
(382,126,ls),
(354,109,o),
(327,102,o),
(304,102,cs),
(216,102,o),
(173,158,o),
(173,255,cs)
);
}
);
width = 612;
},
{
anchors = (
{
name = caron;
pos = (797,410);
}
);
associatedMasterId = "5C950900-0D0F-4959-81DE-75F048290F1B";
background = {
shapes = (
{
closed = 1;
nodes = (
(110,535,o),
(25,419,o),
(25,263,cs),
(25,136,o),
(90,-9,o),
(255,-9,cs),
(311,-9,o),
(398,16,o),
(440,70,c),
(399,190,l),
(374,176,o),
(345,168,o),
(323,168,cs),
(270,168,o),
(243,189,o),
(243,263,cs),
(243,330,o),
(264,357,o),
(323,357,cs),
(342,357,o),
(358,354,o),
(372,351,cs),
(410,342,l),
(453,471,l),
(379,507,ls),
(342,525,o),
(291,535,o),
(255,535,cs)
);
},
{
closed = 1;
nodes = (
(611,525,l),
(453,525,l),
(425,425,l),
(394,389,l),
(394,-195,l),
(611,-217,l)
);
}
);
};
guides = (
{
angle = 90;
pos = (243,375);
},
{
pos = (150,168);
}
);
layerId = "84675B19-DB06-4B8F-9F8C-49BE8FE4495A";
name = "Jun 15 18, 08:39";
shapes = (
{
closed = 1;
nodes = (
(306,-9,o),
(357,10,o),
(406,41,cs),
(452,70,l),
(394,190,l),
(375,181,ls),
(357,172,o),
(337,168,o),
(321,168,cs),
(270,168,o),
(243,189,o),
(243,263,cs),
(243,336,o),
(272,357,o),
(323,357,cs),
(342,357,o),
(358,354,o),
(372,351,cs),
(394,346,l),
(394,136,l),
(425,100,l),
(453,0,l),
(611,0,l),
(611,770,l),
(394,688,l),
(394,425,l),
(453,472,l),
(379,508,ls),
(342,526,o),
(291,535,o),
(255,535,cs),
(90,535,o),
(25,390,o),
(25,263,cs),
(25,136,o),
(90,-9,o),
(255,-9,cs)
);
}
);
width = 656;
}
);
metricLeft = o;
metricRight = "=|n";
unicode = 100;
},
{
color = 9;
glyphname = eth;
kernLeft = eth;
kernRight = eth;
lastChange = "2023-04-22 03:49:18 +0000";
layers = (
{
guides = (
{
pos = (70,764);
},
{
angle = 90;
pos = (508,401);
}
);
layerId = "620D8D18-E43F-4D11-9420-7EF908A5CAE8";
shapes = (
{
closed = 1;
nodes = (
(508,740,l),
(487,764,l),
(239,548,l),
(260,524,l)
);
},
{
ref = partialdiff;
}
);
width = 573;
},
{
background = {
shapes = (
{
closed = 1;
nodes = (
(546,703,l),
(480,767,l),
(338,624,l),
(407,563,l)
);
}
);
};
layerId = "514A1583-697A-4C0A-B081-2869E94CF283";
shapes = (
{
closed = 1;
nodes = (
(546,703,l),
(480,767,l),
(252,537,l),
(321,476,l)
);
},
{
ref = partialdiff;
}
);
width = 629;
},
{
layerId = "5C950900-0D0F-4959-81DE-75F048290F1B";
shapes = (
{
closed = 1;
nodes = (
(581,682,l),
(473,770,l),
(217,460,l),
(327,374,l)
);
},
{
ref = partialdiff;
}
);
width = 634;
},
{
associatedMasterId = "620D8D18-E43F-4D11-9420-7EF908A5CAE8";
attr = {
axisRules = (
{
max = 445;
min = 308;
}
);
};
layerId = "63387FC1-F3FA-40B4-B31A-357FA40F57A1";
shapes = (
{
ref = eth.bold;
}
);
width = 573;
},
{
associatedMasterId = "514A1583-697A-4C0A-B081-2869E94CF283";
attr = {
axisRules = (
{
max = 445;
min = 308;
}
);
};
layerId = "EE6A4227-B396-4159-8355-7DB6AC3B54FD";
shapes = (
{
ref = eth.bold;
}
);
width = 629;
},
{
associatedMasterId = "5C950900-0D0F-4959-81DE-75F048290F1B";
attr = {
axisRules = (
{
max = 445;
min = 308;
}
);
};
layerId = "F1489C12-A973-45C1-849B-A86BAE835C46";
shapes = (
{
ref = eth.bold;
}
);
width = 634;
}
);
metricLeft = partialdiff;
metricRight = partialdiff;
unicode = 240;
},
{
color = 3;
glyphname = dcroat;
kernLeft = o;
lastChange = "2021-09-30 22:26:40 +0000";
layers = (
{
background = {
shapes = (
{
closed = 1;
nodes = (
(606,624,l),
(258,624,l),
(258,591,l),
(606,591,l)
);
},
{
pos = (593,0);
ref = h;
scale = (-1,1);
}
);
};
layerId = "620D8D18-E43F-4D11-9420-7EF908A5CAE8";
shapes = (
{
closed = 1;
nodes = (
(338,-6,o),
(386,9,o),
(433,36,cs),
(471,58,l),
(477,0,l),
(503,0,l),
(503,591,l),
(606,591,l),
(606,624,l),
(503,624,l),
(503,770,l),
(468,738,l),
(468,624,l),
(258,624,l),
(258,591,l),
(468,591,l),
(468,434,l),
(433,454,ls),
(386,481,o),
(338,496,o),
(289,496,cs),
(150,496,o),
(55,388,o),
(55,245,cs),
(55,102,o),
(150,-6,o),
(289,-6,cs)
);
},
{
closed = 1;
nodes = (
(92,360,o),
(166,463,o),
(295,463,cs),
(332,463,o),
(368,452,o),
(418,429,cs),
(468,406,l),
(468,84,l),
(418,61,ls),
(368,38,o),
(332,27,o),
(295,27,cs),
(179,27,o),
(92,111,o),
(92,243,cs)
);
}
);
width = 611;
},
{
background = {
shapes = (
{
closed = 1;
nodes = (
(314,-8,o),
(362,11,o),
(406,41,cs),
(447,69,l),
(422,151,l),
(382,129,ls),
(353,113,o),
(327,107,o),
(304,107,cs),
(216,107,o),
(173,161,o),
(173,255,cs),
(173,354,o),
(226,402,o),
(305,402,cs),
(330,402,o),
(356,396,o),
(382,387,cs),
(416,375,l),
(416,114,l),
(432,93,l),
(447,0,l),
(542,0,l),
(542,770,l),
(416,738,l),
(416,427,l),
(453,460,l),
(386,490,ls),
(349,507,o),
(305,516,o),
(269,516,cs),
(125,516,o),
(45,394,o),
(45,254,cs),
(45,119,o),
(122,-8,o),
(268,-8,cs)
);
}
);
};
layerId = "514A1583-697A-4C0A-B081-2869E94CF283";
shapes = (
{
closed = 1;
nodes = (
(314,-8,o),
(361,10,o),
(407,39,cs),
(438,59,l),
(450,0,l),
(542,0,l),
(542,568,l),
(626,568,l),
(626,652,l),
(542,652,l),
(542,770,l),
(416,738,l),
(416,652,l),
(223,652,l),
(223,568,l),
(416,568,l),
(416,452,l),
(394,463,ls),
(354,485,o),
(307,496,o),
(266,496,cs),
(121,496,o),
(45,375,o),
(45,245,cs),
(45,114,o),
(121,-8,o),
(266,-8,cs)
);
},
{
closed = 1;
nodes = (
(173,327,o),
(220,382,o),
(303,382,cs),
(329,382,o),
(354,376,o),
(385,363,cs),
(416,350,l),
(416,142,l),
(385,127,ls),
(353,114,o),
(327,107,o),
(302,107,cs),
(226,107,o),
(173,156,o),
(173,245,cs)
);
}
);
width = 631;
},
{
background = {
shapes = (
{
closed = 1;
nodes = (
(611,738,l),
(394,770,l),
(394,385,l),
(474,407,l),
(402,449,ls),
(356,476,o),
(305,495,o),
(254,495,cs),
(123,495,o),
(56,415,o),
(56,310,cs),
(56,0,l),
(273,0,l),
(273,252,ls),
(273,283,o),
(286,301,o),
(334,301,cs),
(349,301,o),
(362,299,o),
(374,295,cs),
(394,288,l),
(394,0,l),
(611,0,l)
);
},
{
closed = 1;
nodes = (
(218,679,l),
(218,544,l),
(675,544,l),
(675,679,l)
);
}
);
};
guides = (
{
pos = (3,496);
}
);
layerId = "5C950900-0D0F-4959-81DE-75F048290F1B";
shapes = (
{
closed = 1;
nodes = (
(306,-9,o),
(357,10,o),
(406,41,cs),
(436,60,l),
(453,0,l),
(611,0,l),
(611,556,l),
(675,556,l),
(675,679,l),
(611,679,l),
(611,770,l),
(394,738,l),
(394,679,l),
(218,679,l),
(218,556,l),
(394,556,l),
(394,464,l),
(379,471,ls),
(342,488,o),
(291,496,o),
(255,496,cs),
(90,496,o),
(25,361,o),
(25,244,cs),
(25,126,o),
(90,-9,o),
(255,-9,cs)
);
},
{
closed = 1;
nodes = (
(243,304,o),
(272,322,o),
(323,322,cs),
(342,322,o),
(358,320,o),
(372,317,cs),
(394,313,l),
(394,181,l),
(375,173,ls),
(357,166,o),
(337,163,o),
(321,163,cs),
(270,163,o),
(243,181,o),
(243,243,cs)
);
}
);
width = 680;
}
);
metricLeft = d;
metricRight = "=|hbar";
unicode = 273;
},
{
color = 4;
glyphname = e;
kernLeft = o;
kernRight = e;
lastChange = "2021-09-30 22:26:40 +0000";
layers = (
{
anchors = (
{
name = bottom;
pos = (307,-35);
},
{
name = ogonek;
pos = (338,10);
},
{
name = top;
pos = (289,550);
}
);
background = {
shapes = (
{
closed = 1;
nodes = (
(328,-8,o),
(386,5,o),
(440,26,cs),
(501,50,l),
(493,23,l),
(438,152,l),
(475,125,l),
(411,108,ls),
(368,97,o),
(328,89,o),
(289,89,cs),
(191,89,o),
(117,142,o),
(117,258,cs),
(117,372,o),
(179,428,o),
(261,428,cs),
(348,428,o),
(388,371,o),
(388,274,c),
(418,301,l),
(83,301,l),
(83,229,l),
(497,229,l),
(497,260,ls),
(497,408,o),
(413,516,o),
(258,516,cs),
(113,516,o),
(-7,413,o),
(-7,253,cs),
(-7,84,o),
(121,-8,o),
(273,-8,cs)
);
}
);
};
guides = (
{
angle = 90;
pos = (284,391);
},
{
angle = 90;
pos = (497,211);
}
);
layerId = "620D8D18-E43F-4D11-9420-7EF908A5CAE8";
shapes = (
{
closed = 1;
nodes = (
(356,-6,o),
(405,6,o),
(447,24,cs),
(486,41,l),
(475,64,l),
(437,50,ls),
(393,35,o),
(352,27,o),
(307,27,cs),
(195,27,o),
(92,107,o),
(92,248,c),
(498,248,l),
(498,264,ls),
(498,387,o),
(432,496,o),
(287,496,cs),
(152,496,o),
(55,381,o),
(55,244,cs),
(55,80,o),
(175,-6,o),
(309,-6,cs)
);
},
{
closed = 1;
nodes = (
(108,392,o),
(191,463,o),
(288,463,cs),
(396,463,o),
(457,390,o),
(464,280,c),
(94,280,l)
);
}
);
width = 548;
},
{
anchors = (
{
name = bottom;
pos = (330,-35);
},
{
name = ogonek;
pos = (411,10);
},
{
name = top;
pos = (328,550);
}
);
background = {
shapes = (
{
closed = 1;
nodes = (
(393,-9,o),
(460,4,o),
(527,32,cs),
(603,64,l),
(579,28,l),
(500,222,l),
(558,181,l),
(479,165,ls),
(436,156,o),
(397,151,o),
(364,151,cs),
(280,151,o),
(236,176,o),
(236,270,cs),
(236,366,o),
(270,392,o),
(327,392,cs),
(386,392,o),
(405,361,o),
(405,289,c),
(444,321,l),
(193,321,l),
(193,210,l),
(599,210,l),
(599,255,ls),
(599,428,o),
(495,535,o),
(327,535,cs),
(171,535,o),
(25,444,o),
(25,262,cs),
(25,87,o),
(161,-9,o),
(330,-9,cs)
);
}
);
};
guides = (
{
angle = 90;
pos = (328,453);
},
{
angle = 90;
pos = (599,195);
}
);
layerId = "5C950900-0D0F-4959-81DE-75F048290F1B";
shapes = (
{
closed = 1;
nodes = (
(393,-9,o),
(460,2,o),
(527,27,cs),
(584,48,l),
(532,176,l),
(479,165,ls),
(436,156,o),
(397,151,o),
(364,151,cs),
(302,151,o),
(261,165,o),
(245,210,c),
(589,210,l),
(589,255,ls),
(589,428,o),
(487,535,o),
(322,535,cs),
(168,535,o),
(25,444,o),
(25,262,cs),
(25,87,o),
(161,-9,o),
(330,-9,cs)
);
},
{
closed = 1;
nodes = (
(251,376,o),
(282,392,o),
(327,392,cs),
(377,392,o),
(398,370,o),
(403,321,c),
(240,321,l)
);
}
);
width = 604;
},
{
anchors = (
{
name = bottom;
pos = (318,-35);
},
{
name = ogonek;
pos = (380,10);
},
{
name = top;
pos = (304,550);
}
);
background = {
shapes = (
{
closed = 1;
nodes = (
(371,-8,o),
(428,5,o),
(480,26,cs),
(540,50,l),
(532,23,l),
(478,152,l),
(514,125,l),
(452,108,ls),
(410,97,o),
(371,89,o),
(333,89,cs),
(238,89,o),
(166,142,o),
(166,258,cs),
(166,372,o),
(226,428,o),
(306,428,cs),
(391,428,o),
(430,371,o),
(430,274,c),
(459,301,l),
(133,301,l),
(133,229,l),
(536,229,l),
(536,260,ls),
(536,408,o),
(454,516,o),
(303,516,cs),
(162,516,o),
(45,413,o),
(45,253,cs),
(45,84,o),
(170,-8,o),
(318,-8,cs)
);
}
);
};
layerId = "514A1583-697A-4C0A-B081-2869E94CF283";
shapes = (
{
closed = 1;
nodes = (
(371,-8,o),
(428,4,o),
(482,30,cs),
(521,49,l),
(487,132,l),
(442,119,ls),
(404,108,o),
(366,102,o),
(332,102,cs),
(250,102,o),
(189,138,o),
(176,220,c),
(536,220,l),
(536,260,ls),
(536,408,o),
(455,516,o),
(303,516,cs),
(162,516,o),
(45,413,o),
(45,253,cs),
(45,84,o),
(170,-8,o),
(318,-8,cs)
);
},
{
closed = 1;
nodes = (
(196,372,o),
(239,409,o),
(303,409,cs),
(368,409,o),
(405,373,o),
(416,312,c),
(180,312,l)
);
}
);
width = 571;
},
{
anchors = (
{
name = top;
pos = (328,550);
}
);
associatedMasterId = "5C950900-0D0F-4959-81DE-75F048290F1B";
background = {
shapes = (
{
closed = 1;
nodes = (
(364,-9,o),
(414,1,o),
(464,19,cs),
(544,48,l),
(499,10,l),
(447,222,l),
(487,190,l),
(428,183,ls),
(386,178,o),
(363,177,o),
(342,177,cs),
(283,177,o),
(243,200,o),
(243,267,cs),
(243,331,o),
(280,357,o),
(341,357,cs),
(372,357,o),
(395,354,o),
(420,349,cs),
(490,338,l),
(440,304,l),
(492,516,l),
(544,482,l),
(463,510,ls),
(415,526,o),
(366,535,o),
(320,535,cs),
(153,535,o),
(25,440,o),
(25,263,cs),
(25,91,o),
(157,-9,o),
(317,-9,cs)
);
}
);
};
guides = (
{
angle = 90;
pos = (328,453);
},
{
angle = 90;
pos = (599,195);
}
);
layerId = "36FC488C-33EC-4D8B-89E8-E89B13CADB73";
name = "Apr 16 18, 14:56";
shapes = (
{
closed = 1;
nodes = (
(393,-9,o),
(460,4,o),
(527,32,cs),
(603,64,l),
(594,28,l),
(515,222,l),
(558,192,l),
(479,176,ls),
(436,168,o),
(397,163,o),
(364,163,cs),
(276,162,o),
(236,182,o),
(236,265,cs),
(236,320,o),
(253,375,o),
(327,375,cs),
(384,375,o),
(405,340,o),
(405,285,c),
(444,309,l),
(193,309,l),
(193,219,l),
(599,219,l),
(599,255,ls),
(599,428,o),
(495,535,o),
(327,535,cs),
(171,535,o),
(25,444,o),
(25,262,cs),
(25,87,o),
(161,-9,o),
(330,-9,cs)
);
}
);
width = 614;
},
{
anchors = (
{
name = top;
pos = (328,550);
}
);
associatedMasterId = "5C950900-0D0F-4959-81DE-75F048290F1B";
background = {
shapes = (
{
closed = 1;
nodes = (
(364,-9,o),
(414,1,o),
(464,19,cs),
(544,48,l),
(499,10,l),
(447,222,l),
(487,190,l),
(428,183,ls),
(386,178,o),
(363,177,o),
(342,177,cs),
(283,177,o),
(243,200,o),
(243,267,cs),
(243,331,o),
(280,357,o),
(341,357,cs),
(372,357,o),
(395,354,o),
(420,349,cs),
(490,338,l),
(440,304,l),
(492,516,l),
(544,482,l),
(463,510,ls),
(415,526,o),
(366,535,o),
(320,535,cs),
(153,535,o),
(25,440,o),
(25,263,cs),
(25,91,o),
(157,-9,o),
(317,-9,cs)
);
}
);
};
guides = (
{
angle = 90;
pos = (328,453);
},
{
angle = 90;
pos = (599,195);
}
);
layerId = "6A263C89-733A-4267-A510-C0FD9882AFD1";
name = "Apr 16 18, 14:58";
shapes = (
{
closed = 1;
nodes = (
(393,-9,o),
(460,4,o),
(527,32,cs),
(603,64,l),
(594,28,l),
(515,222,l),
(558,192,l),
(479,176,ls),
(436,168,o),
(397,163,o),
(364,163,cs),
(276,162,o),
(236,182,o),
(236,265,cs),
(236,320,o),
(253,375,o),
(327,375,cs),
(384,375,o),
(405,340,o),
(405,285,c),
(444,316,l),
(193,316,l),
(193,209,l),
(599,209,l),
(599,255,ls),
(599,428,o),
(495,535,o),
(327,535,cs),
(171,535,o),
(25,444,o),
(25,262,cs),
(25,87,o),
(161,-9,o),
(330,-9,cs)
);
}
);
width = 614;
},
{
anchors = (
{
name = bottom;
pos = (330,-35);
},
{
name = ogonek;
pos = (411,10);
},
{
name = top;
pos = (328,550);
}
);
associatedMasterId = "5C950900-0D0F-4959-81DE-75F048290F1B";
background = {
shapes = (
{
closed = 0;
nodes = (
(328,392,ls),
(379,392,o),
(405,370,o),
(405,289,cs)
);
}
);
};
guides = (
{
angle = 90;
pos = (328,453);
},
{
angle = 90;
pos = (599,195);
}
);
layerId = "9D706C2D-9797-44F3-B309-D3A1C12F889F";
name = "Dec 9 18, 12:49";
shapes = (
{
closed = 1;
nodes = (
(393,-9,o),
(460,4,o),
(527,32,cs),
(603,64,l),
(579,28,l),
(500,222,l),
(558,181,l),
(479,165,ls),
(436,156,o),
(397,151,o),
(364,151,cs),
(280,151,o),
(236,176,o),
(236,270,cs),
(236,366,o),
(270,392,o),
(327,392,cs),
(386,392,o),
(405,361,o),
(405,289,c),
(444,321,l),
(193,321,l),
(193,210,l),
(599,210,l),
(599,255,ls),
(599,428,o),
(495,535,o),
(327,535,cs),
(171,535,o),
(25,444,o),
(25,262,cs),
(25,87,o),
(161,-9,o),
(330,-9,cs)
);
}
);
width = 614;
}
);
metricLeft = o;
unicode = 101;
},
{
color = 4;
glyphname = f;
kernLeft = f;
kernRight = f;
lastChange = "2021-09-30 22:26:40 +0000";
layers = (
{
background = {
shapes = (
{
closed = 1;
nodes = (
(158,0,l),
(158,457,l),
(351,457,l),
(351,490,l),
(158,490,l),
(158,598,ls),
(158,693,o),
(209,723,o),
(283,723,cs),
(305,723,o),
(329,720,o),
(354,716,cs),
(389,710,l),
(369,705,l),
(378,748,l),
(389,735,l),
(361,743,ls),
(335,751,o),
(304,756,o),
(276,756,cs),
(185,756,o),
(123,710,o),
(123,605,cs),
(123,490,l),
(10,480,l),
(10,457,l),
(123,457,l),
(123,0,l)
);
}
);
};
guides = (
{
pos = (-33,456);
}
);
layerId = "620D8D18-E43F-4D11-9420-7EF908A5CAE8";
shapes = (
{
closed = 1;
nodes = (
(158,0,l),
(158,457,l),
(351,457,l),
(351,490,l),
(158,490,l),
(158,598,ls),
(158,693,o),
(209,723,o),
(283,723,cs),
(305,723,o),
(329,720,o),
(354,716,cs),
(371,713,l),
(376,739,l),
(362,743,ls),
(336,750,o),
(304,756,o),
(276,756,cs),
(185,756,o),
(123,710,o),
(123,605,cs),
(123,490,l),
(10,480,l),
(10,457,l),
(123,457,l),
(123,0,l)
);
}
);
width = 370;
},
{
background = {
shapes = (
{
closed = 1;
nodes = (
(336,0,l),
(336,348,l),
(485,348,l),
(485,515,l),
(337,515,l),
(337,563,ls),
(337,592,o),
(362,601,o),
(409,601,cs),
(423,601,o),
(440,599,o),
(461,596,cs),
(510,589,l),
(475,568,l),
(512,779,l),
(564,722,l),
(488,741,ls),
(439,754,o),
(386,765,o),
(325,765,cs),
(189,765,o),
(119,688,o),
(119,576,cs),
(119,515,l),
(15,481,l),
(15,348,l),
(119,348,l),
(119,0,l)
);
}
);
};
guides = (
{
angle = 90;
pos = (485,260);
}
);
layerId = "5C950900-0D0F-4959-81DE-75F048290F1B";
shapes = (
{
closed = 1;
nodes = (
(336,0,l),
(336,358,l),
(485,358,l),
(485,525,l),
(337,525,l),
(337,563,ls),
(337,589,o),
(355,601,o),
(409,601,cs),
(423,601,o),
(440,599,o),
(461,597,cs),
(480,595,l),
(507,738,l),
(494,742,ls),
(441,757,o),
(389,765,o),
(343,765,cs),
(214,765,o),
(119,715,o),
(119,582,cs),
(119,525,l),
(15,491,l),
(15,358,l),
(119,358,l),
(119,0,l)
);
}
);
width = 510;
},
{
background = {
shapes = (
{
closed = 1;
nodes = (
(246,0,l),
(246,398,l),
(400,398,l),
(400,508,l),
(246,508,l),
(246,576,ls),
(246,628,o),
(279,647,o),
(336,647,cs),
(352,647,o),
(371,644,o),
(392,641,cs),
(430,635,l),
(397,594,l),
(426,764,l),
(457,730,l),
(411,743,ls),
(372,754,o),
(332,761,o),
(298,761,cs),
(194,761,o),
(120,713,o),
(120,594,cs),
(120,508,l),
(10,486,l),
(10,398,l),
(120,398,l),
(120,0,l)
);
}
);
};
guides = (
{
pos = (416,392);
}
);
layerId = "514A1583-697A-4C0A-B081-2869E94CF283";
shapes = (
{
closed = 1;
nodes = (
(246,0,l),
(246,398,l),
(400,398,l),
(400,508,l),
(246,508,l),
(246,580,ls),
(246,632,o),
(279,651,o),
(336,651,cs),
(352,651,o),
(371,648,o),
(392,645,cs),
(405,643,l),
(422,740,l),
(411,743,ls),
(372,754,o),
(332,761,o),
(298,761,cs),
(194,761,o),
(120,713,o),
(120,594,cs),
(120,508,l),
(10,486,l),
(10,398,l),
(120,398,l),
(120,0,l)
);
}
);
width = 424;
},
{
associatedMasterId = "5C950900-0D0F-4959-81DE-75F048290F1B";
background = {
shapes = (
{
closed = 1;
nodes = (
(336,0,l),
(336,358,l),
(485,358,l),
(485,525,l),
(337,525,l),
(337,563,ls),
(337,589,o),
(355,601,o),
(409,601,cs),
(423,601,o),
(440,599,o),
(461,597,cs),
(510,591,l),
(475,568,l),
(515,779,l),
(564,722,l),
(491,742,ls),
(438,756,o),
(389,765,o),
(343,765,cs),
(214,765,o),
(119,715,o),
(119,582,cs),
(119,525,l),
(15,491,l),
(15,358,l),
(119,358,l),
(119,0,l)
);
}
);
};
guides = (
{
angle = 90;
pos = (485,260);
}
);
layerId = "AB6BC73A-A88B-4D75-B107-85F7AEFEBC9B";
name = "Dec 10 18, 12:12";
shapes = (
{
closed = 1;
nodes = (
(336,0,l),
(336,358,l),
(485,358,l),
(485,525,l),
(337,525,l),
(287,591,o),
(338,601,o),
(409,601,cs),
(423,601,o),
(440,599,o),
(461,597,cs),
(510,591,l),
(475,568,l),
(515,779,l),
(564,722,l),
(491,742,ls),
(438,756,o),
(370,765,o),
(324,765,cs),
(153,765,o),
(59,692,o),
(119,525,c),
(15,491,l),
(15,358,l),
(119,358,l),
(119,0,l)
);
}
);
width = 510;
}
);
unicode = 102;
},
{
color = 4;
glyphname = g;
kernLeft = o;
kernRight = u;
lastChange = "2021-09-30 22:26:40 +0000";
layers = (
{
anchors = (
{
name = top;
pos = (305,550);
}
);
background = {
shapes = (
{
closed = 1;
nodes = (
(481,429,l),
(438,454,ls),
(391,481,o),
(343,496,o),
(294,496,cs),
(155,496,o),
(60,388,o),
(60,245,cs),
(60,102,o),
(155,-6,o),
(294,-6,cs),
(343,-6,o),
(391,9,o),
(438,36,cs),
(481,61,l),
(473,84,l),
(423,61,ls),
(373,38,o),
(337,27,o),
(300,27,cs),
(184,27,o),
(97,111,o),
(97,243,cs),
(97,360,o),
(171,463,o),
(300,463,cs),
(337,463,o),
(373,452,o),
(423,429,cs),
(473,406,l),
(473,-209,l),
(508,-195,l),
(508,490,l),
(476,490,l),
(473,408,l)
);
},
{
closed = 1;
nodes = (
(390,20,ls),
(390,-24,o),
(344,-37,o),
(282,-37,cs),
(241,-37,o),
(193,-31,o),
(147,-25,cs),
(78,-16,l),
(118,38,l),
(68,-195,l),
(23,-158,l),
(116,-182,ls),
(182,-200,o),
(249,-209,o),
(310,-209,cs),
(477,-209,o),
(606,-130,o),
(606,46,cs),
(606,525,l),
(448,525,l),
(420,425,l),
(389,389,l)
);
},
{
closed = 1;
nodes = (
(105,535,o),
(20,427,o),
(20,281,cs),
(20,163,o),
(85,28,o),
(250,28,cs),
(306,28,o),
(393,51,o),
(435,101,c),
(394,215,l),
(369,202,o),
(340,195,o),
(318,195,cs),
(265,195,o),
(238,214,o),
(238,283,cs),
(238,346,o),
(259,371,o),
(318,371,cs),
(337,371,o),
(353,368,o),
(367,365,cs),
(405,357,l),
(448,475,l),
(374,509,ls),
(337,526,o),
(286,535,o),
(250,535,cs)
);
}
);
};
layerId = "620D8D18-E43F-4D11-9420-7EF908A5CAE8";
shapes = (
{
closed = 1;
nodes = (
(427,-209,o),
(503,-160,o),
(503,-41,cs),
(503,490,l),
(477,490,l),
(470,433,l),
(433,454,ls),
(386,481,o),
(338,496,o),
(289,496,cs),
(150,496,o),
(55,388,o),
(55,245,cs),
(55,102,o),
(150,-6,o),
(289,-6,cs),
(338,-6,o),
(386,9,o),
(433,36,cs),
(468,56,l),
(468,-41,ls),
(468,-144,o),
(406,-176,o),
(290,-176,cs),
(247,-176,o),
(192,-171,o),
(147,-161,cs),
(112,-154,l),
(106,-180,l),
(141,-189,ls),
(184,-200,o),
(249,-209,o),
(290,-209,cs)
);
},
{
closed = 1;
nodes = (
(92,360,o),
(166,463,o),
(295,463,cs),
(332,463,o),
(368,452,o),
(418,429,cs),
(468,406,l),
(468,84,l),
(418,61,ls),
(368,38,o),
(332,27,o),
(295,27,cs),
(179,27,o),
(92,111,o),
(92,243,cs)
);
}
);
width = 593;
},
{
anchors = (
{
name = top;
pos = (343,550);
}
);
background = {
anchors = (
{
name = top;
pos = (323,550);
}
);
shapes = (
{
closed = 1;
nodes = (
(482,-209,o),
(611,-130,o),
(611,46,cs),
(611,525,l),
(453,525,l),
(425,425,l),
(394,389,l),
(395,20,ls),
(395,-24,o),
(349,-37,o),
(287,-37,cs),
(246,-37,o),
(198,-31,o),
(152,-25,cs),
(83,-16,l),
(123,38,l),
(73,-195,l),
(28,-158,l),
(121,-182,ls),
(187,-200,o),
(254,-209,o),
(315,-209,cs)
);
},
{
closed = 1;
nodes = (
(306,28,o),
(357,45,o),
(406,75,cs),
(452,103,l),
(394,216,l),
(375,208,ls),
(357,200,o),
(338,195,o),
(323,195,cs),
(270,195,o),
(243,214,o),
(243,283,cs),
(243,346,o),
(264,371,o),
(323,371,cs),
(342,371,o),
(358,368,o),
(372,365,cs),
(410,357,l),
(455,481,l),
(390,507,ls),
(351,522,o),
(298,535,o),
(255,535,cs),
(110,535,o),
(25,427,o),
(25,281,cs),
(25,163,o),
(90,28,o),
(255,28,cs)
);
}
);
};
guides = (
{
angle = 90;
pos = (310,-176);
}
);
layerId = "5C950900-0D0F-4959-81DE-75F048290F1B";
shapes = (
{
closed = 1;
nodes = (
(482,-209,o),
(611,-130,o),
(611,46,cs),
(611,525,l),
(453,525,l),
(442,486,l),
(390,507,ls),
(351,522,o),
(298,535,o),
(255,535,cs),
(110,535,o),
(25,427,o),
(25,281,cs),
(25,163,o),
(90,28,o),
(255,28,cs),
(296,28,o),
(337,37,o),
(376,59,cs),
(395,69,l),
(395,20,ls),
(395,-24,o),
(349,-37,o),
(287,-37,cs),
(246,-37,o),
(198,-31,o),
(152,-25,cs),
(111,-20,l),
(78,-171,l),
(121,-182,ls),
(187,-200,o),
(254,-209,o),
(315,-209,cs)
);
},
{
closed = 1;
nodes = (
(243,346,o),
(264,371,o),
(323,371,cs),
(342,371,o),
(358,368,o),
(372,365,cs),
(394,360,l),
(395,215,l),
(375,208,ls),
(357,200,o),
(338,195,o),
(323,195,cs),
(270,195,o),
(243,214,o),
(243,283,cs)
);
}
);
width = 656;
},
{
associatedMasterId = "5C950900-0D0F-4959-81DE-75F048290F1B";
background = {
shapes = (
{
closed = 1;
nodes = (
(395,20,ls),
(395,-18,o),
(368,-37,o),
(286,-37,cs),
(230,-37,o),
(148,-25,o),
(83,-9,c),
(117,57,l),
(72,-219,l),
(28,-146,l),
(123,-187,o),
(221,-209,o),
(310,-209,cs),
(482,-209,o),
(611,-129,o),
(611,46,cs),
(611,432,l),
(453,473,l),
(425,425,l),
(394,389,l),
(394,210,l),
(377,204,o),
(354,199,o),
(323,199,cs),
(272,199,o),
(243,218,o),
(243,281,cs),
(243,345,o),
(270,363,o),
(323,363,cs),
(419,363,o),
(546,341,o),
(657,328,c),
(657,473,l),
(584,515,o),
(431,535,o),
(332,535,cs),
(112,535,o),
(25,399,o),
(25,281,cs),
(25,163,o),
(90,28,o),
(255,28,cs),
(315,28,o),
(408,51,o),
(453,101,c),
(394,100,l)
);
}
);
};
layerId = "E25F1A51-71C8-411A-BCF6-74AC1C1861F0";
name = "Mar 13 18, 09:24";
shapes = (
{
closed = 1;
nodes = (
(395,20,ls),
(395,-18,o),
(368,-37,o),
(286,-37,cs),
(230,-37,o),
(148,-25,o),
(83,-9,c),
(117,57,l),
(72,-219,l),
(28,-146,l),
(123,-187,o),
(221,-209,o),
(310,-209,cs),
(482,-209,o),
(611,-129,o),
(611,46,cs),
(611,432,l),
(453,473,l),
(425,425,l),
(394,389,l),
(394,210,l),
(377,204,o),
(354,199,o),
(323,199,cs),
(272,199,o),
(243,218,o),
(243,281,cs),
(243,414,o),
(425,362,o),
(677,328,c),
(677,473,l),
(396,590,o),
(25,546,o),
(25,281,cs),
(25,163,o),
(90,28,o),
(255,28,cs),
(315,28,o),
(408,51,o),
(453,101,c),
(394,100,l)
);
}
);
width = 682;
},
{
associatedMasterId = "5C950900-0D0F-4959-81DE-75F048290F1B";
background = {
shapes = (
{
closed = 1;
nodes = (
(395,20,ls),
(395,-18,o),
(368,-37,o),
(286,-37,cs),
(230,-37,o),
(148,-25,o),
(83,-9,c),
(117,57,l),
(72,-219,l),
(28,-146,l),
(123,-187,o),
(221,-209,o),
(310,-209,cs),
(482,-209,o),
(611,-129,o),
(611,46,cs),
(611,525,l),
(453,525,l),
(425,425,l),
(394,389,l),
(394,210,l),
(377,204,o),
(354,199,o),
(323,199,cs),
(272,199,o),
(243,218,o),
(243,281,cs),
(243,345,o),
(270,363,o),
(323,363,cs),
(345,363,o),
(374,357,o),
(399,344,c),
(440,461,l),
(398,511,o),
(311,535,o),
(255,535,cs),
(90,535,o),
(25,399,o),
(25,281,cs),
(25,163,o),
(90,28,o),
(255,28,cs),
(315,28,o),
(408,51,o),
(453,101,c),
(394,100,l)
);
}
);
};
layerId = "7CA212B4-F2F2-49B3-BCBE-E70762E0375B";
name = "Mar 13 18, 09:30";
shapes = (
{
closed = 1;
nodes = (
(458,127,o),
(568,207,o),
(568,331,cs),
(568,455,o),
(467,535,o),
(298,535,cs),
(134,535,o),
(25,455,o),
(25,332,cs),
(25,208,o),
(125,127,o),
(295,127,cs)
);
},
{
closed = 1;
nodes = (
(253,263,o),
(231,278,o),
(231,331,cs),
(231,385,o),
(255,399,o),
(297,399,cs),
(340,399,o),
(362,385,o),
(362,331,cs),
(362,278,o),
(338,263,o),
(297,263,cs)
);
},
{
closed = 1;
nodes = (
(663,-209,o),
(689,93,o),
(416,93,cs),
(232,93,ls),
(218,93,o),
(213,108,o),
(217,143,c),
(131,177,l),
(82,133,o),
(7,-60,o),
(150,-60,cs),
(434,-60,ls),
(467,-60,o),
(458,-87,o),
(339,-87,cs),
(272,-87,o),
(171,-92,o),
(163,-52,c),
(125,-46,l),
(35,-100,o),
(65,-209,o),
(258,-209,cs)
);
}
);
width = 656;
},
{
anchors = (
{
name = top;
pos = (304,550);
}
);
background = {
shapes = (
{
closed = 1;
nodes = (
(304,20,o),
(348,29,o),
(385,46,cs),
(452,76,l),
(427,164,l),
(381,149,ls),
(355,140,o),
(329,134,o),
(304,134,cs),
(225,134,o),
(172,182,o),
(172,281,cs),
(172,374,o),
(215,429,o),
(303,429,cs),
(326,429,o),
(352,420,o),
(381,405,cs),
(421,384,l),
(446,467,l),
(405,495,ls),
(361,525,o),
(313,544,o),
(267,544,cs),
(121,544,o),
(44,417,o),
(44,282,cs),
(44,142,o),
(124,20,o),
(268,20,cs)
);
},
{
closed = 1;
nodes = (
(541,-167,l),
(541,536,l),
(445,536,l),
(429,443,l),
(415,422,l),
(415,-189,l)
);
}
);
};
guides = (
{
pos = (130,275);
}
);
layerId = "514A1583-697A-4C0A-B081-2869E94CF283";
shapes = (
{
closed = 1;
nodes = (
(443,-209,o),
(541,-145,o),
(541,3,cs),
(541,508,l),
(448,508,l),
(436,446,l),
(406,467,ls),
(362,498,o),
(314,516,o),
(268,516,cs),
(122,516,o),
(45,396,o),
(45,268,cs),
(45,136,o),
(125,20,o),
(269,20,cs),
(305,20,o),
(349,29,o),
(386,45,cs),
(415,57,l),
(415,-4,ls),
(415,-77,o),
(365,-100,o),
(280,-100,cs),
(241,-100,o),
(191,-94,o),
(151,-87,cs),
(117,-81,l),
(95,-173,l),
(129,-183,ls),
(184,-199,o),
(248,-209,o),
(297,-209,cs)
);
},
{
closed = 1;
nodes = (
(173,347,o),
(219,400,o),
(304,400,cs),
(328,400,o),
(355,392,o),
(387,374,cs),
(415,358,l),
(415,160,l),
(383,149,ls),
(357,141,o),
(330,135,o),
(305,135,cs),
(226,135,o),
(173,178,o),
(173,267,cs)
);
}
);
width = 611;
},
{
anchors = (
{
name = top;
pos = (315,550);
}
);
associatedMasterId = "620D8D18-E43F-4D11-9420-7EF908A5CAE8";
background = {
shapes = (
{
closed = 1;
nodes = (
(342,-6,o),
(418,20,o),
(473,90,c),
(471,121,l),
(425,62,o),
(340,27,o),
(291,27,cs),
(162,27,o),
(88,130,o),
(88,247,cs),
(88,386,o),
(179,464,o),
(293,464,cs),
(325,464,o),
(358,457,o),
(392,445,cs),
(464,419,l),
(464,92,l),
(464,85,l),
(467,0,l),
(499,0,l),
(499,770,l),
(464,738,l),
(464,429,l),
(471,447,l),
(406,472,ls),
(365,488,o),
(325,496,o),
(287,496,cs),
(153,496,o),
(51,398,o),
(51,245,cs),
(51,102,o),
(146,-6,o),
(285,-6,cs)
);
}
);
};
layerId = "B5A1D04D-45B3-4DDA-A545-7997961B50AC";
name = "May 6 18, 09:10";
shapes = (
{
closed = 1;
nodes = (
(423,-209,o),
(499,-160,o),
(499,-41,cs),
(499,490,l),
(470,490,l),
(464,418,l),
(464,411,l),
(464,98,l),
(416,53,o),
(347,27,o),
(305,27,cs),
(176,27,o),
(102,130,o),
(102,247,cs),
(102,377,o),
(188,463,o),
(298,463,cs),
(337,463,o),
(379,451,o),
(421,429,cs),
(478,399,l),
(485,422,l),
(425,457,ls),
(379,484,o),
(333,496,o),
(289,496,cs),
(166,496,o),
(65,397,o),
(65,245,cs),
(65,102,o),
(160,-6,o),
(299,-6,cs),
(353,-6,o),
(423,17,o),
(477,78,c),
(464,78,l),
(464,-41,ls),
(464,-144,o),
(402,-176,o),
(286,-176,cs),
(243,-176,o),
(188,-171,o),
(143,-161,cs),
(91,-150,l),
(118,-133,l),
(105,-191,l),
(82,-175,l),
(137,-189,ls),
(180,-200,o),
(245,-209,o),
(286,-209,cs)
);
}
);
width = 594;
},
{
anchors = (
{
name = top;
pos = (323,550);
}
);
associatedMasterId = "5C950900-0D0F-4959-81DE-75F048290F1B";
background = {
shapes = (
{
closed = 1;
nodes = (
(482,-209,o),
(611,-130,o),
(611,46,cs),
(611,525,l),
(453,525,l),
(425,425,l),
(394,389,l),
(394,210,l),
(377,204,o),
(354,199,o),
(323,199,cs),
(272,199,o),
(243,218,o),
(243,281,cs),
(243,349,o),
(272,369,o),
(323,369,cs),
(342,369,o),
(358,366,o),
(372,363,cs),
(422,352,l),
(453,476,l),
(379,510,ls),
(342,527,o),
(291,535,o),
(255,535,cs),
(90,535,o),
(25,400,o),
(25,281,cs),
(25,163,o),
(90,28,o),
(255,28,cs),
(315,28,o),
(408,51,o),
(453,101,c),
(394,100,l),
(395,20,ls),
(395,-24,o),
(349,-37,o),
(287,-37,cs),
(246,-37,o),
(198,-31,o),
(152,-25,cs),
(83,-16,l),
(123,38,l),
(73,-195,l),
(28,-158,l),
(121,-182,ls),
(187,-200,o),
(254,-209,o),
(315,-209,cs)
);
}
);
};
guides = (
{
angle = 90;
pos = (310,-176);
}
);
layerId = "497B00E3-5CD0-40D3-853E-0029220267D2";
name = "May 6 18, 11:13";
shapes = (
{
closed = 1;
nodes = (
(482,-209,o),
(611,-130,o),
(611,46,cs),
(611,525,l),
(453,525,l),
(425,425,l),
(394,389,l),
(394,210,l),
(377,204,o),
(354,199,o),
(323,199,cs),
(272,199,o),
(243,218,o),
(243,281,cs),
(243,349,o),
(272,369,o),
(323,369,cs),
(342,369,o),
(358,366,o),
(372,363,cs),
(422,352,l),
(453,476,l),
(379,510,ls),
(342,527,o),
(291,535,o),
(255,535,cs),
(90,535,o),
(25,400,o),
(25,281,cs),
(25,163,o),
(90,28,o),
(255,28,cs),
(315,28,o),
(408,51,o),
(453,101,c),
(394,100,l),
(395,20,ls),
(395,-24,o),
(349,-37,o),
(287,-37,cs),
(246,-37,o),
(198,-31,o),
(152,-25,cs),
(83,-16,l),
(123,38,l),
(73,-195,l),
(28,-158,l),
(121,-182,ls),
(187,-200,o),
(254,-209,o),
(315,-209,cs)
);
}
);
width = 656;
}
);
metricLeft = d;
metricRight = u;
unicode = 103;
},
{
color = 4;
glyphname = h;
kernLeft = b;
kernRight = n;
lastChange = "2021-09-30 22:26:40 +0000";
layers = (
{
anchors = (
{
name = top.case;
pos = (110,771);
}
);
background = {
shapes = (
{
closed = 1;
nodes = (
(130,0,l),
(130,403,l),
(180,428,o),
(243,463,o),
(318,463,cs),
(408,463,o),
(459,420,o),
(459,332,cs),
(459,0,l),
(494,0,l),
(494,336,ls),
(494,435,o),
(443,496,o),
(330,496,cs),
(260,496,o),
(191,470,o),
(122,428,c),
(129,424,l),
(121,490,l),
(95,490,l),
(95,0,l)
);
}
);
};
layerId = "620D8D18-E43F-4D11-9420-7EF908A5CAE8";
shapes = (
{
closed = 1;
nodes = (
(125,0,l),
(125,406,l),
(187,433,ls),
(229,451,o),
(269,463,o),
(313,463,cs),
(403,463,o),
(454,420,o),
(454,332,cs),
(454,0,l),
(489,0,l),
(489,336,ls),
(489,435,o),
(438,496,o),
(325,496,cs),
(276,496,o),
(224,485,o),
(173,458,cs),
(125,433,l),
(125,770,l),
(90,738,l),
(90,0,l)
);
}
);
width = 569;
},
{
anchors = (
{
name = top.case;
pos = (144,771);
}
);
background = {
shapes = (
{
closed = 1;
nodes = (
(262,0,l),
(262,328,l),
(277,335,o),
(296,341,o),
(322,341,cs),
(370,341,o),
(383,323,o),
(383,292,cs),
(383,0,l),
(600,0,l),
(600,350,ls),
(600,452,o),
(535,535,o),
(402,535,cs),
(306,535,o),
(238,484,o),
(186,442,c),
(262,425,l),
(262,770,l),
(45,748,l),
(45,0,l)
);
}
);
};
layerId = "5C950900-0D0F-4959-81DE-75F048290F1B";
shapes = (
{
closed = 1;
nodes = (
(262,0,l),
(262,328,l),
(282,335,ls),
(294,339,o),
(307,341,o),
(322,341,cs),
(370,341,o),
(383,323,o),
(383,292,cs),
(383,0,l),
(600,0,l),
(600,350,ls),
(600,455,o),
(533,534,o),
(402,535,cs),
(361,536,o),
(320,523,o),
(281,503,cs),
(262,494,l),
(262,770,l),
(45,738,l),
(45,0,l)
);
}
);
width = 640;
},
{
anchors = (
{
name = top.case;
pos = (135,771);
}
);
background = {
shapes = (
{
closed = 1;
nodes = (
(196,0,l),
(196,367,l),
(228,381,ls),
(256,394,o),
(281,402,o),
(309,402,cs),
(375,402,o),
(402,371,o),
(402,312,cs),
(402,0,l),
(529,0,l),
(529,343,ls),
(529,441,o),
(476,516,o),
(355,516,cs),
(307,516,o),
(257,501,o),
(208,474,cs),
(149,442,l),
(180,425,l),
(166,508,l),
(70,508,l),
(70,0,l)
);
}
);
};
layerId = "514A1583-697A-4C0A-B081-2869E94CF283";
shapes = (
{
closed = 1;
nodes = (
(196,0,l),
(196,367,l),
(228,381,ls),
(256,393,o),
(281,402,o),
(309,402,cs),
(375,402,o),
(402,371,o),
(402,312,cs),
(402,0,l),
(529,0,l),
(529,343,ls),
(529,441,o),
(476,516,o),
(355,516,cs),
(307,516,o),
(257,501,o),
(208,474,cs),
(196,467,l),
(196,770,l),
(70,738,l),
(70,0,l)
);
}
);
width = 592;
},
{
anchors = (
{
name = top.case;
pos = (144,771);
}
);
associatedMasterId = "5C950900-0D0F-4959-81DE-75F048290F1B";
background = {
shapes = (
{
closed = 1;
nodes = (
(262,0,l),
(262,328,l),
(277,335,o),
(296,341,o),
(322,341,cs),
(370,341,o),
(383,323,o),
(383,292,cs),
(383,0,l),
(600,0,l),
(600,350,ls),
(600,452,o),
(535,535,o),
(402,535,cs),
(306,535,o),
(238,484,o),
(186,442,c),
(262,425,l),
(262,770,l),
(45,748,l),
(45,0,l)
);
}
);
};
layerId = "E7221F76-8E22-4AF2-B4FB-6B92023CE45A";
name = "Jun 15 18, 08:39";
shapes = (
{
closed = 1;
nodes = (
(262,0,l),
(262,328,l),
(282,335,ls),
(294,339,o),
(307,341,o),
(322,341,cs),
(370,341,o),
(383,323,o),
(383,292,cs),
(383,0,l),
(600,0,l),
(600,350,ls),
(600,455,o),
(533,535,o),
(402,535,cs),
(351,535,o),
(300,516,o),
(254,489,cs),
(182,447,l),
(262,425,l),
(262,770,l),
(45,688,l),
(45,0,l)
);
}
);
width = 640;
}
);
metricLeft = n;
metricRight = n;
unicode = 104;
},
{
color = 3;
glyphname = hbar;
kernRight = n;
lastChange = "2021-09-30 22:26:40 +0000";
layers = (
{
layerId = "620D8D18-E43F-4D11-9420-7EF908A5CAE8";
shapes = (
{
closed = 1;
nodes = (
(143,0,l),
(143,406,l),
(205,433,ls),
(247,451,o),
(287,463,o),
(331,463,cs),
(421,463,o),
(472,420,o),
(472,332,cs),
(472,0,l),
(507,0,l),
(507,336,ls),
(507,435,o),
(456,496,o),
(343,496,cs),
(294,496,o),
(242,485,o),
(191,458,cs),
(143,433,l),
(143,591,l),
(353,591,l),
(353,624,l),
(143,624,l),
(143,770,l),
(108,738,l),
(108,624,l),
(5,624,l),
(5,591,l),
(108,591,l),
(108,0,l)
);
}
);
width = 587;
},
{
background = {
shapes = (
{
closed = 1;
nodes = (
(215,0,l),
(215,347,l),
(256,364,ls),
(283,375,o),
(309,382,o),
(339,382,cs),
(408,382,o),
(440,352,o),
(440,292,cs),
(440,0,l),
(566,0,l),
(566,323,ls),
(566,425,o),
(507,496,o),
(385,496,cs),
(335,496,o),
(283,481,o),
(235,454,cs),
(171,418,l),
(215,405,l),
(215,770,l),
(89,738,l),
(89,0,l)
);
},
{
closed = 1;
nodes = (
(408,568,l),
(408,652,l),
(5,652,l),
(5,568,l)
);
}
);
};
layerId = "514A1583-697A-4C0A-B081-2869E94CF283";
shapes = (
{
closed = 1;
nodes = (
(215,0,l),
(215,347,l),
(247,361,ls),
(275,373,o),
(300,382,o),
(328,382,cs),
(394,382,o),
(421,351,o),
(421,292,cs),
(421,0,l),
(548,0,l),
(548,323,ls),
(548,421,o),
(495,496,o),
(374,496,cs),
(326,496,o),
(276,481,o),
(227,454,cs),
(215,447,l),
(215,568,l),
(408,568,l),
(408,652,l),
(215,652,l),
(215,770,l),
(89,738,l),
(89,652,l),
(5,652,l),
(5,568,l),
(89,568,l),
(89,0,l)
);
}
);
width = 611;
},
{
layerId = "5C950900-0D0F-4959-81DE-75F048290F1B";
shapes = (
{
closed = 1;
nodes = (
(286,0,l),
(286,288,l),
(306,295,ls),
(318,299,o),
(331,301,o),
(346,301,cs),
(394,301,o),
(407,283,o),
(407,252,cs),
(407,0,l),
(624,0,l),
(624,310,ls),
(624,415,o),
(557,495,o),
(426,495,cs),
(388,495,o),
(350,486,o),
(315,468,cs),
(286,454,l),
(286,556,l),
(462,556,l),
(462,679,l),
(286,679,l),
(286,770,l),
(69,738,l),
(69,679,l),
(5,679,l),
(5,556,l),
(69,556,l),
(69,0,l)
);
}
);
width = 664;
}
);
metricRight = n;
unicode = 295;
},
{
glyphname = idotless;
lastChange = "2021-09-30 22:26:40 +0000";
layers = (
{
anchors = (
{
name = bottom;
pos = (107,-35);
},
{
name = ogonek;
pos = (65,10);
},
{
name = top;
pos = (107,550);
}
);
layerId = "620D8D18-E43F-4D11-9420-7EF908A5CAE8";
shapes = (
{
closed = 1;
nodes = (
(125,0,l),
(125,490,l),
(90,490,l),
(90,0,l)
);
}
);
width = 215;
},
{
anchors = (
{
name = bottom;
pos = (133,-35);
},
{
name = ogonek;
pos = (108,10);
},
{
name = top;
pos = (133,550);
}
);
layerId = "514A1583-697A-4C0A-B081-2869E94CF283";
shapes = (
{
closed = 1;
nodes = (
(196,0,l),
(196,508,l),
(70,508,l),
(70,0,l)
);
}
);
width = 266;
},
{
anchors = (
{
name = bottom;
pos = (153,-35);
},
{
name = ogonek;
pos = (146,10);
},
{
name = top;
pos = (154,550);
}
);
layerId = "5C950900-0D0F-4959-81DE-75F048290F1B";
shapes = (
{
closed = 1;
nodes = (
(262,0,l),
(262,525,l),
(45,525,l),
(45,0,l)
);
}
);
width = 307;
}
);
metricLeft = n;
metricRight = u;
unicode = 305;
},
{
glyphname = j;
kernLeft = j;
lastChange = "2021-09-30 22:26:40 +0000";
layers = (
{
background = {
shapes = (
{
closed = 1;
nodes = (
(-79,-192,l),
(-36,-202,ls),
(-17,-206,o),
(1,-209,o),
(16,-209,cs),
(95,-209,o),
(130,-179,o),
(130,-116,cs),
(130,490,l),
(95,490,l),
(95,-116,ls),
(95,-155,o),
(71,-175,o),
(26,-175,cs),
(9,-175,o),
(-11,-173,o),
(-32,-171,cs),
(-77,-166,l),
(-52,-154,l),
(-61,-211,l)
);
},
{
closed = 1;
nodes = (
(131,646,o),
(147,662,o),
(147,681,cs),
(147,699,o),
(131,715,o),
(113,715,cs),
(94,715,o),
(78,699,o),
(78,681,cs),
(78,662,o),
(94,646,o),
(113,646,cs)
);
}
);
};
guides = (
{
angle = 90;
pos = (-46,-90);
}
);
layerId = "620D8D18-E43F-4D11-9420-7EF908A5CAE8";
shapes = (
{
ref = jdotless;
},
{
pos = (109,0);
ref = dotaccentcomb;
}
);
width = 215;
},
{
background = {
shapes = (
{
closed = 1;
nodes = (
(-133,-168,l),
(-64,-187,ls),
(-22,-199,o),
(21,-209,o),
(55,-209,cs),
(192,-209,o),
(264,-143,o),
(264,-20,cs),
(264,525,l),
(47,525,l),
(47,-1,ls),
(47,-30,o),
(28,-39,o),
(-8,-39,cs),
(-19,-39,o),
(-34,-39,o),
(-47,-37,cs),
(-85,-32,l),
(-54,-12,l),
(-92,-217,l)
);
},
{
closed = 1;
nodes = (
(226,568,o),
(284,624,o),
(284,692,cs),
(284,759,o),
(226,815,o),
(155,815,cs),
(84,815,o),
(26,759,o),
(26,692,cs),
(26,624,o),
(84,568,o),
(155,568,cs)
);
}
);
};
guides = (
{
angle = 90;
pos = (-69,93);
}
);
layerId = "5C950900-0D0F-4959-81DE-75F048290F1B";
shapes = (
{
ref = jdotless;
},
{
pos = (155,0);
ref = dotaccentcomb;
}
);
width = 309;
},
{
background = {
shapes = (
{
closed = 1;
nodes = (
(-106,-180,l),
(-50,-195,ls),
(-20,-203,o),
(11,-209,o),
(36,-209,cs),
(144,-209,o),
(197,-161,o),
(197,-68,cs),
(197,508,l),
(71,508,l),
(71,-45,ls),
(71,-79,o),
(50,-93,o),
(9,-93,cs),
(-5,-93,o),
(-23,-92,o),
(-40,-90,cs),
(-81,-85,l),
(-49,-59,l),
(-77,-214,l)
);
},
{
closed = 1;
nodes = (
(179,607,o),
(216,643,o),
(216,687,cs),
(216,729,o),
(179,765,o),
(134,765,cs),
(89,765,o),
(52,729,o),
(52,687,cs),
(52,643,o),
(89,607,o),
(134,607,cs)
);
}
);
};
guides = (
{
angle = 90;
pos = (-55,71);
}
);
layerId = "514A1583-697A-4C0A-B081-2869E94CF283";
shapes = (
{
ref = jdotless;
},
{
pos = (135,0);
ref = dotaccentcomb;
}
);
width = 267;
}
);
metricRight = i;
unicode = 106;
},
{
glyphname = jdotless;
kernLeft = j;
lastChange = "2021-09-30 22:26:40 +0000";
layers = (
{
anchors = (
{
name = top;
pos = (109,550);
}
);
background = {
shapes = (
{
closed = 1;
nodes = (
(-49,-178,l),
(-24,-197,o),
(6,-201,o),
(29,-201,cs),
(100,-201,o),
(130,-174,o),
(130,-115,cs),
(130,543,l),
(95,575,l),
(95,-104,ls),
(95,-152,o),
(77,-168,o),
(25,-168,cs),
(7,-168,o),
(-14,-168,o),
(-41,-163,c),
(-29,-145,l),
(-27,-220,l)
);
}
);
};
layerId = "620D8D18-E43F-4D11-9420-7EF908A5CAE8";
shapes = (
{
closed = 1;
nodes = (
(96,-209,o),
(125,-182,o),
(125,-117,cs),
(125,490,l),
(90,490,l),
(90,-119,ls),
(90,-158,o),
(68,-178,o),
(26,-178,cs),
(11,-178,o),
(-8,-176,o),
(-28,-174,cs),
(-49,-172,l),
(-52,-197,l),
(-31,-202,ls),
(-13,-207,o),
(5,-209,o),
(19,-209,cs)
);
}
);
width = 215;
},
{
anchors = (
{
name = top;
pos = (135,550);
}
);
background = {
shapes = (
{
closed = 1;
nodes = (
(-87,-180,l),
(-35,-195,ls),
(-6,-203,o),
(23,-209,o),
(46,-209,cs),
(147,-209,o),
(197,-161,o),
(197,-68,cs),
(197,508,l),
(71,508,l),
(71,-45,ls),
(71,-79,o),
(52,-93,o),
(16,-93,cs),
(4,-93,o),
(-12,-92,o),
(-23,-91,cs),
(-64,-85,l),
(-34,-59,l),
(-60,-214,l)
);
}
);
};
layerId = "514A1583-697A-4C0A-B081-2869E94CF283";
shapes = (
{
closed = 1;
nodes = (
(149,-209,o),
(197,-161,o),
(197,-68,cs),
(197,508,l),
(71,508,l),
(71,-51,ls),
(71,-85,o),
(54,-99,o),
(20,-99,cs),
(9,-99,o),
(-6,-98,o),
(-16,-97,cs),
(-31,-96,l),
(-45,-189,l),
(-26,-195,ls),
(2,-203,o),
(30,-209,o),
(52,-209,cs)
);
}
);
width = 267;
},
{
anchors = (
{
name = top;
pos = (155,550);
}
);
background = {
shapes = (
{
closed = 1;
nodes = (
(-114,-175,l),
(-45,-192,ls),
(-4,-202,o),
(37,-209,o),
(82,-209,cs),
(195,-209,o),
(264,-143,o),
(264,-24,cs),
(264,525,l),
(47,525,l),
(47,-1,ls),
(47,-30,o),
(30,-39,o),
(4,-39,cs),
(-11,-39,o),
(-24,-38,o),
(-35,-36,cs),
(-69,-31,l),
(-39,-12,l),
(-75,-217,l)
);
}
);
};
layerId = "5C950900-0D0F-4959-81DE-75F048290F1B";
shapes = (
{
closed = 1;
nodes = (
(195,-209,o),
(264,-143,o),
(264,-24,cs),
(264,525,l),
(47,525,l),
(47,-1,ls),
(47,-30,o),
(30,-39,o),
(4,-39,cs),
(-11,-39,o),
(-24,-38,o),
(-35,-36,cs),
(-43,-35,l),
(-70,-186,l),
(-45,-192,ls),
(-4,-202,o),
(37,-209,o),
(82,-209,cs)
);
}
);
width = 309;
}
);
metricRight = u;
unicode = 567;
},
